<svg width="848" height="276" viewBox="0 0 848 276" fill="none" xmlns="http://www.w3.org/2000/svg">
<path d="M0.639648 1.76H49.4397V4.8H40.6396V55.36L41.9197 55.04L87.0396 4.8H74.3997V1.76H102.4V4.8H92.7997L65.2797 35.52L103.68 110.72H112.32V113.76H60.9597V110.72H68.4797L42.0796 59.68L40.6396 60V110.72H49.4397V113.76H0.639648V110.72H9.43965V4.8H0.639648V1.76ZM166.62 57.12H158.14V110.72H168.54V113.76H116.54V110.72H126.94V4.8H116.54V1.76H164.86C178.726 1.76 188.54 2.50667 194.3 4C200.166 5.38667 204.273 7.09334 206.62 9.12C211.74 13.28 214.3 19.8933 214.3 28.96C214.3 38.0267 212.06 44.5333 207.58 48.48C203.1 52.32 196.273 54.6133 187.1 55.36V55.84C195.74 57.0133 201.766 59.5733 205.18 63.52C208.593 67.4667 210.3 74.08 210.3 83.36V91.84C210.3 97.3867 210.566 101.12 211.1 103.04C211.74 104.96 213.02 105.92 214.94 105.92C216.86 105.92 218.353 105.067 219.42 103.36C220.593 101.547 221.66 97.8133 222.62 92.16L225.34 92.48C224.166 101.547 222.086 107.627 219.1 110.72C216.22 113.813 210.406 115.36 201.66 115.36C192.913 115.36 186.673 113.333 182.94 109.28C179.313 105.12 177.5 97.3867 177.5 86.08V74.4C177.5 68.4267 176.7 64.0533 175.1 61.28C173.606 58.5067 170.78 57.12 166.62 57.12ZM158.14 4.8V54.08H163.26C169.34 54.08 173.82 52.2133 176.7 48.48C179.686 44.7467 181.18 38.6667 181.18 30.24V25.6C181.18 17.1733 179.74 11.6267 176.86 8.96C174.086 6.18667 169.606 4.8 163.42 4.8H158.14ZM232.031 1.76H315.231L316.831 33.44H313.951C309.471 22.6667 304.778 15.3067 299.871 11.36C294.964 7.30667 287.764 5.28 278.271 5.28H272.671V54.72H278.111C283.124 54.72 287.338 52.8533 290.751 49.12C294.164 45.28 296.564 40.16 297.951 33.76H300.351V81.12H297.631C295.711 73.12 293.098 67.4133 289.791 64C286.591 60.5867 282.164 58.88 276.511 58.88H272.671V110.24H278.751C288.564 110.24 296.884 107.307 303.711 101.44C310.644 95.5733 315.391 88.0533 317.951 78.88H321.151L319.871 113.76H232.031V110.24H241.471V5.28H232.031V1.76ZM396.072 110.72L384.392 76.16H352.712L340.392 110.72H352.392V113.76H327.912V110.72H335.432L376.232 0.800005H389.352L429.672 110.72H437.032V113.76H384.712V110.72H396.072ZM369.192 30.72L354.152 72.64H383.112L369.192 30.72ZM523.868 1.76L525.468 41.92H522.428C517.735 27.7333 513.575 18.08 509.948 12.96C506.322 7.73334 501.095 5.12001 494.268 5.12001H492.348V110.4H505.948V113.76H447.548V110.4H461.148V5.12001H459.068C452.242 5.12001 446.962 7.84001 443.228 13.28C439.495 18.6133 435.388 28.16 430.908 41.92H427.868L429.468 1.76H523.868ZM535.327 1.76H584.127V4.8H575.327V110.72H584.127V113.76H535.327V110.72H544.127V4.8H535.327V1.76ZM668.362 64.32V52.48C668.362 32.96 667.402 20.64 665.482 15.52C663.349 9.65334 660.309 6.02667 656.362 4.64C654.122 3.78667 651.402 3.36 648.202 3.36C645.002 3.36 642.229 3.78667 639.882 4.64C637.642 5.49334 635.775 6.98667 634.282 9.12C632.789 11.2533 631.562 13.4933 630.602 15.84C629.749 18.1867 629.055 21.4933 628.522 25.76C627.882 31.9467 627.562 41.0667 627.562 53.12V64.64C627.562 77.6533 628.042 86.9333 629.002 92.48C630.069 97.92 631.349 101.813 632.842 104.16C636.149 109.387 641.269 112 648.202 112C656.629 112 662.069 108.48 664.522 101.44C667.082 94.2933 668.362 81.92 668.362 64.32ZM647.882 115.36C630.069 115.36 616.735 110.56 607.882 100.96C599.135 91.2533 594.762 77.28 594.762 59.04C594.762 40.6933 599.455 26.2933 608.842 15.84C618.335 5.28 631.722 5.72205e-06 649.002 5.72205e-06C666.282 5.72205e-06 679.295 5.01334 688.042 15.04C696.895 24.96 701.322 39.0933 701.322 57.44C701.322 75.7867 696.842 90.0267 687.882 100.16C679.029 110.293 665.695 115.36 647.882 115.36ZM802.29 4.8V113.76H779.89L725.01 10.24V110.72H733.81V113.76H711.89V110.72H720.69V4.8H711.89V1.76H756.05L797.97 82.08V4.8H789.17V1.76H811.09V4.8H802.29ZM110.88 215.84C110.88 237.813 104.693 253.12 92.3197 261.76C80.9063 269.76 65.2263 273.76 45.2797 273.76H-0.00035131V270.72H10.5596V164.8H-0.00035131V161.76H49.4397C69.9197 161.76 85.2797 165.973 95.5197 174.4C105.76 182.72 110.88 196.533 110.88 215.84ZM41.7596 270.72H47.8397C58.613 270.72 66.293 266.933 70.8797 259.36C75.573 251.68 77.9197 238.88 77.9197 220.96V211.68C77.9197 187.68 73.333 173.227 64.1597 168.32C59.7863 165.973 53.5997 164.8 45.5997 164.8H41.7596V270.72ZM121.421 161.76H170.221V164.8H161.421V270.72H170.221V273.76H121.421V270.72H130.221V164.8H121.421V161.76ZM177.656 161.76H260.856L262.456 193.44H259.576C255.096 182.667 250.403 175.307 245.496 171.36C240.589 167.307 233.389 165.28 223.896 165.28H218.296V214.72H223.736C228.749 214.72 232.963 212.853 236.376 209.12C239.789 205.28 242.189 200.16 243.576 193.76H245.976V241.12H243.256C241.336 233.12 238.723 227.413 235.416 224C232.216 220.587 227.789 218.88 222.136 218.88H218.296V270.24H224.376C234.189 270.24 242.509 267.307 249.336 261.44C256.269 255.573 261.016 248.053 263.576 238.88H266.776L265.496 273.76H177.656V270.24H187.096V165.28H177.656V161.76ZM370.73 241.44L384.01 195.36L374.41 164.8H365.29V161.76H414.89V164.8H405.45L429.29 240.48L448.49 164.8H432.33V161.76H464.33V164.8H453.77L424.33 275.36H410.09L386.41 203.04L365.61 275.36H351.69L311.37 164.8H303.85V161.76H355.85V164.8H344.65L370.73 241.44ZM469.233 161.76H518.033V164.8H509.233V270.72H518.033V273.76H469.233V270.72H478.033V164.8H469.233V161.76ZM574.588 217.12H566.108V270.72H576.508V273.76H524.508V270.72H534.908V164.8H524.508V161.76H572.828C586.695 161.76 596.508 162.507 602.268 164C608.135 165.387 612.242 167.093 614.588 169.12C619.708 173.28 622.268 179.893 622.268 188.96C622.268 198.027 620.028 204.533 615.548 208.48C611.068 212.32 604.242 214.613 595.068 215.36V215.84C603.708 217.013 609.735 219.573 613.148 223.52C616.562 227.467 618.268 234.08 618.268 243.36V251.84C618.268 257.387 618.535 261.12 619.068 263.04C619.708 264.96 620.988 265.92 622.908 265.92C624.828 265.92 626.322 265.067 627.388 263.36C628.562 261.547 629.628 257.813 630.588 252.16L633.308 252.48C632.135 261.547 630.055 267.627 627.068 270.72C624.188 273.813 618.375 275.36 609.628 275.36C600.882 275.36 594.642 273.333 590.908 269.28C587.282 265.12 585.468 257.387 585.468 246.08V234.4C585.468 228.427 584.668 224.053 583.068 221.28C581.575 218.507 578.748 217.12 574.588 217.12ZM566.108 164.8V214.08H571.228C577.308 214.08 581.788 212.213 584.668 208.48C587.655 204.747 589.148 198.667 589.148 190.24V185.6C589.148 177.173 587.708 171.627 584.828 168.96C582.055 166.187 577.575 164.8 571.388 164.8H566.108ZM640.64 161.76H689.44V164.8H680.64V215.36L681.92 215.04L727.04 164.8H714.4V161.76H742.4V164.8H732.8L705.28 195.52L743.68 270.72H752.32V273.76H700.96V270.72H708.48L682.08 219.68L680.64 220V270.72H689.44V273.76H640.64V270.72H649.44V164.8H640.64V161.76ZM846.368 161.76L847.968 201.92H844.928C840.235 187.733 836.075 178.08 832.448 172.96C828.822 167.733 823.595 165.12 816.768 165.12H814.848V270.4H828.448V273.76H770.048V270.4H783.648V165.12H781.568C774.742 165.12 769.462 167.84 765.728 173.28C761.995 178.613 757.888 188.16 753.408 201.92H750.368L751.968 161.76H846.368Z" fill="#DCFF00"/>
</svg>
