<?xml version="1.0" encoding="UTF-8"?>
<svg id="Ebene_1" xmlns="http://www.w3.org/2000/svg" version="1.1" viewBox="0 0 51 500">
  <!-- Generator: Adobe Illustrator 29.8.3, SVG Export Plug-In . SVG Version: 2.1.1 Build 3)  -->
  <defs>
    <style>
      .st0 {
        fill: none;
        stroke: #474847;
        stroke-width: 2px;
      }

      .st1 {
        fill: #474847;
      }
    </style>
  </defs>
  <rect class="st0" x="1" y="1" width="49" height="498"/>
  <path class="st1" d="M31.65,359.54c1.45,0,2.75.39,3.92,1.15,1.17.75,2.09,1.83,2.76,3.26.68,1.42,1.01,3.15,1.01,5.18s-.34,3.78-1.01,5.25c-.7,1.45-1.68,2.58-2.94,3.39-1.26.82-2.72,1.28-4.38,1.4v-3.92c1.59-.09,2.86-.64,3.81-1.64.96-1.03,1.44-2.5,1.44-4.41,0-1.07-.16-2.03-.49-2.87-.33-.84-.79-1.49-1.4-1.96-.61-.49-1.34-.73-2.21-.73-1.05,0-1.87.35-2.45,1.05-.58.7-1.03,1.77-1.33,3.22l-.7,3.64c-.19.89-.44,1.74-.77,2.55-.33.79-.75,1.52-1.26,2.17-.54.63-1.19,1.13-1.96,1.5-.79.35-1.72.53-2.76.53-1.42,0-2.69-.37-3.82-1.12-1.12-.77-2-1.82-2.62-3.15-.65-1.35-.98-2.9-.98-4.65s.34-3.31,1.01-4.69c.68-1.4,1.62-2.52,2.84-3.36,1.21-.86,2.66-1.34,4.34-1.43v3.92c-1,.07-1.89.35-2.66.84-.77.47-1.36,1.1-1.78,1.89-.44.79-.66,1.73-.66,2.8s.2,1.98.59,2.73c.37.75.88,1.32,1.51,1.71.61.4,1.27.6,1.99.6.79,0,1.43-.2,1.93-.6.47-.42.84-.97,1.12-1.64.28-.68.5-1.4.67-2.17l.73-3.71c.44-2.17,1.17-3.83,2.17-4.97,1-1.17,2.45-1.75,4.34-1.75ZM39.53,344.81c0,1.75-.33,3.38-.98,4.9-.68,1.49-1.61,2.81-2.8,3.96-1.19,1.12-2.58,1.99-4.16,2.62-1.61.63-3.34.94-5.18.94s-3.56-.31-5.15-.94c-1.59-.63-2.96-1.51-4.13-2.62-1.19-1.14-2.11-2.46-2.77-3.96-.68-1.52-1.01-3.15-1.01-4.9,0-2.1.43-4.01,1.3-5.74.86-1.75,2.08-3.2,3.64-4.34,1.56-1.17,3.38-1.9,5.46-2.21v4.1c-1.35.23-2.56.74-3.6,1.51-1.05.77-1.87,1.73-2.45,2.87-.58,1.12-.88,2.38-.88,3.78,0,1.24.23,2.38.7,3.43.47,1.03,1.13,1.93,1.99,2.7.86.75,1.88,1.33,3.05,1.75,1.17.4,2.45.6,3.85.6s2.69-.2,3.89-.6c1.17-.42,2.18-1,3.05-1.75.86-.77,1.54-1.67,2.03-2.7.47-1.05.7-2.19.7-3.43,0-1.4-.29-2.67-.88-3.82-.61-1.14-1.44-2.09-2.49-2.83-1.05-.77-2.25-1.27-3.61-1.51v-4.1c2.08.3,3.9,1.04,5.46,2.21,1.56,1.14,2.79,2.59,3.67,4.34.86,1.73,1.3,3.64,1.3,5.74ZM39,324.67v3.85H13.87v-3.85h10.5v-12.74h-10.5v-3.85h25.13v3.85h-11.27v12.74h11.27ZM39,287.39v15.23H13.87v-3.85h21.66v-11.38h3.47ZM39.53,274.39c0,1.82-.33,3.51-.98,5.08-.68,1.54-1.61,2.89-2.8,4.06-1.19,1.14-2.58,2.04-4.16,2.69-1.61.63-3.34.95-5.18.95s-3.56-.32-5.15-.95c-1.59-.65-2.96-1.55-4.13-2.69-1.19-1.17-2.11-2.52-2.77-4.06-.68-1.56-1.01-3.26-1.01-5.08s.34-3.5,1.01-5.04c.65-1.56,1.57-2.92,2.77-4.06,1.17-1.17,2.54-2.07,4.13-2.7,1.59-.65,3.3-.98,5.15-.98s3.57.33,5.18.98c1.59.63,2.97,1.53,4.16,2.7,1.19,1.14,2.12,2.5,2.8,4.06.65,1.54.98,3.22.98,5.04ZM36.06,274.39c0-1.33-.25-2.53-.74-3.61-.49-1.07-1.18-1.99-2.07-2.76-.89-.79-1.91-1.39-3.08-1.79-1.19-.42-2.45-.63-3.78-.63s-2.58.21-3.74.63c-1.17.4-2.18.99-3.05,1.79-.89.77-1.58,1.69-2.07,2.76-.49,1.07-.74,2.28-.74,3.61s.25,2.53.74,3.61c.49,1.07,1.18,2.01,2.07,2.8.86.77,1.88,1.36,3.05,1.79,1.17.4,2.41.6,3.74.6s2.59-.2,3.78-.6c1.17-.42,2.19-1.02,3.08-1.79.89-.79,1.58-1.73,2.07-2.8.49-1.07.74-2.28.74-3.61ZM31.65,239.26c1.45,0,2.75.39,3.92,1.15,1.17.75,2.09,1.83,2.76,3.26.68,1.42,1.01,3.15,1.01,5.18s-.34,3.78-1.01,5.25c-.7,1.45-1.68,2.58-2.94,3.39-1.26.82-2.72,1.28-4.38,1.4v-3.92c1.59-.09,2.86-.64,3.81-1.65.96-1.03,1.44-2.5,1.44-4.41,0-1.07-.16-2.03-.49-2.87-.33-.84-.79-1.49-1.4-1.96-.61-.49-1.34-.74-2.21-.74-1.05,0-1.87.35-2.45,1.05s-1.03,1.77-1.33,3.22l-.7,3.64c-.19.89-.44,1.74-.77,2.56-.33.79-.75,1.52-1.26,2.17-.54.63-1.19,1.13-1.96,1.5-.79.35-1.72.52-2.76.52-1.42,0-2.69-.37-3.82-1.12-1.12-.77-2-1.82-2.62-3.15-.65-1.35-.98-2.9-.98-4.65s.34-3.31,1.01-4.69c.68-1.4,1.62-2.52,2.84-3.36,1.21-.86,2.66-1.34,4.34-1.43v3.92c-1,.07-1.89.35-2.66.84-.77.47-1.36,1.1-1.78,1.89-.44.79-.66,1.73-.66,2.8s.2,1.98.59,2.73c.37.75.88,1.32,1.51,1.72.61.4,1.27.6,1.99.6.79,0,1.43-.2,1.93-.6.47-.42.84-.97,1.12-1.65.28-.68.5-1.4.67-2.17l.73-3.71c.44-2.17,1.17-3.83,2.17-4.97,1-1.17,2.45-1.75,4.34-1.75ZM31.65,216.43c1.45,0,2.75.39,3.92,1.15,1.17.75,2.09,1.83,2.76,3.26.68,1.42,1.01,3.15,1.01,5.18s-.34,3.78-1.01,5.25c-.7,1.45-1.68,2.58-2.94,3.39-1.26.82-2.72,1.28-4.38,1.4v-3.92c1.59-.09,2.86-.64,3.81-1.65.96-1.03,1.44-2.5,1.44-4.41,0-1.07-.16-2.03-.49-2.87-.33-.84-.79-1.49-1.4-1.96-.61-.49-1.34-.74-2.21-.74-1.05,0-1.87.35-2.45,1.05s-1.03,1.77-1.33,3.22l-.7,3.64c-.19.89-.44,1.74-.77,2.56-.33.79-.75,1.52-1.26,2.17-.54.63-1.19,1.13-1.96,1.5-.79.35-1.72.53-2.76.53-1.42,0-2.69-.37-3.82-1.12-1.12-.77-2-1.82-2.62-3.15-.65-1.35-.98-2.9-.98-4.65s.34-3.31,1.01-4.69c.68-1.4,1.62-2.52,2.84-3.36,1.21-.86,2.66-1.34,4.34-1.43v3.92c-1,.07-1.89.35-2.66.84-.77.47-1.36,1.1-1.78,1.89-.44.79-.66,1.73-.66,2.8s.2,1.98.59,2.73c.37.75.88,1.32,1.51,1.72.61.4,1.27.6,1.99.6.79,0,1.43-.2,1.93-.6.47-.42.84-.97,1.12-1.65.28-.68.5-1.4.67-2.17l.73-3.71c.44-2.17,1.17-3.83,2.17-4.97,1-1.17,2.45-1.75,4.34-1.75ZM31.79,194.19c2.29,0,4.06.78,5.32,2.35,1.26,1.54,1.89,3.62,1.89,6.23v9.2H13.87v-8.71c0-2.54.57-4.53,1.71-5.95,1.12-1.45,2.74-2.17,4.87-2.17,1.19,0,2.26.34,3.22,1.01.96.68,1.7,1.62,2.24,2.83.44-1.56,1.18-2.75,2.2-3.57,1-.82,2.23-1.23,3.68-1.23ZM16.95,203.5v4.93h7.56v-4.93c0-1.52-.34-2.67-1.01-3.47-.68-.82-1.6-1.22-2.77-1.22s-2.09.41-2.76,1.22c-.68.79-1.01,1.95-1.01,3.47ZM27.59,203.01v5.43h8.33v-5.43c0-1.63-.37-2.89-1.12-3.78-.75-.91-1.78-1.37-3.11-1.37s-2.29.46-3.01,1.37c-.72.89-1.08,2.15-1.08,3.78ZM35.64,173.83h3.36v15.93H13.87v-15.68h3.36v11.83h7.14v-10.78h3.36v10.78h7.91v-12.08ZM39,165.46v3.85H13.87v-9.38c0-2.89.69-5.16,2.06-6.79,1.35-1.63,3.28-2.45,5.77-2.45,1.8,0,3.35.54,4.66,1.61,1.31,1.07,2.18,2.57,2.62,4.48l10.01-6.82v4.62l-9.45,6.26v4.62h9.45ZM17.09,165.46h9.24v-5.29c0-1.77-.39-3.15-1.16-4.13-.79-.98-1.95-1.47-3.47-1.47s-2.66.49-3.43,1.47c-.79.98-1.19,2.36-1.19,4.13v5.29ZM39.53,135.14c0,1.82-.33,3.51-.98,5.07-.65,1.54-1.56,2.89-2.73,4.06-1.17,1.17-2.54,2.08-4.13,2.73-1.61.65-3.37.98-5.29.98s-3.58-.32-5.15-.94c-1.59-.63-2.97-1.51-4.16-2.62-1.19-1.14-2.11-2.49-2.77-4.03-.65-1.54-.98-3.22-.98-5.04,0-2.17.41-4.08,1.22-5.74.79-1.68,1.88-3.08,3.26-4.2,1.38-1.12,2.94-1.94,4.69-2.45v4.48c-1.07.3-2.04.82-2.9,1.54-.86.7-1.54,1.6-2.03,2.7-.51,1.07-.77,2.33-.77,3.78,0,1.66.4,3.14,1.19,4.44.79,1.28,1.91,2.29,3.36,3.01,1.42.72,3.13,1.08,5.11,1.08,1.84,0,3.5-.36,4.97-1.08,1.47-.72,2.64-1.75,3.5-3.08.86-1.35,1.3-2.96,1.3-4.83,0-1.54-.29-2.88-.88-4.02-.61-1.17-1.45-2.11-2.52-2.84-1.1-.72-2.36-1.2-3.78-1.43v8.68h-3.08v-12.74c2.01-.05,3.84.22,5.49.81,1.66.58,3.09,1.42,4.31,2.52,1.21,1.1,2.15,2.43,2.8,3.99.63,1.54.94,3.27.94,5.18Z"/>
</svg>