<?xml version="1.0" encoding="UTF-8"?>
<svg id="Ebene_1" xmlns="http://www.w3.org/2000/svg" version="1.1" viewBox="0 0 51 500">
  <!-- Generator: Adobe Illustrator 29.8.3, SVG Export Plug-In . SVG Version: 2.1.1 Build 3)  -->
  <defs>
    <style>
      .st0 {
        fill: none;
        stroke: #474847;
        stroke-width: 2px;
      }

      .st1 {
        fill: #474847;
      }
    </style>
  </defs>
  <rect class="st0" x="1" y="1" width="49" height="498"/>
  <path class="st1" d="M32.79,342.17c2.29,0,4.06.78,5.32,2.35,1.26,1.54,1.89,3.62,1.89,6.23v9.2H14.87v-8.71c0-2.54.57-4.53,1.71-5.95,1.12-1.45,2.74-2.17,4.87-2.17,1.19,0,2.26.34,3.22,1.01s1.7,1.62,2.24,2.84c.44-1.56,1.18-2.75,2.2-3.57,1-.82,2.23-1.23,3.68-1.23ZM17.95,351.48v4.93h7.56v-4.93c0-1.52-.34-2.67-1.01-3.46-.68-.82-1.6-1.23-2.77-1.23s-2.09.41-2.76,1.23c-.68.79-1.01,1.95-1.01,3.46ZM28.59,350.99v5.42h8.33v-5.42c0-1.63-.37-2.89-1.12-3.78-.75-.91-1.78-1.37-3.11-1.37s-2.29.46-3.01,1.37c-.72.89-1.08,2.15-1.08,3.78ZM40,333.89v3.85H14.87v-9.38c0-2.89.69-5.16,2.06-6.79,1.35-1.63,3.28-2.45,5.77-2.45,1.8,0,3.35.54,4.66,1.61,1.31,1.07,2.18,2.57,2.62,4.48l10.01-6.82v4.62l-9.45,6.27v4.62h9.45ZM18.09,333.89h9.24v-5.29c0-1.77-.39-3.15-1.16-4.13-.79-.98-1.95-1.47-3.47-1.47s-2.66.49-3.43,1.47c-.79.98-1.19,2.36-1.19,4.13v5.29ZM36.64,298.74h3.36v15.92H14.87v-15.68h3.36v11.83h7.14v-10.78h3.36v10.78h7.91v-12.07ZM14.87,274.87h16.1c1.91,0,3.59.4,5.04,1.19,1.42.77,2.53,1.88,3.33,3.33.79,1.45,1.19,3.18,1.19,5.21s-.4,3.73-1.19,5.18c-.79,1.45-1.9,2.57-3.33,3.36-1.45.77-3.13,1.15-5.04,1.15H14.87v-3.85h16.21c1.21,0,2.27-.23,3.18-.7.89-.47,1.58-1.13,2.07-1.99.49-.86.74-1.91.74-3.15s-.25-2.32-.74-3.18c-.49-.89-1.18-1.55-2.07-1.99-.91-.47-1.97-.7-3.18-.7H14.87v-3.85ZM40,252.71l-19.64,13.23h19.64v3.57H14.87v-4.2l19.11-12.91H14.87v-3.57h25.13v3.88ZM40,239.55v3.85H14.87v-3.85h25.13ZM40,217.3l-19.64,13.23h19.64v3.57H14.87v-4.2l19.11-12.91H14.87v-3.57h25.13v3.88ZM40.53,196.61c0,1.82-.33,3.51-.98,5.07-.65,1.54-1.56,2.89-2.73,4.06-1.17,1.17-2.54,2.08-4.13,2.73-1.61.65-3.37.98-5.29.98s-3.58-.32-5.15-.94c-1.59-.63-2.97-1.51-4.16-2.62-1.19-1.14-2.11-2.49-2.77-4.03-.65-1.54-.98-3.22-.98-5.04,0-2.17.41-4.08,1.22-5.74.79-1.68,1.88-3.08,3.26-4.2,1.38-1.12,2.94-1.94,4.69-2.45v4.48c-1.07.3-2.04.82-2.9,1.54-.86.7-1.54,1.6-2.03,2.7-.51,1.07-.77,2.33-.77,3.78,0,1.66.4,3.14,1.19,4.44.79,1.28,1.91,2.29,3.36,3.01,1.42.72,3.13,1.08,5.11,1.08,1.84,0,3.5-.36,4.97-1.08,1.47-.72,2.64-1.75,3.5-3.08.86-1.35,1.3-2.96,1.3-4.83,0-1.54-.29-2.88-.88-4.02-.61-1.17-1.45-2.11-2.52-2.84-1.1-.72-2.36-1.2-3.78-1.43v8.68h-3.08v-12.74c2.01-.05,3.84.22,5.49.8,1.66.58,3.09,1.42,4.31,2.52,1.21,1.1,2.15,2.43,2.8,3.99.63,1.54.94,3.27.94,5.18ZM36.64,164.17h3.36v15.93H14.87v-15.68h3.36v11.83h7.14v-10.78h3.36v10.78h7.91v-12.07ZM40,155.81v3.85H14.87v-9.38c0-2.89.69-5.16,2.06-6.79,1.35-1.63,3.28-2.45,5.77-2.45,1.8,0,3.35.54,4.66,1.61s2.18,2.57,2.62,4.48l10.01-6.82v4.62l-9.45,6.26v4.62h9.45ZM18.09,155.81h9.24v-5.29c0-1.77-.39-3.15-1.16-4.13-.79-.98-1.95-1.47-3.47-1.47s-2.66.49-3.43,1.47c-.79.98-1.19,2.36-1.19,4.13v5.29Z"/>
</svg>