<?xml version="1.0" encoding="UTF-8"?>
<svg id="Ebene_1" xmlns="http://www.w3.org/2000/svg" version="1.1" viewBox="0 0 51 440">
  <!-- Generator: Adobe Illustrator 29.8.3, SVG Export Plug-In . SVG Version: 2.1.1 Build 3)  -->
  <defs>
    <style>
      .st0 {
        fill: none;
        stroke: #474847;
        stroke-width: 2px;
      }

      .st1 {
        fill: #474847;
      }
    </style>
  </defs>
  <rect class="st0" x="1" y="1" width="49" height="438"/>
  <path class="st1" d="M22.34,111.12v11.69l-3.11,1.05v-14.04l3.11,1.3ZM13,124.56l20.93-7.66-20.93-7.77v-3.89l25.13,9.62v4.24l-25.13,9.56v-4.1ZM13,140.07v-7.95h25.13v7.95c0,2.68-.54,4.97-1.61,6.86-1.05,1.89-2.51,3.32-4.38,4.3-1.87.98-4.02,1.47-6.48,1.47s-4.6-.5-6.51-1.5c-1.89-1-3.39-2.46-4.51-4.38-1.1-1.89-1.65-4.14-1.65-6.76ZM34.81,135.97h-18.48v3.92c0,1.94.37,3.56,1.12,4.87.77,1.33,1.85,2.33,3.26,3.01,1.4.68,3.06,1.01,4.97,1.01s3.51-.34,4.86-1.01c1.38-.68,2.43-1.68,3.15-3.01.75-1.31,1.12-2.93,1.12-4.87v-3.92ZM38.13,175.73l-25.13-9.24v-4.24l25.13-9.24v4.13l-20.65,7.32,20.65,7.42v3.85ZM16.36,194.94h-3.36v-15.92h25.13v15.68h-3.36v-11.83h-7.14v10.78h-3.36v-10.78h-7.91v12.07ZM13,216.25l19.64-13.23H13v-3.57h25.13v4.2l-19.11,12.91h19.11v3.57H13v-3.89ZM13,235.54v-3.85h21.67v-8.19h3.47v20.23h-3.47v-8.19H13ZM38.13,266.49h-16.1c-1.91,0-3.59-.4-5.04-1.19-1.42-.77-2.53-1.88-3.32-3.33-.79-1.45-1.19-3.18-1.19-5.21s.4-3.73,1.19-5.18c.79-1.45,1.9-2.57,3.32-3.36,1.45-.77,3.13-1.15,5.04-1.15h16.1v3.85h-16.21c-1.21,0-2.27.23-3.18.7-.89.47-1.57,1.13-2.06,1.99-.49.86-.74,1.91-.74,3.15s.25,2.32.74,3.18c.49.89,1.18,1.55,2.06,1.99.91.47,1.97.7,3.18.7h16.21v3.85ZM13,275.7v-3.85h25.13v9.38c0,2.89-.69,5.16-2.07,6.79-1.35,1.63-3.28,2.45-5.77,2.45-1.8,0-3.35-.54-4.66-1.61-1.31-1.07-2.18-2.57-2.62-4.48l-10.01,6.82v-4.62l9.45-6.26v-4.62h-9.45ZM34.91,275.7h-9.24v5.28c0,1.77.39,3.15,1.16,4.13.79.98,1.95,1.47,3.47,1.47s2.66-.49,3.43-1.47c.79-.98,1.19-2.36,1.19-4.13v-5.28ZM16.36,310.84h-3.36v-15.92h25.13v15.68h-3.36v-11.83h-7.14v10.78h-3.36v-10.78h-7.91v12.07ZM20.35,333.73c-1.45,0-2.75-.39-3.92-1.15-1.17-.75-2.09-1.83-2.77-3.26s-1.02-3.15-1.02-5.18.34-3.78,1.02-5.25c.7-1.45,1.68-2.58,2.94-3.39,1.26-.82,2.72-1.28,4.38-1.4v3.92c-1.59.09-2.86.64-3.81,1.64-.96,1.03-1.44,2.5-1.44,4.41,0,1.07.16,2.03.49,2.87.33.84.79,1.49,1.4,1.96.61.49,1.34.73,2.2.73,1.05,0,1.87-.35,2.45-1.05.58-.7,1.03-1.77,1.33-3.22l.7-3.64c.19-.89.44-1.74.77-2.55.33-.79.75-1.52,1.26-2.17.54-.63,1.19-1.13,1.96-1.51.79-.35,1.72-.53,2.76-.53,1.42,0,2.7.37,3.82,1.12,1.12.77,1.99,1.82,2.62,3.15.65,1.35.98,2.9.98,4.65s-.34,3.31-1.01,4.69c-.68,1.4-1.62,2.52-2.83,3.36-1.21.86-2.66,1.34-4.34,1.43v-3.92c1-.07,1.89-.35,2.66-.84.77-.47,1.36-1.1,1.78-1.89.44-.79.67-1.73.67-2.8s-.2-1.98-.6-2.73c-.37-.75-.88-1.32-1.51-1.71-.61-.4-1.27-.6-1.99-.6-.79,0-1.43.2-1.93.6-.47.42-.84.97-1.12,1.64s-.5,1.4-.67,2.17l-.73,3.71c-.44,2.17-1.17,3.83-2.17,4.97-1,1.17-2.45,1.75-4.34,1.75Z"/>
</svg>