<?xml version="1.0" encoding="UTF-8"?>
<svg id="Ebene_1" xmlns="http://www.w3.org/2000/svg" version="1.1" viewBox="0 0 51 500">
  <!-- Generator: Adobe Illustrator 29.8.3, SVG Export Plug-In . SVG Version: 2.1.1 Build 3)  -->
  <defs>
    <style>
      .st0 {
        fill: none;
        stroke: #474847;
        stroke-width: 2px;
      }

      .st1 {
        fill: #474847;
      }
    </style>
  </defs>
  <rect class="st0" x="1" y="1" width="49" height="498"/>
  <path class="st1" d="M39.53,408.27c0,1.75-.33,3.38-.98,4.9-.68,1.49-1.61,2.81-2.8,3.95-1.19,1.12-2.58,1.99-4.16,2.62-1.61.63-3.34.95-5.18.95s-3.56-.32-5.15-.95c-1.59-.63-2.96-1.51-4.13-2.62-1.19-1.14-2.11-2.46-2.77-3.95-.68-1.52-1.01-3.15-1.01-4.9,0-2.1.43-4.01,1.3-5.74.86-1.75,2.08-3.2,3.64-4.34,1.56-1.17,3.38-1.9,5.46-2.2v4.1c-1.35.23-2.56.73-3.6,1.5-1.05.77-1.87,1.73-2.45,2.87-.58,1.12-.88,2.38-.88,3.78,0,1.24.23,2.38.7,3.43.47,1.03,1.13,1.92,1.99,2.7.86.75,1.88,1.33,3.05,1.75,1.17.4,2.45.6,3.85.6s2.69-.2,3.89-.6c1.17-.42,2.18-1,3.05-1.75.86-.77,1.54-1.67,2.03-2.7.47-1.05.7-2.19.7-3.43,0-1.4-.29-2.67-.88-3.82-.61-1.14-1.44-2.09-2.49-2.84-1.05-.77-2.25-1.27-3.61-1.5v-4.1c2.08.3,3.9,1.04,5.46,2.2,1.56,1.14,2.79,2.59,3.67,4.34.86,1.73,1.3,3.64,1.3,5.74ZM29.66,389.36v-11.69l3.11-1.05v14.04l-3.11-1.29ZM39,375.92l-20.93,7.67,20.93,7.77v3.89l-25.13-9.62v-4.24l25.13-9.55v4.1ZM31.65,350.67c1.45,0,2.75.38,3.92,1.15,1.17.75,2.09,1.83,2.76,3.26s1.01,3.15,1.01,5.18-.34,3.78-1.01,5.25c-.7,1.45-1.68,2.58-2.94,3.39-1.26.82-2.72,1.28-4.38,1.4v-3.92c1.59-.09,2.86-.64,3.81-1.64.96-1.03,1.44-2.5,1.44-4.41,0-1.07-.16-2.03-.49-2.87-.33-.84-.79-1.49-1.4-1.96-.61-.49-1.34-.73-2.21-.73-1.05,0-1.87.35-2.45,1.05-.58.7-1.03,1.77-1.33,3.22l-.7,3.64c-.19.89-.44,1.74-.77,2.55-.33.79-.75,1.52-1.26,2.17-.54.63-1.19,1.13-1.96,1.51-.79.35-1.72.52-2.76.52-1.42,0-2.69-.37-3.82-1.12-1.12-.77-2-1.82-2.62-3.15-.65-1.35-.98-2.9-.98-4.65s.34-3.31,1.01-4.69c.68-1.4,1.62-2.52,2.84-3.36,1.21-.86,2.66-1.34,4.34-1.43v3.92c-1,.07-1.89.35-2.66.84-.77.47-1.36,1.1-1.78,1.89-.44.79-.66,1.73-.66,2.8s.2,1.98.59,2.73c.37.75.88,1.32,1.51,1.71.61.4,1.27.6,1.99.6.79,0,1.43-.2,1.93-.6.47-.42.84-.97,1.12-1.64s.5-1.4.67-2.17l.73-3.71c.44-2.17,1.17-3.83,2.17-4.97,1-1.17,2.45-1.75,4.34-1.75ZM29.66,343.05v-11.69l3.11-1.05v14.04l-3.11-1.29ZM39,329.61l-20.93,7.66,20.93,7.77v3.88l-25.13-9.62v-4.23l25.13-9.55v4.1ZM39,306.82v15.23H13.87v-3.85h21.66v-11.38h3.47ZM30.25,294.33v4.86h8.75v3.85H13.87v-8.71c0-1.87.32-3.49.94-4.86.61-1.4,1.52-2.49,2.73-3.26,1.19-.77,2.67-1.15,4.44-1.15s3.24.38,4.48,1.15c1.21.77,2.15,1.85,2.8,3.26.65,1.38.98,3,.98,4.86ZM17.12,294.36v4.83h9.87v-4.83c0-1.7-.44-3.03-1.33-3.99-.89-.98-2.1-1.47-3.64-1.47s-2.76.49-3.6,1.47c-.86.96-1.3,2.29-1.3,3.99ZM39,277.35v3.85H13.87v-3.85h25.13ZM39,255.1l-19.64,13.23h19.64v3.57H13.87v-4.2l19.11-12.91H13.87v-3.57h25.13v3.88ZM39.53,227.52c0,1.75-.33,3.38-.98,4.9-.68,1.49-1.61,2.81-2.8,3.96-1.19,1.12-2.58,1.99-4.16,2.62-1.61.63-3.34.94-5.18.94s-3.56-.32-5.15-.94c-1.59-.63-2.96-1.51-4.13-2.62-1.19-1.14-2.11-2.46-2.77-3.96-.68-1.52-1.01-3.15-1.01-4.9,0-2.1.43-4.01,1.3-5.74.86-1.75,2.08-3.2,3.64-4.34,1.56-1.17,3.38-1.9,5.46-2.2v4.09c-1.35.23-2.56.74-3.6,1.51-1.05.77-1.87,1.73-2.45,2.87-.58,1.12-.88,2.38-.88,3.78,0,1.24.23,2.38.7,3.43.47,1.03,1.13,1.93,1.99,2.7.86.75,1.88,1.33,3.05,1.75,1.17.4,2.45.59,3.85.59s2.69-.2,3.89-.59c1.17-.42,2.18-1,3.05-1.75.86-.77,1.54-1.67,2.03-2.7.47-1.05.7-2.19.7-3.43,0-1.4-.29-2.67-.88-3.82-.61-1.14-1.44-2.09-2.49-2.84-1.05-.77-2.25-1.27-3.61-1.51v-4.09c2.08.3,3.9,1.04,5.46,2.2,1.56,1.14,2.79,2.59,3.67,4.34.86,1.73,1.3,3.64,1.3,5.74ZM39,207.39v3.85H13.87v-3.85h10.5v-12.74h-10.5v-3.85h25.13v3.85h-11.27v12.74h11.27ZM29.66,181.48v-11.69l3.11-1.05v14.03l-3.11-1.29ZM39,168.04l-20.93,7.67,20.93,7.77v3.88l-25.13-9.62v-4.24l25.13-9.56v4.1ZM39,145.25v15.23H13.87v-3.85h21.66v-11.38h3.47ZM35.64,125.55h3.36v15.92H13.87v-15.68h3.36v11.83h7.14v-10.78h3.36v10.78h7.91v-12.08ZM39,111.06v3.85h-21.67v8.19h-3.46v-20.23h3.46v8.19h21.67ZM31.65,81.78c1.45,0,2.75.39,3.92,1.15,1.17.75,2.09,1.83,2.76,3.26.68,1.42,1.01,3.15,1.01,5.18s-.34,3.78-1.01,5.25c-.7,1.45-1.68,2.58-2.94,3.39-1.26.82-2.72,1.28-4.38,1.4v-3.92c1.59-.09,2.86-.64,3.81-1.65.96-1.03,1.44-2.5,1.44-4.41,0-1.07-.16-2.03-.49-2.87-.33-.84-.79-1.49-1.4-1.96-.61-.49-1.34-.74-2.21-.74-1.05,0-1.87.35-2.45,1.05-.58.7-1.03,1.77-1.33,3.22l-.7,3.64c-.19.89-.44,1.74-.77,2.56-.33.79-.75,1.52-1.26,2.17-.54.63-1.19,1.13-1.96,1.5-.79.35-1.72.53-2.76.53-1.42,0-2.69-.37-3.82-1.12-1.12-.77-2-1.82-2.62-3.15-.65-1.35-.98-2.91-.98-4.66s.34-3.31,1.01-4.69c.68-1.4,1.62-2.52,2.84-3.36,1.21-.86,2.66-1.34,4.34-1.44v3.92c-1,.07-1.89.35-2.66.84-.77.47-1.36,1.1-1.78,1.89-.44.79-.66,1.73-.66,2.8s.2,1.98.59,2.73c.37.75.88,1.32,1.51,1.72.61.4,1.27.6,1.99.6.79,0,1.43-.2,1.93-.6.47-.42.84-.97,1.12-1.65.28-.68.5-1.4.67-2.17l.73-3.71c.44-2.17,1.17-3.83,2.17-4.97,1-1.17,2.45-1.75,4.34-1.75Z"/>
</svg>