<?xml version="1.0" encoding="UTF-8"?>
<svg id="Ebene_1" xmlns="http://www.w3.org/2000/svg" version="1.1" viewBox="0 0 51 500">
  <!-- Generator: Adobe Illustrator 29.8.3, SVG Export Plug-In . SVG Version: 2.1.1 Build 3)  -->
  <defs>
    <style>
      .st0 {
        fill: none;
        stroke: #474847;
        stroke-width: 2px;
      }

      .st1 {
        fill: #474847;
      }
    </style>
  </defs>
  <rect class="st0" x="1" y="1" width="49" height="498"/>
  <path class="st1" d="M39,312.93v3.85H13.87v-3.85h11.62l-11.62-10.64v-4.45l12.32,11.2,12.81-11.48v4.83l-11.66,10.53h11.66ZM13.87,274.8h16.1c1.91,0,3.59.4,5.04,1.19,1.42.77,2.53,1.88,3.33,3.33.79,1.45,1.19,3.18,1.19,5.21s-.4,3.73-1.19,5.18-1.9,2.57-3.33,3.36c-1.45.77-3.13,1.15-5.04,1.15H13.87v-3.85h16.21c1.21,0,2.27-.23,3.18-.7.89-.47,1.58-1.13,2.07-1.99.49-.86.74-1.91.74-3.15s-.25-2.32-.74-3.18c-.49-.89-1.18-1.55-2.07-2-.91-.47-1.97-.7-3.18-.7H13.87v-3.85ZM39,252.64l-19.64,13.23h19.64v3.57H13.87v-4.2l19.11-12.91H13.87v-3.57h25.13v3.88ZM35.64,227.4h3.36v15.93H13.87v-15.68h3.36v11.83h7.14v-10.78h3.36v10.78h7.91v-12.08ZM39,219.04v3.85H13.87v-9.38c0-2.89.69-5.16,2.06-6.79,1.35-1.63,3.28-2.45,5.77-2.45,1.8,0,3.35.54,4.66,1.61,1.31,1.07,2.18,2.57,2.62,4.48l10.01-6.82v4.62l-9.45,6.27v4.62h9.45ZM17.09,219.04h9.24v-5.29c0-1.77-.39-3.15-1.16-4.13-.79-.98-1.95-1.47-3.47-1.47s-2.66.49-3.43,1.47c-.79.98-1.19,2.36-1.19,4.13v5.29ZM39,190.35v3.85h-21.67v8.19h-3.46v-20.23h3.46v8.19h21.67Z"/>
</svg>