<?xml version="1.0" encoding="UTF-8"?>
<svg id="Ebene_1" xmlns="http://www.w3.org/2000/svg" version="1.1" viewBox="0 0 51 470">
  <!-- Generator: Adobe Illustrator 29.8.3, SVG Export Plug-In . SVG Version: 2.1.1 Build 3)  -->
  <defs>
    <style>
      .st0 {
        fill: none;
        stroke: #474847;
        stroke-width: 2px;
      }

      .st1 {
        fill: #474847;
      }
    </style>
  </defs>
  <rect class="st0" x="1" y="1" width="49" height="468"/>
  <path class="st1" d="M11.48,190.97c0-1.75.33-3.38.98-4.9.68-1.49,1.61-2.81,2.8-3.96,1.19-1.12,2.58-1.99,4.16-2.62,1.61-.63,3.34-.94,5.18-.94s3.56.32,5.15.94c1.59.63,2.96,1.51,4.13,2.62,1.19,1.14,2.11,2.46,2.76,3.96.68,1.52,1.01,3.15,1.01,4.9,0,2.1-.43,4.01-1.29,5.74-.86,1.75-2.08,3.2-3.64,4.34-1.56,1.17-3.38,1.9-5.46,2.21v-4.1c1.35-.23,2.56-.74,3.6-1.5,1.05-.77,1.87-1.73,2.45-2.87.58-1.12.88-2.38.88-3.78,0-1.24-.23-2.38-.7-3.43-.47-1.03-1.13-1.93-2-2.7-.86-.75-1.88-1.33-3.05-1.75-1.17-.4-2.45-.6-3.85-.6s-2.69.2-3.89.6c-1.17.42-2.18,1-3.05,1.75-.86.77-1.54,1.67-2.03,2.7-.47,1.05-.7,2.19-.7,3.43,0,1.4.29,2.67.88,3.82.61,1.14,1.44,2.09,2.48,2.84,1.05.77,2.25,1.27,3.61,1.5v4.1c-2.08-.3-3.9-1.04-5.46-2.21-1.56-1.14-2.79-2.59-3.67-4.34-.86-1.73-1.3-3.64-1.3-5.74ZM12,211.11v-3.85h25.13v9.38c0,2.89-.69,5.16-2.07,6.79-1.35,1.63-3.28,2.45-5.77,2.45-1.8,0-3.35-.54-4.66-1.61-1.31-1.07-2.18-2.57-2.62-4.48l-10.01,6.82v-4.62l9.45-6.26v-4.62h-9.45ZM33.91,211.11h-9.24v5.29c0,1.77.39,3.15,1.16,4.13.79.98,1.95,1.47,3.47,1.47s2.66-.49,3.43-1.47c.79-.98,1.19-2.36,1.19-4.13v-5.29ZM21.34,233.84v11.69l-3.11,1.05v-14.04l3.11,1.29ZM12,247.28l20.93-7.66-20.93-7.77v-3.89l25.13,9.62v4.24l-25.13,9.56v-4.1ZM12,258.69v-3.85h25.13v15.26h-3.36v-11.41h-8.19v9.73h-3.36v-9.73h-10.22ZM12,283.85v-3.85h21.67v-8.19h3.47v20.23h-3.47v-8.19H12Z"/>
</svg>