<?xml version="1.0" encoding="UTF-8"?>
<svg id="Ebene_1" xmlns="http://www.w3.org/2000/svg" version="1.1" viewBox="0 0 51 500">
  <!-- Generator: Adobe Illustrator 29.8.3, SVG Export Plug-In . SVG Version: 2.1.1 Build 3)  -->
  <defs>
    <style>
      .st0 {
        fill: none;
        stroke: #474847;
        stroke-width: 2px;
      }

      .st1 {
        fill: #474847;
      }
    </style>
  </defs>
  <rect class="st0" x="1" y="1" width="49" height="498"/>
  <path class="st1" d="M39,348.97v3.85H13.87v-15.26h3.36v11.41h8.19v-9.73h3.36v9.73h10.22ZM39,329.93v3.85H13.87v-9.38c0-2.89.69-5.16,2.06-6.79,1.35-1.63,3.28-2.45,5.77-2.45,1.8,0,3.35.54,4.66,1.61,1.31,1.07,2.18,2.57,2.62,4.48l10.01-6.82v4.62l-9.45,6.26v4.62h9.45ZM17.09,329.93h9.24v-5.29c0-1.77-.39-3.15-1.16-4.13-.79-.98-1.95-1.47-3.47-1.47s-2.66.49-3.43,1.47c-.79.98-1.19,2.36-1.19,4.13v5.29ZM29.66,307.2v-11.69l3.11-1.05v14.04l-3.11-1.29ZM39,293.76l-20.93,7.66,20.93,7.77v3.89l-25.13-9.62v-4.24l25.13-9.55v4.1ZM13.87,267.81h16.1c1.91,0,3.59.4,5.04,1.19,1.42.77,2.53,1.88,3.33,3.32.79,1.45,1.19,3.18,1.19,5.21s-.4,3.73-1.19,5.18c-.79,1.45-1.9,2.57-3.33,3.36-1.45.77-3.13,1.15-5.04,1.15H13.87v-3.85h16.21c1.21,0,2.27-.23,3.18-.7.89-.47,1.58-1.13,2.07-1.99.49-.86.74-1.91.74-3.15s-.25-2.32-.74-3.18c-.49-.89-1.18-1.55-2.07-1.99-.91-.47-1.97-.7-3.18-.7H13.87v-3.85ZM39,251.29v3.85H13.87v-3.85h10.5v-12.74h-10.5v-3.85h25.13v3.85h-11.27v12.74h11.27ZM39.53,217.92c0,1.82-.33,3.51-.98,5.07-.68,1.54-1.61,2.89-2.8,4.06-1.19,1.14-2.58,2.04-4.16,2.7-1.61.63-3.34.94-5.18.94s-3.56-.32-5.15-.94c-1.59-.65-2.96-1.55-4.13-2.7-1.19-1.17-2.11-2.52-2.77-4.06-.68-1.56-1.01-3.26-1.01-5.07s.34-3.5,1.01-5.04c.65-1.56,1.57-2.92,2.77-4.06,1.17-1.17,2.54-2.07,4.13-2.69,1.59-.65,3.3-.98,5.15-.98s3.57.33,5.18.98c1.59.63,2.97,1.53,4.16,2.69,1.19,1.14,2.12,2.5,2.8,4.06.65,1.54.98,3.22.98,5.04ZM36.06,217.92c0-1.33-.25-2.53-.74-3.61-.49-1.07-1.18-1.99-2.07-2.76-.89-.79-1.91-1.39-3.08-1.78-1.19-.42-2.45-.63-3.78-.63s-2.58.21-3.74.63c-1.17.4-2.18.99-3.05,1.78-.89.77-1.58,1.69-2.07,2.76-.49,1.07-.74,2.28-.74,3.61s.25,2.53.74,3.6c.49,1.07,1.18,2.01,2.07,2.8.86.77,1.88,1.36,3.05,1.79,1.17.4,2.41.59,3.74.59s2.59-.2,3.78-.59c1.17-.42,2.19-1.01,3.08-1.79.89-.79,1.58-1.73,2.07-2.8.49-1.07.74-2.27.74-3.6ZM39,185.94v15.23H13.87v-3.85h21.66v-11.38h3.47ZM39,166.94v15.23H13.87v-3.85h21.66v-11.38h3.47ZM35.64,147.23h3.36v15.93H13.87v-15.68h3.36v11.83h7.14v-10.78h3.36v10.78h7.91v-12.07Z"/>
</svg>