<?xml version="1.0" encoding="UTF-8"?>
<svg id="Ebene_1" xmlns="http://www.w3.org/2000/svg" version="1.1" viewBox="0 0 51 500">
  <!-- Generator: Adobe Illustrator 29.8.3, SVG Export Plug-In . SVG Version: 2.1.1 Build 3)  -->
  <defs>
    <style>
      .st0 {
        fill: none;
        stroke: #474847;
        stroke-width: 2px;
      }

      .st1 {
        fill: #474847;
      }
    </style>
  </defs>
  <rect class="st0" x="1" y="1" width="49" height="498"/>
  <path class="st1" d="M39,302.09v3.85H13.87v-3.85h10.5v-12.74h-10.5v-3.85h25.13v3.85h-11.27v12.74h11.27ZM13.87,260.68h16.1c1.91,0,3.59.4,5.04,1.19,1.42.77,2.53,1.88,3.33,3.33.79,1.45,1.19,3.18,1.19,5.21s-.4,3.73-1.19,5.18c-.79,1.45-1.9,2.57-3.33,3.36-1.45.77-3.13,1.15-5.04,1.15H13.87v-3.85h16.21c1.21,0,2.27-.23,3.18-.7.89-.47,1.58-1.13,2.07-1.99.49-.86.74-1.91.74-3.15s-.25-2.32-.74-3.18c-.49-.89-1.18-1.55-2.07-2-.91-.47-1.97-.7-3.18-.7H13.87v-3.85ZM31.79,237.54c2.29,0,4.06.78,5.32,2.35,1.26,1.54,1.89,3.62,1.89,6.23v9.21H13.87v-8.72c0-2.54.57-4.53,1.71-5.95,1.12-1.45,2.74-2.17,4.87-2.17,1.19,0,2.26.34,3.22,1.01.96.68,1.7,1.62,2.24,2.84.44-1.56,1.18-2.75,2.2-3.57,1-.82,2.23-1.22,3.68-1.22ZM16.95,246.85v4.93h7.56v-4.93c0-1.52-.34-2.67-1.01-3.46-.68-.82-1.6-1.23-2.77-1.23s-2.09.41-2.76,1.23c-.68.79-1.01,1.95-1.01,3.46ZM27.59,246.36v5.43h8.33v-5.43c0-1.63-.37-2.89-1.12-3.78-.75-.91-1.78-1.37-3.11-1.37s-2.29.46-3.01,1.37c-.72.89-1.08,2.15-1.08,3.78ZM35.64,217.18h3.36v15.92H13.87v-15.68h3.36v11.83h7.14v-10.78h3.36v10.78h7.91v-12.07ZM39,208.82v3.85H13.87v-9.38c0-2.89.69-5.16,2.06-6.79,1.35-1.63,3.28-2.45,5.77-2.45,1.8,0,3.35.54,4.66,1.61,1.31,1.07,2.18,2.57,2.62,4.48l10.01-6.82v4.62l-9.45,6.26v4.62h9.45ZM17.09,208.82h9.24v-5.29c0-1.77-.39-3.15-1.16-4.13-.79-.98-1.95-1.47-3.47-1.47s-2.66.49-3.43,1.47c-.79.98-1.19,2.36-1.19,4.13v5.29Z"/>
</svg>