<?xml version="1.0" encoding="UTF-8"?>
<svg id="Ebene_1" xmlns="http://www.w3.org/2000/svg" version="1.1" viewBox="0 0 51 500">
  <!-- Generator: Adobe Illustrator 29.8.3, SVG Export Plug-In . SVG Version: 2.1.1 Build 3)  -->
  <defs>
    <style>
      .st0 {
        fill: none;
        stroke: #474847;
        stroke-width: 2px;
      }

      .st1 {
        fill: #474847;
      }
    </style>
  </defs>
  <rect class="st0" x="1" y="1" width="49" height="498"/>
  <path class="st1" d="M39,418.59l-19.22,7.95h19.22v3.53H13.87v-4.72l20.41-8.43-20.41-8.4v-4.76h25.13v3.57h-19.25l19.25,7.98v3.29ZM29.66,394.46v-11.69l3.11-1.05v14.04l-3.11-1.3ZM39,381.02l-20.93,7.67,20.93,7.77v3.88l-25.13-9.62v-4.23l25.13-9.56v4.1ZM39,365.75v3.85h-21.67v8.19h-3.46v-20.23h3.46v8.19h21.67ZM39,343.84v3.85h-21.67v8.19h-3.46v-20.23h3.46v8.19h21.67ZM31.65,306.56c1.45,0,2.75.39,3.92,1.15,1.17.75,2.09,1.83,2.76,3.26.68,1.42,1.01,3.15,1.01,5.18s-.34,3.78-1.01,5.25c-.7,1.45-1.68,2.58-2.94,3.39-1.26.82-2.72,1.28-4.38,1.4v-3.92c1.59-.09,2.86-.64,3.81-1.64.96-1.03,1.44-2.5,1.44-4.41,0-1.07-.16-2.03-.49-2.87-.33-.84-.79-1.49-1.4-1.96-.61-.49-1.34-.73-2.21-.73-1.05,0-1.87.35-2.45,1.05-.58.7-1.03,1.77-1.33,3.22l-.7,3.64c-.19.89-.44,1.74-.77,2.55-.33.79-.75,1.52-1.26,2.17-.54.63-1.19,1.13-1.96,1.5-.79.35-1.72.53-2.76.53-1.42,0-2.69-.37-3.82-1.12-1.12-.77-2-1.82-2.62-3.15-.65-1.35-.98-2.9-.98-4.65s.34-3.31,1.01-4.69c.68-1.4,1.62-2.52,2.84-3.36,1.21-.86,2.66-1.34,4.34-1.43v3.92c-1,.07-1.89.35-2.66.84-.77.47-1.36,1.1-1.78,1.89-.44.79-.66,1.73-.66,2.8s.2,1.98.59,2.73c.37.75.88,1.32,1.51,1.71.61.4,1.27.6,1.99.6.79,0,1.43-.2,1.93-.6.47-.42.84-.97,1.12-1.64.28-.68.5-1.4.67-2.17l.73-3.71c.44-2.17,1.17-3.83,2.17-4.97,1-1.17,2.45-1.75,4.34-1.75ZM30.25,293.38v4.86h8.75v3.85H13.87v-8.71c0-1.87.32-3.49.94-4.86.61-1.4,1.52-2.49,2.73-3.26,1.19-.77,2.67-1.15,4.44-1.15s3.24.38,4.48,1.15c1.21.77,2.15,1.85,2.8,3.26.65,1.38.98,3,.98,4.86ZM17.12,293.42v4.83h9.87v-4.83c0-1.7-.44-3.03-1.33-3.99-.89-.98-2.1-1.47-3.64-1.47s-2.76.49-3.6,1.47c-.86.96-1.3,2.29-1.3,3.99ZM39.53,268.95c0,1.82-.33,3.51-.98,5.08-.68,1.54-1.61,2.89-2.8,4.06-1.19,1.14-2.58,2.04-4.16,2.69-1.61.63-3.34.95-5.18.95s-3.56-.32-5.15-.95c-1.59-.65-2.96-1.55-4.13-2.69-1.19-1.17-2.11-2.52-2.77-4.06-.68-1.56-1.01-3.26-1.01-5.08s.34-3.5,1.01-5.04c.65-1.56,1.57-2.92,2.77-4.06,1.17-1.17,2.54-2.07,4.13-2.7,1.59-.65,3.3-.98,5.15-.98s3.57.33,5.18.98c1.59.63,2.97,1.53,4.16,2.7,1.19,1.14,2.12,2.5,2.8,4.06.65,1.54.98,3.22.98,5.04ZM36.06,268.95c0-1.33-.25-2.53-.74-3.61-.49-1.07-1.18-1.99-2.07-2.76-.89-.79-1.91-1.39-3.08-1.79-1.19-.42-2.45-.63-3.78-.63s-2.58.21-3.74.63c-1.17.4-2.18.99-3.05,1.79-.89.77-1.58,1.69-2.07,2.76-.49,1.07-.74,2.27-.74,3.61s.25,2.53.74,3.61c.49,1.07,1.18,2.01,2.07,2.8.86.77,1.88,1.36,3.05,1.79,1.17.4,2.41.6,3.74.6s2.59-.2,3.78-.6c1.17-.42,2.19-1.02,3.08-1.79.89-.79,1.58-1.73,2.07-2.8.49-1.07.74-2.28.74-3.61ZM39,248.35v3.85H13.87v-9.38c0-2.89.69-5.16,2.06-6.79,1.35-1.63,3.28-2.45,5.77-2.45,1.8,0,3.35.54,4.66,1.61,1.31,1.07,2.18,2.57,2.62,4.48l10.01-6.82v4.62l-9.45,6.26v4.62h9.45ZM17.09,248.35h9.24v-5.28c0-1.77-.39-3.15-1.16-4.13-.79-.98-1.95-1.47-3.47-1.47s-2.66.49-3.43,1.47c-.79.98-1.19,2.36-1.19,4.13v5.28ZM39,219.66v3.85h-21.67v8.19h-3.46v-20.23h3.46v8.19h21.67ZM35.81,190.29v3.29h-7.1v7.11h-3.08v-7.11h-7.07v-3.29h7.07v-7.1h3.08v7.1h7.1ZM39,158.86l-19.22,7.94h19.22v3.54H13.87v-4.73l20.41-8.43-20.41-8.4v-4.76h25.13v3.57h-19.25l19.25,7.98v3.29ZM39.53,127.28c0,1.82-.33,3.51-.98,5.07-.68,1.54-1.61,2.89-2.8,4.06-1.19,1.14-2.58,2.04-4.16,2.7-1.61.63-3.34.94-5.18.94s-3.56-.31-5.15-.94c-1.59-.65-2.96-1.55-4.13-2.7-1.19-1.17-2.11-2.52-2.77-4.06-.68-1.56-1.01-3.25-1.01-5.07s.34-3.5,1.01-5.04c.65-1.56,1.57-2.92,2.77-4.06,1.17-1.17,2.54-2.07,4.13-2.69,1.59-.65,3.3-.98,5.15-.98s3.57.33,5.18.98c1.59.63,2.97,1.53,4.16,2.69,1.19,1.14,2.12,2.5,2.8,4.06.65,1.54.98,3.22.98,5.04ZM36.06,127.28c0-1.33-.25-2.53-.74-3.61-.49-1.07-1.18-1.99-2.07-2.76-.89-.79-1.91-1.39-3.08-1.78-1.19-.42-2.45-.63-3.78-.63s-2.58.21-3.74.63c-1.17.4-2.18.99-3.05,1.78-.89.77-1.58,1.69-2.07,2.76-.49,1.07-.74,2.28-.74,3.61s.25,2.53.74,3.6,1.18,2.01,2.07,2.8c.86.77,1.88,1.37,3.05,1.79,1.17.4,2.41.6,3.74.6s2.59-.2,3.78-.6c1.17-.42,2.19-1.01,3.08-1.79.89-.79,1.58-1.73,2.07-2.8.49-1.07.74-2.27.74-3.6ZM39,102.58v7.95H13.87v-7.95c0-2.68.54-4.97,1.61-6.86,1.05-1.89,2.51-3.32,4.38-4.31,1.87-.98,4.02-1.47,6.48-1.47s4.6.5,6.51,1.51c1.89,1,3.4,2.46,4.51,4.38,1.1,1.89,1.65,4.14,1.65,6.75ZM17.19,106.67h18.48v-3.92c0-1.94-.37-3.56-1.12-4.86-.77-1.33-1.85-2.33-3.26-3.01-1.4-.68-3.06-1.01-4.97-1.01s-3.51.34-4.86,1.01c-1.38.68-2.43,1.68-3.15,3.01-.75,1.31-1.12,2.93-1.12,4.86v3.92ZM35.64,69.99h3.36v15.93H13.87v-15.68h3.36v11.83h7.14v-10.78h3.36v10.78h7.91v-12.08Z"/>
</svg>