<?xml version="1.0" encoding="UTF-8"?>
<svg id="Ebene_1" xmlns="http://www.w3.org/2000/svg" version="1.1" viewBox="0 0 54 469">
  <!-- Generator: Adobe Illustrator 29.8.3, SVG Export Plug-In . SVG Version: 2.1.1 Build 3)  -->
  <defs>
    <style>
      .st0 {
        fill: none;
        stroke: #474847;
        stroke-width: 2px;
      }

      .st1 {
        fill: #474847;
      }
    </style>
  </defs>
  <rect class="st0" x="1" y="1" width="52" height="467"/>
  <path class="st1" d="M21.21,149.9c-2.29,0-4.06-.78-5.32-2.35-1.26-1.54-1.89-3.62-1.89-6.23v-9.21h25.13v8.72c0,2.54-.57,4.53-1.72,5.95-1.12,1.45-2.74,2.17-4.87,2.17-1.19,0-2.26-.34-3.22-1.01-.96-.68-1.7-1.62-2.24-2.84-.44,1.56-1.18,2.75-2.2,3.57-1,.82-2.23,1.22-3.68,1.22ZM36.05,140.59v-4.93h-7.56v4.93c0,1.52.34,2.67,1.01,3.46.68.82,1.6,1.23,2.77,1.23s2.09-.41,2.76-1.23c.68-.79,1.01-1.95,1.01-3.46ZM25.41,141.08v-5.43h-8.33v5.43c0,1.63.37,2.89,1.12,3.78.75.91,1.78,1.37,3.11,1.37s2.29-.46,3.01-1.37c.72-.89,1.08-2.15,1.08-3.78ZM17.36,170.26h-3.36v-15.93h25.13v15.68h-3.36v-11.83h-7.14v10.78h-3.36v-10.78h-7.91v12.07ZM39.13,195.29l-25.13-9.24v-4.24l25.13-9.24v4.13l-20.65,7.32,20.65,7.42v3.85ZM17.36,214.49h-3.36v-15.93h25.13v15.68h-3.36v-11.83h-7.14v10.78h-3.36v-10.78h-7.91v12.08ZM14,222.85v-3.85h25.13v9.38c0,2.89-.69,5.16-2.07,6.79-1.35,1.63-3.28,2.45-5.77,2.45-1.8,0-3.35-.54-4.66-1.61-1.31-1.07-2.18-2.57-2.62-4.48l-10.01,6.82v-4.62l9.45-6.26v-4.62h-9.45ZM35.91,222.85h-9.24v5.29c0,1.77.39,3.15,1.16,4.13.79.98,1.95,1.47,3.47,1.47s2.66-.49,3.43-1.47c.79-.98,1.19-2.36,1.19-4.13v-5.29ZM23.34,245.58v11.69l-3.11,1.05v-14.04l3.11,1.29ZM14,259.02l20.93-7.66-20.93-7.77v-3.89l25.13,9.62v4.24l-25.13,9.55v-4.1ZM13.48,276.39c0-1.82.33-3.51.98-5.08.65-1.54,1.56-2.89,2.73-4.06,1.17-1.17,2.54-2.08,4.13-2.73,1.61-.65,3.37-.98,5.28-.98s3.58.32,5.15.94c1.59.63,2.98,1.51,4.16,2.62,1.19,1.14,2.11,2.49,2.76,4.03.65,1.54.98,3.22.98,5.04,0,2.17-.41,4.08-1.22,5.74-.79,1.68-1.88,3.08-3.26,4.2-1.38,1.12-2.94,1.94-4.69,2.45v-4.48c1.07-.3,2.04-.82,2.9-1.54.86-.7,1.54-1.6,2.03-2.7.51-1.07.77-2.33.77-3.78,0-1.66-.4-3.14-1.19-4.45-.79-1.28-1.91-2.29-3.36-3.01-1.42-.72-3.13-1.08-5.11-1.08-1.84,0-3.5.36-4.97,1.08-1.47.72-2.64,1.75-3.5,3.08-.86,1.35-1.29,2.96-1.29,4.83,0,1.54.29,2.88.88,4.02.61,1.17,1.45,2.11,2.52,2.84,1.1.72,2.36,1.2,3.78,1.43v-8.68h3.08v12.74c-2.01.05-3.84-.22-5.5-.8-1.66-.58-3.09-1.42-4.3-2.52-1.21-1.1-2.15-2.43-2.8-3.99-.63-1.54-.94-3.27-.94-5.18ZM17.36,308.83h-3.36v-15.92h25.13v15.68h-3.36v-11.83h-7.14v10.78h-3.36v-10.78h-7.91v12.07Z"/>
</svg>