<?xml version="1.0" encoding="UTF-8"?>
<svg id="Ebene_1" xmlns="http://www.w3.org/2000/svg" version="1.1" viewBox="0 0 150.14 150.14">
  <!-- Generator: Adobe Illustrator 29.8.3, SVG Export Plug-In . SVG Version: 2.1.1 Build 3)  -->
  <defs>
    <style>
      .st0 {
        fill: #dcff00;
      }

      .st1 {
        fill: #252525;
      }
    </style>
  </defs>
  <path class="st0" d="M75.07,0C33.61,0,0,33.61,0,75.07s33.61,75.07,75.07,75.07,75.07-33.61,75.07-75.07S116.53,0,75.07,0ZM75.07,129.88c-30.34,0-54.93-24.59-54.93-54.93s24.59-54.93,54.93-54.93,54.93,24.59,54.93,54.93-24.59,54.93-54.93,54.93Z"/>
  <g>
    <path class="st1" d="M17.5,50.63c.57.2,1.05.53,1.42,1s.6,1.04.69,1.73c.09.68-.02,1.45-.31,2.3-.29.85-.69,1.52-1.19,2.02s-1.07.82-1.7.97-1.3.12-2-.07l.4-1.15c.79.2,1.5.14,2.13-.18s1.11-.95,1.43-1.89c.18-.51.26-1.01.23-1.48-.02-.48-.15-.89-.38-1.24-.23-.35-.56-.6-.99-.75-.56-.19-1.05-.17-1.46.07-.41.24-.82.72-1.25,1.43l-.75,1.28c-.2.34-.42.66-.67.96-.25.3-.53.56-.85.77-.31.21-.66.34-1.05.4-.39.06-.82,0-1.29-.16-.58-.2-1.06-.54-1.41-1.01-.36-.47-.57-1.03-.65-1.68s0-1.34.25-2.06.61-1.31,1.09-1.77c.48-.47,1.03-.79,1.65-.97.63-.18,1.29-.16,2,.05l-.4,1.16c-.49-.15-.96-.17-1.42-.06-.45.11-.86.32-1.2.63-.35.32-.61.73-.79,1.26-.19.55-.25,1.06-.18,1.5.07.45.23.82.47,1.13.25.3.55.52.93.65.42.15.8.15,1.13.02.33-.13.62-.35.88-.65.26-.3.49-.64.71-1.01l.76-1.28c.51-.85,1.06-1.45,1.65-1.81.59-.35,1.29-.39,2.11-.11h0Z"/>
    <path class="st1" d="M22.1,48.57l-.53,1.08-10.33-5.03.53-1.08,10.33,5.03Z"/>
    <path class="st1" d="M24.71,37.92c.86.55,1.34,1.27,1.44,2.15.1.88-.16,1.8-.77,2.75l-2.14,3.34-9.67-6.2,2.01-3.14c.6-.93,1.28-1.52,2.05-1.77.77-.25,1.55-.12,2.35.4.48.31.82.72,1.02,1.25s.24,1.1.1,1.71c.58-.55,1.18-.86,1.8-.94.62-.07,1.22.08,1.8.45h0ZM16.38,37.4l-1.37,2.14,3.45,2.21,1.37-2.14c.42-.65.59-1.26.51-1.81-.08-.55-.39-1-.92-1.34-.54-.35-1.07-.44-1.61-.28-.53.16-1.01.57-1.43,1.22ZM20.78,39.94l-1.5,2.34,3.76,2.41,1.5-2.34c.46-.71.64-1.37.56-1.98s-.43-1.11-1.03-1.5c-.58-.37-1.16-.47-1.74-.28-.58.19-1.09.64-1.55,1.35Z"/>
    <path class="st1" d="M27.97,32.41l3.22,2.86-.8.9-3.22-2.86-8.15-1.64.87-.98,6.86,1.4-2.2-6.66.83-.93,2.58,7.92h0Z"/>
    <path class="st1" d="M40.16,27.05l-5.05,4.19-7.34-8.84.92-.77,6.65,8.02,4.13-3.42.68.83h.01Z"/>
    <path class="st1" d="M47.23,22.62l-5.59,3.44-6.02-9.78,1.02-.63,5.46,8.87,4.56-2.81.56.91h.01Z"/>
    <path class="st1" d="M54.72,18.17l.41.96-6.34,2.72-4.52-10.56,6.24-2.67.41.96-5.13,2.2,1.58,3.68,4.69-2.01.41.96-4.69,2.01,1.72,4.02,5.24-2.24-.02-.03h0Z"/>
    <path class="st1" d="M69.19,16.03l-4.07-9.37-1.26,10.14-1.23.18-4.64-10.94,1.16-.17,3.85,9.29,1.26-10.03,1.27-.18,4.03,9.29,1.07-10.03,1.17-.17-1.35,11.8-1.25.18h-.01Z"/>
    <path class="st1" d="M81.63,16.03l-3.41-10.37-4.36,10.02-1.18-.05,4.98-11.27,1.31.06,3.93,11.68-1.26-.06h0ZM75.23,11.58l5.55.25.29.99-6.36-.29.52-.95Z"/>
    <path class="st1" d="M90.94,17.83l-6.42-1.35,2.37-11.24,1.17.25-2.15,10.19,5.24,1.11-.22,1.05h0Z"/>
    <path class="st1" d="M98.78,20.62l-6.16-2.25,3.93-10.79,1.13.41-3.57,9.79,5.04,1.84-.37,1.01h0Z"/>
    <path class="st1" d="M101.53,22.03l-1.08-.53,5.04-10.32,1.08.53-5.04,10.32Z"/>
    <path class="st1" d="M112.41,24.86c-.33.51-.77.89-1.31,1.14s-1.16.34-1.84.26c-.68-.08-1.4-.36-2.16-.85s-1.31-1.03-1.68-1.64-.54-1.23-.54-1.88.19-1.29.55-1.92l1.02.66c-.39.72-.5,1.42-.33,2.11s.66,1.3,1.49,1.84c.46.3.92.49,1.39.58.47.09.9.07,1.3-.08s.72-.4.96-.78c.32-.5.42-.98.28-1.43s-.5-.97-1.09-1.55l-1.07-1.03c-.28-.27-.54-.56-.77-.88-.23-.32-.41-.65-.54-1.01s-.17-.73-.14-1.12c.04-.39.19-.79.46-1.22.34-.52.78-.9,1.32-1.13s1.14-.31,1.79-.23c.65.08,1.3.32,1.94.74.64.41,1.12.9,1.46,1.48.34.58.52,1.19.54,1.84.02.65-.15,1.29-.52,1.93l-1.03-.67c.26-.44.39-.9.4-1.36s-.11-.91-.33-1.32-.57-.77-1.03-1.07c-.49-.32-.96-.5-1.42-.54-.45-.04-.86.03-1.21.19-.35.17-.64.41-.85.74-.24.38-.34.74-.29,1.09s.19.68.42,1,.5.63.81.94l1.06,1.05c.7.7,1.16,1.38,1.36,2.03.2.66.07,1.35-.4,2.08h0Z"/>
    <path class="st1" d="M122.36,33.03l-5.19-5.21.69-.69,5.19,5.21-.69.69Z"/>
    <path class="st1" d="M127.4,47.21l7.12-7.33-9.86,2.69-.63-1.07,8.35-8.45.59,1.01-7.13,7.09,9.76-2.64.65,1.1-7.06,7.26,9.69-2.83.6,1.02-11.43,3.24-.64-1.09h0Z"/>
    <path class="st1" d="M133.14,58.64l-.98.34-2.26-6.51,10.85-3.77,2.22,6.41-.98.34-1.83-5.28-3.78,1.31,1.67,4.82-.98.34-1.67-4.82-4.13,1.43,1.87,5.38h0Z"/>
    <path class="st1" d="M137.2,68.13c-1.01.18-1.85-.03-2.52-.61s-1.1-1.43-1.3-2.54l-.68-3.91,11.32-1.98.64,3.67c.19,1.09.09,1.99-.31,2.69-.4.7-1.06,1.14-2,1.3-.56.1-1.09.02-1.6-.23-.51-.25-.92-.65-1.23-1.19-.05.8-.29,1.44-.69,1.91-.4.47-.95.77-1.63.89h0ZM138.73,63.98l-.48-2.74-4.4.77.48,2.74c.15.83.46,1.44.93,1.84s1.06.53,1.77.41c.68-.12,1.17-.44,1.47-.97s.37-1.21.23-2.04h0ZM143.69,62.87l-.44-2.51-4.03.7.44,2.51c.13.77.42,1.33.84,1.68.43.35.96.47,1.59.36.63-.11,1.09-.4,1.37-.88.28-.48.36-1.1.23-1.87h0Z"/>
    <path class="st1" d="M134.24,74.08l.05-3.26,11.49.19-.05,3.26c-.02,1.23-.28,2.26-.78,3.11s-1.18,1.48-2.04,1.9-1.85.63-2.97.61c-1.11-.02-2.09-.26-2.96-.72s-1.54-1.13-2.03-1.99c-.49-.87-.73-1.9-.71-3.09h0ZM144.72,72.19l-9.41-.15-.03,2.03c-.02.98.17,1.81.55,2.49s.93,1.2,1.64,1.55c.71.36,1.54.54,2.49.56.95.02,1.78-.14,2.48-.48s1.25-.84,1.64-1.5c.39-.67.59-1.49.61-2.47l.03-2.03Z"/>
    <path class="st1" d="M133.81,88.66l-1.03-.17,1.15-6.8,11.33,1.92-1.13,6.69-1.03-.17.93-5.51-3.94-.67-.85,5.03-1.03-.17.85-5.03-4.31-.73-.95,5.62h.01Z"/>
    <path class="st1" d="M132.65,99.23c-.58-.2-1.05-.53-1.42-1s-.61-1.04-.69-1.73c-.09-.68.02-1.45.31-2.3s.69-1.52,1.19-2.02,1.07-.82,1.7-.97c.63-.15,1.3-.13,2,.07l-.4,1.15c-.79-.2-1.5-.14-2.13.18-.63.32-1.11.96-1.43,1.89-.18.51-.25,1.01-.23,1.49.02.48.15.89.38,1.24s.56.6.99.75c.57.19,1.05.17,1.46-.07s.82-.72,1.25-1.43l.75-1.28c.2-.34.42-.66.67-.96s.53-.56.85-.77c.31-.21.67-.34,1.05-.4s.82,0,1.29.16c.58.2,1.06.54,1.41,1.01.36.47.58,1.03.66,1.68s0,1.34-.25,2.06-.61,1.31-1.08,1.78c-.48.47-1.03.79-1.65.97s-1.29.16-2-.04l.4-1.17c.49.15.96.17,1.42.06.45-.11.85-.32,1.2-.64.35-.32.61-.74.79-1.26.19-.55.25-1.06.18-1.5-.07-.45-.23-.82-.47-1.13s-.55-.52-.93-.65c-.42-.15-.8-.15-1.13-.02-.33.13-.62.35-.87.65s-.49.64-.71,1.01l-.76,1.28c-.51.85-1.06,1.46-1.65,1.81-.59.36-1.29.39-2.11.11h-.04Z"/>
    <path class="st1" d="M128.05,101.3l.52-1.08,10.33,5.02-.52,1.08-10.33-5.02Z"/>
    <path class="st1" d="M123.95,107.84c.46-.68,1.01-1.23,1.65-1.65s1.33-.7,2.07-.84,1.49-.13,2.26.04c.77.16,1.51.49,2.23.97.71.48,1.28,1.03,1.72,1.67s.75,1.32.92,2.05.18,1.47.04,2.22-.44,1.46-.91,2.16c-.56.83-1.21,1.46-1.94,1.88s-1.5.66-2.3.73c-.8.06-1.58-.03-2.35-.29l.76-1.13c.57.19,1.15.26,1.75.21.6-.05,1.17-.24,1.73-.56.55-.33,1.05-.81,1.48-1.46.49-.73.74-1.49.77-2.28s-.16-1.55-.56-2.28-1-1.36-1.81-1.9c-.78-.52-1.58-.83-2.42-.93-.83-.1-1.62.02-2.36.36s-1.37.89-1.88,1.65c-.46.69-.73,1.38-.81,2.08-.08.69.03,1.37.31,2.01.28.65.73,1.23,1.34,1.76l2.52-3.74.81.54-3.21,4.78c-.75-.51-1.36-1.08-1.82-1.71s-.77-1.31-.93-2.02-.16-1.43,0-2.15c.15-.73.47-1.44.94-2.15v-.02h0Z"/>
    <path class="st1" d="M114.16,119.47l11.64,2.29-6.86-6.99.8-.78,8.05,8.2-.95.93-11.51-2.25,6.77,6.9-.81.8-8.05-8.2.91-.9h0Z"/>
    <path class="st1" d="M104.95,130.65l6.27-3.86.51.83-6.27,3.86-.51-.83Z"/>
    <path class="st1" d="M93.38,130.97c.78-.26,1.55-.35,2.31-.29.76.06,1.48.27,2.14.61.67.34,1.26.81,1.76,1.42.51.6.89,1.31,1.16,2.14.27.81.38,1.6.33,2.38-.04.77-.22,1.5-.54,2.18s-.76,1.27-1.33,1.77-1.25.88-2.04,1.14c-.95.31-1.85.41-2.68.29-.84-.12-1.59-.4-2.26-.84s-1.23-1-1.68-1.67l1.29-.42c.33.5.75.91,1.25,1.24s1.07.54,1.71.62,1.33,0,2.07-.24c.83-.27,1.5-.71,2.01-1.32s.83-1.32.96-2.14c.13-.82.04-1.69-.26-2.61-.29-.89-.74-1.63-1.33-2.22s-1.29-.98-2.08-1.17c-.79-.19-1.62-.14-2.5.15-.79.26-1.43.64-1.92,1.14s-.82,1.1-.99,1.78c-.17.69-.18,1.42-.02,2.21l4.29-1.41.3.93-5.47,1.8c-.28-.86-.41-1.68-.38-2.47.03-.78.2-1.51.51-2.16.31-.66.75-1.23,1.32-1.7.57-.48,1.26-.85,2.07-1.12v-.02h0Z"/>
    <path class="st1" d="M85.07,133.33l1.19-.15,1.43,11.4-4.06.51c-1.22.15-2.21-.03-2.99-.54s-1.23-1.32-1.37-2.42c-.11-.86.06-1.62.51-2.28s1.11-1.13,2-1.39l-3.8-4.25,1.43-.18,3.63,4.12,2.6-.33-.56-4.51v.02h0ZM86.37,143.73l-.61-4.89-2.78.35c-.87.11-1.53.4-1.99.88-.46.48-.63,1.12-.53,1.91.1.79.43,1.37.99,1.72.56.35,1.27.48,2.14.37l2.78-.35h0Z"/>
    <path class="st1" d="M68.36,133.86l3.38,10.38,4.38-10.01,1.18.06-5,11.26-1.31-.06-3.9-11.69,1.26.06h0ZM74.75,138.33l-5.55-.26-.29-.99,6.36.3-.53.95h.01Z"/>
    <path class="st1" d="M64.3,133.16l1.17.25-2.4,11.23-6.45-1.38.22-1.02,5.27,1.13.94-4.38-4.54-.97.22-1.02,4.54.97,1.03-4.82h0Z"/>
    <path class="st1" d="M56.13,131.02l1.14.37-3.56,10.92-1.14-.37,3.56-10.92Z"/>
    <path class="st1" d="M52.5,129.71l1.09.5-4.82,10.43-1.09-.5,2.32-5.03-7.26,2.75-1.26-.58,7.49-2.85-2.81-7.64,1.41.65,2.68,7.18,2.26-4.9h-.01Z"/>
    <path class="st1" d="M39.21,122.02l2.56,2.02-7.1,9.03-2.56-2.02c-.96-.76-1.63-1.59-2-2.5s-.46-1.83-.28-2.78.62-1.85,1.32-2.73c.69-.87,1.47-1.51,2.36-1.92s1.83-.54,2.82-.41c.99.13,1.95.57,2.89,1.31h-.01ZM34.37,131.51l5.82-7.39-1.6-1.26c-.77-.61-1.54-.96-2.31-1.07s-1.52,0-2.23.36c-.71.35-1.37.89-1.95,1.64-.59.75-.96,1.5-1.12,2.26s-.09,1.5.2,2.21c.29.71.83,1.37,1.6,1.98l1.6,1.26h0Z"/>
    <path class="st1" d="M28.05,112.72l.77-.7,4.64,5.11-8.5,7.72-4.56-5.02.77-.7,3.75,4.13,2.96-2.69-3.43-3.78.77-.7,3.43,3.78,3.23-2.94-3.83-4.22h0Z"/>
    <path class="st1" d="M20.43,105.29c.51-.33,1.06-.5,1.66-.51.6,0,1.19.17,1.79.52.59.35,1.13.91,1.62,1.66.49.75.77,1.48.86,2.18.09.7,0,1.35-.28,1.94s-.7,1.1-1.29,1.53l-.66-1.02c.65-.49,1.04-1.09,1.17-1.79s-.07-1.46-.61-2.29c-.3-.46-.64-.82-1.03-1.1s-.79-.43-1.21-.46c-.42-.03-.82.07-1.2.32-.5.33-.78.72-.84,1.19s.06,1.09.36,1.86l.55,1.38c.15.36.26.74.34,1.12.08.38.11.76.08,1.14s-.14.73-.33,1.07c-.19.34-.5.65-.92.92-.52.34-1.07.5-1.67.49s-1.17-.18-1.73-.52-1.05-.83-1.47-1.47c-.41-.63-.65-1.29-.73-1.95-.07-.66.01-1.3.26-1.9.25-.6.67-1.12,1.27-1.54l.67,1.03c-.42.3-.72.66-.92,1.08s-.27.87-.24,1.34c.04.47.2.93.51,1.4.32.49.68.85,1.07,1.07.4.22.79.33,1.18.32.39,0,.75-.12,1.08-.33.38-.24.61-.53.71-.87s.11-.7.03-1.09-.2-.78-.36-1.19l-.54-1.39c-.36-.92-.49-1.73-.41-2.41.08-.68.49-1.26,1.21-1.73h.02Z"/>
    <path class="st1" d="M21.64,100.38l.53,1.08-10.32,5.05-.53-1.08,10.32-5.05Z"/>
    <path class="st1" d="M19.01,93.14c.25.78.35,1.55.28,2.31s-.27,1.48-.61,2.14-.82,1.25-1.42,1.76-1.32.89-2.14,1.16c-.81.26-1.6.37-2.38.33-.77-.05-1.5-.23-2.18-.54-.68-.32-1.27-.76-1.77-1.33s-.88-1.25-1.14-2.04c-.31-.95-.41-1.85-.28-2.68s.4-1.59.85-2.26c.44-.67,1-1.23,1.68-1.67l.42,1.29c-.5.33-.91.75-1.24,1.25-.33.5-.54,1.07-.62,1.71s0,1.33.24,2.07c.27.83.71,1.5,1.32,2.01s1.32.83,2.14.96,1.69.05,2.61-.25c.89-.29,1.63-.73,2.23-1.33.59-.6.98-1.29,1.17-2.08.19-.79.15-1.62-.14-2.5-.26-.79-.64-1.43-1.14-1.92s-1.09-.82-1.78-.99-1.42-.18-2.21-.03l1.4,4.29-.93.3-1.78-5.48c.86-.28,1.69-.41,2.47-.38s1.5.2,2.16.52,1.22.75,1.7,1.32.85,1.26,1.11,2.07h-.02Z"/>
    <path class="st1" d="M15.91,78.26l-9,7.74,9.73-1.07.12,1.11-11.42,1.26-.15-1.32,8.88-7.66-9.61,1.06-.12-1.13,11.42-1.26.14,1.27h.01Z"/>
    <path class="st1" d="M12.8,64.11l-.83,7.31-.97-.11.83-7.31.97.11Z"/>
  </g>
</svg>