<svg width="799" height="436" viewBox="0 0 799 436" fill="none" xmlns="http://www.w3.org/2000/svg">
<path d="M-0.00035131 1.76H83.1996L84.7996 35.04H81.9197C77.973 23.52 73.3863 15.68 68.1597 11.52C63.0397 7.36 55.3597 5.28 45.1196 5.28H40.6396V57.28H47.8397C52.9597 57.28 57.2263 55.4133 60.6396 51.68C64.053 47.9467 66.3997 42.8267 67.6797 36.32H70.0797V83.68H67.3597C65.653 75.68 63.253 69.9733 60.1597 66.56C57.173 63.1467 53.0663 61.44 47.8397 61.44H40.6396V110.24H60.4797V113.76H-0.00035131V110.24H9.43965V5.28H-0.00035131V1.76ZM94.6871 1.76H152.287V5.28H135.327V110.24H141.087C150.154 110.24 157.354 107.467 162.687 101.92C168.127 96.3733 173.62 87.84 179.167 76.32H182.527L179.487 113.76H94.6871V110.24H104.127V5.28H94.6871V1.76ZM265.237 64.32V52.48C265.237 32.96 264.277 20.64 262.357 15.52C260.224 9.65334 257.184 6.02667 253.237 4.64C250.997 3.78667 248.277 3.36 245.077 3.36C241.877 3.36 239.104 3.78667 236.757 4.64C234.517 5.49334 232.65 6.98667 231.157 9.12C229.664 11.2533 228.437 13.4933 227.477 15.84C226.624 18.1867 225.93 21.4933 225.397 25.76C224.757 31.9467 224.437 41.0667 224.437 53.12V64.64C224.437 77.6533 224.917 86.9333 225.877 92.48C226.944 97.92 228.224 101.813 229.717 104.16C233.024 109.387 238.144 112 245.077 112C253.504 112 258.944 108.48 261.397 101.44C263.957 94.2933 265.237 81.92 265.237 64.32ZM244.757 115.36C226.944 115.36 213.61 110.56 204.757 100.96C196.01 91.2533 191.637 77.28 191.637 59.04C191.637 40.6933 196.33 26.2933 205.717 15.84C215.21 5.28 228.597 5.72205e-06 245.877 5.72205e-06C263.157 5.72205e-06 276.17 5.01334 284.917 15.04C293.77 24.96 298.197 39.0933 298.197 57.44C298.197 75.7867 293.717 90.0267 284.757 100.16C275.904 110.293 262.57 115.36 244.757 115.36ZM363.855 81.44L377.135 35.36L367.535 4.8H358.415V1.76H408.015V4.8H398.575L422.415 80.48L441.615 4.8H425.455V1.76H457.455V4.8H446.895L417.455 115.36H403.215L379.535 43.04L358.735 115.36H344.815L304.495 4.8H296.975V1.76H348.975V4.8H337.775L363.855 81.44ZM84.3197 161.76H127.04V164.8H118.24V270.72H127.04V273.76H78.2397V270.72H87.0396V170.72H86.3997L62.3997 273.76H42.3997L14.2396 170.24H13.5996V270.72H22.3997V273.76H0.639648V270.72H9.43965V164.8H0.639648V161.76H43.8397L65.1197 244.16L84.3197 161.76ZM134.375 161.76H217.575L219.175 193.44H216.295C211.815 182.667 207.121 175.307 202.215 171.36C197.308 167.307 190.108 165.28 180.615 165.28H175.015V214.72H180.455C185.468 214.72 189.681 212.853 193.095 209.12C196.508 205.28 198.908 200.16 200.295 193.76H202.695V241.12H199.975C198.055 233.12 195.441 227.413 192.135 224C188.935 220.587 184.508 218.88 178.855 218.88H175.015V270.24H181.095C190.908 270.24 199.228 267.307 206.055 261.44C212.988 255.573 217.735 248.053 220.295 238.88H223.495L222.215 273.76H134.375V270.24H143.815V165.28H134.375V161.76ZM234.218 161.76H317.418L319.018 193.44H316.138C311.658 182.667 306.965 175.307 302.058 171.36C297.152 167.307 289.952 165.28 280.458 165.28H274.858V214.72H280.298C285.312 214.72 289.525 212.853 292.938 209.12C296.352 205.28 298.752 200.16 300.138 193.76H302.538V241.12H299.818C297.898 233.12 295.285 227.413 291.978 224C288.778 220.587 284.352 218.88 278.698 218.88H274.858V270.24H280.938C290.752 270.24 299.072 267.307 305.898 261.44C312.832 255.573 317.578 248.053 320.138 238.88H323.338L322.058 273.76H234.218V270.24H243.658V165.28H234.218V161.76ZM427.618 161.76L429.218 201.92H426.178C421.485 187.733 417.325 178.08 413.698 172.96C410.072 167.733 404.845 165.12 398.018 165.12H396.098V270.4H409.698V273.76H351.298V270.4H364.898V165.12H362.818C355.992 165.12 350.712 167.84 346.978 173.28C343.245 178.613 339.138 188.16 334.658 201.92H331.618L333.218 161.76H427.618ZM482.233 272C487.567 272 492.26 270.56 496.313 267.68C500.473 264.8 502.553 260.48 502.553 254.72C502.553 248.853 500.313 244.373 495.833 241.28C491.46 238.187 485.167 235.52 476.953 233.28C468.847 230.933 462.927 228.907 459.193 227.2C455.567 225.493 452.1 223.253 448.793 220.48C442.18 214.933 438.873 206.347 438.873 194.72C438.873 185.227 442.233 177.067 448.953 170.24C455.78 163.413 465.06 160 476.793 160C482.447 160 488.313 160.853 494.393 162.56C500.58 164.16 504.42 164.96 505.913 164.96C507.407 164.96 508.74 163.893 509.913 161.76H511.673L512.793 194.08H510.233C505.113 184.8 499.727 177.387 494.073 171.84C488.527 166.187 482.447 163.36 475.833 163.36C469.327 163.36 464.26 164.907 460.633 168C457.007 170.987 455.193 175.04 455.193 180.16C455.193 185.173 457.327 189.067 461.593 191.84C465.967 194.507 471.3 196.693 477.593 198.4C483.887 200.107 487.993 201.28 489.913 201.92C491.94 202.56 494.393 203.467 497.273 204.64C500.26 205.707 502.66 206.88 504.473 208.16C506.393 209.333 508.367 210.88 510.393 212.8C512.527 214.613 514.18 216.64 515.353 218.88C518.233 224 519.673 230.08 519.673 237.12C519.673 248.64 516.047 257.92 508.793 264.96C501.647 271.893 492.207 275.36 480.473 275.36C474.393 275.36 467.407 274.56 459.513 272.96C451.727 271.36 447.407 270.56 446.553 270.56C445.06 270.56 443.62 272.16 442.233 275.36H439.993L438.393 237.28H441.113C445.807 246.56 451.78 254.667 459.033 261.6C466.393 268.533 474.127 272 482.233 272ZM-0.00035131 321.76H83.1996L84.7996 355.04H81.9197C77.973 343.52 73.3863 335.68 68.1597 331.52C63.0397 327.36 55.3597 325.28 45.1196 325.28H40.6396V377.28H47.8397C52.9597 377.28 57.2263 375.413 60.6396 371.68C64.053 367.947 66.3997 362.827 67.6797 356.32H70.0797V403.68H67.3597C65.653 395.68 63.253 389.973 60.1597 386.56C57.173 383.147 53.0663 381.44 47.8397 381.44H40.6396V430.24H60.4797V433.76H-0.00035131V430.24H9.43965V325.28H-0.00035131V321.76ZM132.343 399.68C132.343 409.493 133.997 417.013 137.303 422.24C140.717 427.467 146.797 430.08 155.543 430.08C164.29 430.08 171.01 427.36 175.703 421.92C180.397 416.48 182.743 408.213 182.743 397.12V324.8H172.343V321.76H195.703V324.8H186.903V396C186.903 409.227 183.97 419.093 178.103 425.6C172.237 432.107 161.837 435.36 146.903 435.36C132.077 435.36 120.717 432.267 112.823 426.08C105.037 419.893 101.143 409.28 101.143 394.24V324.8H92.3434V321.76H142.743V324.8H132.343V399.68ZM292.602 324.8V433.76H270.202L215.322 330.24V430.72H224.122V433.76H202.202V430.72H211.002V324.8H202.202V321.76H246.362L288.282 402.08V324.8H279.482V321.76H301.402V324.8H292.602ZM367.827 323.2C351.294 323.2 343.027 339.147 343.027 371.04V383.68C343.027 398.827 345.214 410.72 349.587 419.36C353.96 427.893 360.414 432.16 368.947 432.16C380.68 432.16 391.454 420.747 401.267 397.92H404.147L403.027 433.6H401.267C400.627 432.427 400.04 431.627 399.507 431.2C398.974 430.667 398.174 430.4 397.107 430.4C396.147 430.4 392.307 431.253 385.587 432.96C378.867 434.56 372.04 435.36 365.107 435.36C347.72 435.36 334.227 430.667 324.627 421.28C315.134 411.893 310.387 397.813 310.387 379.04C310.387 360.16 315.347 345.6 325.267 335.36C335.294 325.12 348.734 320 365.587 320C372.094 320 378.44 320.853 384.627 322.56C390.92 324.16 394.6 324.96 395.667 324.96C396.734 324.96 397.534 324.747 398.067 324.32C398.6 323.787 399.187 322.933 399.827 321.76H401.587L402.867 356.48H399.987C395.187 345.707 390.227 337.493 385.107 331.84C380.094 326.08 374.334 323.2 367.827 323.2ZM511.212 321.76L512.812 361.92H509.772C505.079 347.733 500.919 338.08 497.292 332.96C493.665 327.733 488.439 325.12 481.612 325.12H479.692V430.4H493.292V433.76H434.892V430.4H448.492V325.12H446.412C439.585 325.12 434.305 327.84 430.572 333.28C426.839 338.613 422.732 348.16 418.252 361.92H415.212L416.812 321.76H511.212ZM522.671 321.76H571.471V324.8H562.671V430.72H571.471V433.76H522.671V430.72H531.471V324.8H522.671V321.76ZM655.706 384.32V372.48C655.706 352.96 654.746 340.64 652.826 335.52C650.693 329.653 647.653 326.027 643.706 324.64C641.466 323.787 638.746 323.36 635.546 323.36C632.346 323.36 629.573 323.787 627.226 324.64C624.986 325.493 623.119 326.987 621.626 329.12C620.133 331.253 618.906 333.493 617.946 335.84C617.093 338.187 616.399 341.493 615.866 345.76C615.226 351.947 614.906 361.067 614.906 373.12V384.64C614.906 397.653 615.386 406.933 616.346 412.48C617.413 417.92 618.693 421.813 620.186 424.16C623.493 429.387 628.613 432 635.546 432C643.973 432 649.413 428.48 651.866 421.44C654.426 414.293 655.706 401.92 655.706 384.32ZM635.226 435.36C617.413 435.36 604.079 430.56 595.226 420.96C586.479 411.253 582.106 397.28 582.106 379.04C582.106 360.693 586.799 346.293 596.186 335.84C605.679 325.28 619.066 320 636.346 320C653.626 320 666.639 325.013 675.386 335.04C684.239 344.96 688.666 359.093 688.666 377.44C688.666 395.787 684.186 410.027 675.226 420.16C666.373 430.293 653.039 435.36 635.226 435.36ZM789.633 324.8V433.76H767.233L712.353 330.24V430.72H721.153V433.76H699.233V430.72H708.033V324.8H699.233V321.76H743.393L785.313 402.08V324.8H776.513V321.76H798.433V324.8H789.633Z" fill="#DCFF00"/>
</svg>
