<svg width="574" height="436" viewBox="0 0 574 436" fill="none" xmlns="http://www.w3.org/2000/svg">
<path d="M-0.00035131 1.76H83.1996L84.7996 35.04H81.9197C77.973 23.52 73.3863 15.68 68.1597 11.52C63.0397 7.36 55.3597 5.28 45.1196 5.28H40.6396V57.28H47.8397C52.9597 57.28 57.2263 55.4133 60.6396 51.68C64.053 47.9467 66.3997 42.8267 67.6797 36.32H70.0797V83.68H67.3597C65.653 75.68 63.253 69.9733 60.1597 66.56C57.173 63.1467 53.0663 61.44 47.8397 61.44H40.6396V110.24H60.4797V113.76H-0.00035131V110.24H9.43965V5.28H-0.00035131V1.76ZM165.081 64.32V52.48C165.081 32.96 164.121 20.64 162.201 15.52C160.068 9.65334 157.028 6.02667 153.081 4.64C150.841 3.78667 148.121 3.36 144.921 3.36C141.721 3.36 138.948 3.78667 136.601 4.64C134.361 5.49334 132.494 6.98667 131.001 9.12C129.508 11.2533 128.281 13.4933 127.321 15.84C126.468 18.1867 125.774 21.4933 125.241 25.76C124.601 31.9467 124.281 41.0667 124.281 53.12V64.64C124.281 77.6533 124.761 86.9333 125.721 92.48C126.788 97.92 128.068 101.813 129.561 104.16C132.868 109.387 137.988 112 144.921 112C153.348 112 158.788 108.48 161.241 101.44C163.801 94.2933 165.081 81.92 165.081 64.32ZM144.601 115.36C126.788 115.36 113.454 110.56 104.601 100.96C95.8542 91.2533 91.4809 77.28 91.4809 59.04C91.4809 40.6933 96.1742 26.2933 105.561 15.84C115.054 5.28 128.441 5.72205e-06 145.721 5.72205e-06C163.001 5.72205e-06 176.014 5.01334 184.761 15.04C193.614 24.96 198.041 39.0933 198.041 57.44C198.041 75.7867 193.561 90.0267 184.601 100.16C175.748 110.293 162.414 115.36 144.601 115.36ZM268.608 3.2C252.075 3.2 243.808 19.1467 243.808 51.04V63.68C243.808 78.8267 245.995 90.72 250.368 99.36C254.742 107.893 261.195 112.16 269.728 112.16C281.462 112.16 292.235 100.747 302.048 77.92H304.928L303.808 113.6H302.048C301.408 112.427 300.822 111.627 300.288 111.2C299.755 110.667 298.955 110.4 297.888 110.4C296.928 110.4 293.088 111.253 286.368 112.96C279.648 114.56 272.822 115.36 265.888 115.36C248.502 115.36 235.008 110.667 225.408 101.28C215.915 91.8933 211.168 77.8133 211.168 59.04C211.168 40.16 216.128 25.6 226.048 15.36C236.075 5.12001 249.515 5.72205e-06 266.368 5.72205e-06C272.875 5.72205e-06 279.222 0.853338 285.408 2.56C291.702 4.16001 295.382 4.96001 296.448 4.96001C297.515 4.96001 298.315 4.74667 298.848 4.32001C299.382 3.78667 299.968 2.93334 300.608 1.76H302.368L303.648 36.48H300.768C295.968 25.7067 291.008 17.4933 285.888 11.84C280.875 6.08 275.115 3.2 268.608 3.2ZM354.375 79.68C354.375 89.4933 356.028 97.0133 359.335 102.24C362.748 107.467 368.828 110.08 377.575 110.08C386.321 110.08 393.041 107.36 397.735 101.92C402.428 96.48 404.775 88.2133 404.775 77.12V4.8H394.375V1.76H417.735V4.8H408.935V76C408.935 89.2267 406.001 99.0933 400.135 105.6C394.268 112.107 383.868 115.36 368.935 115.36C354.108 115.36 342.748 112.267 334.855 106.08C327.068 99.8933 323.175 89.28 323.175 74.24V4.8H314.375V1.76H364.775V4.8H354.375V79.68ZM470.671 112C476.004 112 480.698 110.56 484.751 107.68C488.911 104.8 490.991 100.48 490.991 94.72C490.991 88.8533 488.751 84.3733 484.271 81.28C479.898 78.1867 473.604 75.52 465.391 73.28C457.284 70.9333 451.364 68.9067 447.631 67.2C444.004 65.4933 440.538 63.2533 437.231 60.48C430.618 54.9333 427.311 46.3467 427.311 34.72C427.311 25.2267 430.671 17.0667 437.391 10.24C444.218 3.41334 453.498 5.72205e-06 465.231 5.72205e-06C470.884 5.72205e-06 476.751 0.853338 482.831 2.56C489.018 4.16001 492.858 4.96001 494.351 4.96001C495.844 4.96001 497.178 3.89334 498.351 1.76H500.111L501.231 34.08H498.671C493.551 24.8 488.164 17.3867 482.511 11.84C476.964 6.18667 470.884 3.36 464.271 3.36C457.764 3.36 452.698 4.90667 449.071 8.00001C445.444 10.9867 443.631 15.04 443.631 20.16C443.631 25.1733 445.764 29.0667 450.031 31.84C454.404 34.5067 459.738 36.6933 466.031 38.4C472.324 40.1067 476.431 41.28 478.351 41.92C480.378 42.56 482.831 43.4667 485.711 44.64C488.698 45.7067 491.098 46.88 492.911 48.16C494.831 49.3333 496.804 50.88 498.831 52.8C500.964 54.6133 502.618 56.64 503.791 58.88C506.671 64 508.111 70.08 508.111 77.12C508.111 88.64 504.484 97.92 497.231 104.96C490.084 111.893 480.644 115.36 468.911 115.36C462.831 115.36 455.844 114.56 447.951 112.96C440.164 111.36 435.844 110.56 434.991 110.56C433.498 110.56 432.058 112.16 430.671 115.36H428.431L426.831 77.28H429.551C434.244 86.56 440.218 94.6667 447.471 101.6C454.831 108.533 462.564 112 470.671 112ZM76.7997 224.32V212.48C76.7997 192.96 75.8397 180.64 73.9197 175.52C71.7863 169.653 68.7463 166.027 64.7997 164.64C62.5597 163.787 59.8397 163.36 56.6397 163.36C53.4397 163.36 50.6663 163.787 48.3197 164.64C46.0797 165.493 44.213 166.987 42.7197 169.12C41.2263 171.253 39.9997 173.493 39.0397 175.84C38.1863 178.187 37.493 181.493 36.9596 185.76C36.3196 191.947 35.9996 201.067 35.9996 213.12V224.64C35.9996 237.653 36.4797 246.933 37.4397 252.48C38.5063 257.92 39.7863 261.813 41.2797 264.16C44.5863 269.387 49.7063 272 56.6397 272C65.0663 272 70.5063 268.48 72.9597 261.44C75.5197 254.293 76.7997 241.92 76.7997 224.32ZM56.3197 275.36C38.5063 275.36 25.173 270.56 16.3196 260.96C7.57298 251.253 3.19965 237.28 3.19965 219.04C3.19965 200.693 7.89298 186.293 17.2796 175.84C26.773 165.28 40.1597 160 57.4397 160C74.7197 160 87.733 165.013 96.4797 175.04C105.333 184.96 109.76 199.093 109.76 217.44C109.76 235.787 105.28 250.027 96.3197 260.16C87.4663 270.293 74.133 275.36 56.3197 275.36ZM210.727 164.8V273.76H188.327L133.447 170.24V270.72H142.247V273.76H120.327V270.72H129.127V164.8H120.327V161.76H164.487L206.407 242.08V164.8H197.607V161.76H219.527V164.8H210.727ZM354.025 161.76L355.625 201.92H352.585C347.891 187.733 343.731 178.08 340.105 172.96C336.478 167.733 331.251 165.12 324.425 165.12H322.505V270.4H336.105V273.76H277.705V270.4H291.305V165.12H289.225C282.398 165.12 277.118 167.84 273.385 173.28C269.651 178.613 265.545 188.16 261.065 201.92H258.025L259.625 161.76H354.025ZM364.843 161.76H414.763V164.8H405.483V214.4H437.323V164.8H427.883V161.76H477.963V164.8H468.523V270.72H477.963V273.76H427.883V270.72H437.323V218.56H405.483V270.72H414.763V273.76H364.843V270.72H374.283V164.8H364.843V161.76ZM484.687 161.76H567.887L569.487 193.44H566.607C562.127 182.667 557.434 175.307 552.527 171.36C547.62 167.307 540.42 165.28 530.927 165.28H525.327V214.72H530.767C535.78 214.72 539.994 212.853 543.407 209.12C546.82 205.28 549.22 200.16 550.607 193.76H553.007V241.12H550.287C548.367 233.12 545.754 227.413 542.447 224C539.247 220.587 534.82 218.88 529.167 218.88H525.327V270.24H531.407C541.22 270.24 549.54 267.307 556.367 261.44C563.3 255.573 568.047 248.053 570.607 238.88H573.807L572.527 273.76H484.687V270.24H494.127V165.28H484.687V161.76ZM59.0397 432.16C64.2663 432.16 67.573 431.2 68.9597 429.28C70.453 427.36 71.1997 424.107 71.1997 419.52V388.48H60.9597V384.96H107.04V388.48H100.8V433.6H98.3997C96.4797 430.933 93.7597 429.6 90.2397 429.6C88.7463 429.6 84.2663 430.56 76.7997 432.48C69.4397 434.4 63.1463 435.36 57.9197 435.36C40.533 435.36 27.0397 430.667 17.4397 421.28C7.94632 411.893 3.19965 397.813 3.19965 379.04C3.19965 360.16 8.15965 345.6 18.0796 335.36C28.1063 325.12 41.5463 320 58.3996 320C64.9063 320 71.413 320.853 77.9197 322.56C84.533 324.16 88.373 324.96 89.4397 324.96C90.5063 324.96 91.3063 324.747 91.8397 324.32C92.373 323.787 92.9597 322.933 93.5996 321.76H95.3597L96.6396 356.48H93.7597C88.533 346.133 83.253 338.027 77.9197 332.16C72.693 326.187 66.8263 323.2 60.3197 323.2C43.9997 323.2 35.8396 339.147 35.8396 371.04V383.68C35.8396 399.68 37.813 411.787 41.7596 420C45.813 428.107 51.573 432.16 59.0397 432.16ZM190.393 384.32V372.48C190.393 352.96 189.433 340.64 187.513 335.52C185.38 329.653 182.34 326.027 178.393 324.64C176.153 323.787 173.433 323.36 170.233 323.36C167.033 323.36 164.26 323.787 161.913 324.64C159.673 325.493 157.807 326.987 156.313 329.12C154.82 331.253 153.593 333.493 152.633 335.84C151.78 338.187 151.087 341.493 150.553 345.76C149.913 351.947 149.593 361.067 149.593 373.12V384.64C149.593 397.653 150.073 406.933 151.033 412.48C152.1 417.92 153.38 421.813 154.873 424.16C158.18 429.387 163.3 432 170.233 432C178.66 432 184.1 428.48 186.553 421.44C189.113 414.293 190.393 401.92 190.393 384.32ZM169.913 435.36C152.1 435.36 138.767 430.56 129.913 420.96C121.167 411.253 116.793 397.28 116.793 379.04C116.793 360.693 121.487 346.293 130.873 335.84C140.367 325.28 153.753 320 171.033 320C188.313 320 201.327 325.013 210.073 335.04C218.927 344.96 223.353 359.093 223.353 377.44C223.353 395.787 218.873 410.027 209.913 420.16C201.06 430.293 187.727 435.36 169.913 435.36ZM310.081 384.32V372.48C310.081 352.96 309.121 340.64 307.201 335.52C305.068 329.653 302.028 326.027 298.081 324.64C295.841 323.787 293.121 323.36 289.921 323.36C286.721 323.36 283.948 323.787 281.601 324.64C279.361 325.493 277.494 326.987 276.001 329.12C274.508 331.253 273.281 333.493 272.321 335.84C271.468 338.187 270.774 341.493 270.241 345.76C269.601 351.947 269.281 361.067 269.281 373.12V384.64C269.281 397.653 269.761 406.933 270.721 412.48C271.788 417.92 273.068 421.813 274.561 424.16C277.868 429.387 282.988 432 289.921 432C298.348 432 303.788 428.48 306.241 421.44C308.801 414.293 310.081 401.92 310.081 384.32ZM289.601 435.36C271.788 435.36 258.454 430.56 249.601 420.96C240.854 411.253 236.481 397.28 236.481 379.04C236.481 360.693 241.174 346.293 250.561 335.84C260.054 325.28 273.441 320 290.721 320C308.001 320 321.014 325.013 329.761 335.04C338.614 344.96 343.041 359.093 343.041 377.44C343.041 395.787 338.561 410.027 329.601 420.16C320.748 430.293 307.414 435.36 289.601 435.36ZM463.848 375.84C463.848 397.813 457.662 413.12 445.288 421.76C433.875 429.76 418.195 433.76 398.248 433.76H352.968V430.72H363.528V324.8H352.968V321.76H402.408C422.888 321.76 438.248 325.973 448.488 334.4C458.728 342.72 463.848 356.533 463.848 375.84ZM394.728 430.72H400.808C411.582 430.72 419.262 426.933 423.848 419.36C428.542 411.68 430.888 398.88 430.888 380.96V371.68C430.888 347.68 426.302 333.227 417.128 328.32C412.755 325.973 406.568 324.8 398.568 324.8H394.728V430.72Z" fill="#DCFF00"/>
</svg>
