<?xml version="1.0" encoding="UTF-8"?>
<svg id="Ebene_1" xmlns="http://www.w3.org/2000/svg" version="1.1" viewBox="0 0 95 110">
  <!-- Generator: Adobe Illustrator 29.8.3, SVG Export Plug-In . SVG Version: 2.1.1 Build 3)  -->
  <defs>
    <style>
      .st0 {
        fill: #f0eee9;
      }
    </style>
  </defs>
  <path class="st0" d="M63.13,101.54c-.86,0-1.57-.71-1.57-1.57,0-16.03,8.55-26.03,11.34-28.87l-17.51-38.4-17.49,38.4c2.78,2.84,11.34,12.85,11.34,28.87,0,.86-.71,1.57-1.57,1.57s-1.57-.71-1.57-1.57c0-17.34-11.01-27.25-11.13-27.34-.52-.46-.67-1.19-.39-1.83l19.36-42.53c.26-.55.81-.92,1.42-.92s1.17.35,1.42.92l19.39,42.53c.28.62.13,1.37-.39,1.83-.11.09-11.13,10.07-11.13,27.34,0,.86-.69,1.57-1.57,1.57h.01Z"/>
  <path class="st0" d="M55.39,72.32c-.69,0-1.25-.57-1.25-1.25V28.93c0-.69.57-1.25,1.25-1.25s1.25.57,1.25,1.25v42.14c0,.69-.57,1.25-1.25,1.25Z"/>
  <path class="st0" d="M60.32,71.07c0,2.72-2.21,4.93-4.93,4.93s-4.93-2.21-4.93-4.93,2.21-4.93,4.93-4.93,4.93,2.21,4.93,4.93Z"/>
  <path class="st0" d="M8.16,50.77h-.01c-.69,0-1.25-.57-1.24-1.26,0-.35.16-8.83,7.58-15.51,6.98-6.28,17.84-8.75,32.28-7.32,15.84,1.55,28.11-1.02,35.47-7.47,6.11-5.35,7.23-11.75,7.35-15.1.02-.69.58-1.24,1.3-1.2.69.02,1.22.6,1.2,1.3-.14,3.74-1.38,10.93-8.2,16.9-7.9,6.9-20.82,9.7-37.36,8.07-13.67-1.34-23.88.89-30.32,6.66-6.62,5.92-6.79,13.62-6.79,13.71,0,.68-.57,1.24-1.25,1.24h0Z"/>
  <path class="st0" d="M95,0h-11.66v11.66h11.66V0Z"/>
  <path class="st0" d="M16.32,41.37H0v16.33h16.32v-16.33Z"/>
  <path class="st0" d="M84.63,48.17s-.12-.01-.16-.05L28.78,9.64c-.13-.09-.16-.27-.07-.4.09-.13.27-.16.4-.07l55.68,38.48c.13.09.16.27.07.4-.06.08-.14.13-.24.13h0Z"/>
  <path class="st0" d="M87.69,47.89c0,1.68-1.38,3.06-3.06,3.06s-3.06-1.37-3.06-3.06,1.37-3.06,3.06-3.06,3.06,1.37,3.06,3.06Z"/>
  <path class="st0" d="M32.75,9.53c0,1.68-1.37,3.06-3.06,3.06s-3.06-1.37-3.06-3.06,1.37-3.06,3.06-3.06,3.06,1.37,3.06,3.06Z"/>
  <path class="st0" d="M75.94,99.99h-41v9.13h41v-9.13Z"/>
</svg>