<?xml version="1.0" encoding="UTF-8"?>
<svg id="Ebene_1" xmlns="http://www.w3.org/2000/svg" version="1.1" viewBox="0 0 135 106">
  <!-- Generator: Adobe Illustrator 29.8.3, SVG Export Plug-In . SVG Version: 2.1.1 Build 3)  -->
  <defs>
    <style>
      .st0 {
        fill: #f0eee9;
      }
    </style>
  </defs>
  <path class="st0" d="M0,2.94C.95,1.39,2.07.05,4.06.03c38.51.19,77.09-.33,115.54.26,1.01.19,2.49,2.17,2.49,3.04v19.6h-3.95V3.98H3.95v67.9h69.99c-.17,1.24.42,2.96-.39,3.95H3.95v8.28l.39.39h73.42l.39-.39v-45.52c0-1.03,2.92-3.02,4.08-2.76h23.29v-5.39c0-1.52,2.72-2.89,4.08-3.02,6.72-.66,14.49.49,21.31,0,2.24.27,3.61,1.56,3.83,3.8v42.64c-.04,1.85-1.97,4.08-3.83,4.08h-8.82v15.4c0,.09-.61,1.43-.74,1.63-.84,1.34-2.05,1.79-3.6,1.92-11.35.97-24.05-.74-35.53,0-1.27.13-4.08-1.88-4.08-3.02v-5.39h-4.47v12.89h8.69c-.17,1.24.42,2.96-.39,3.95h-41.98v-3.95h8.43v-12.89H3.82c-1.53,0-3.31-2.08-3.82-3.43V2.94ZM130.78,31.36h-21.32v4.47h21.32v-4.47ZM105.53,39.77h-23.42v44.74h36.05v-6.58h-8.82c-1.2,0-3.82-2.18-3.82-3.3v-34.87ZM130.78,39.77h-21.32v25.53h21.32v-25.53ZM130.78,69.52h-21.32v4.08l.39.39h20.92v-4.47h.01ZM69.73,88.46h-17.36v12.5l.39.39h16.58l.39-.39v-12.5ZM118.16,88.46h-36.05v4.47h36.05v-4.47Z"/>
  <path class="st0" d="M18.95,8.46v3.95h-6.58v6.32h-3.95v-10.26h10.52Z"/>
  <path class="st0" d="M67.8,63.23l3.93.22-.13,3.85-4.11-.13c-.1-.77-.45-3.67.32-3.93h-.01Z"/>
  <path class="st0" d="M54.73,63.2v4.21h-3.82c-.65-.95-.64-3.3,0-4.21h3.82Z"/>
  <path class="st0" d="M63.16,63.2v4.21h-3.82c-.65-.95-.64-3.3,0-4.21h3.82Z"/>
  <path class="st0" d="M92.89,46.09h-4.47v4.21h-3.95v-8.15h8.02c.82.98.22,2.7.39,3.95Z"/>
  <path class="st0" d="M120.25,42.14v3.95h-4.47v4.22h-3.95v-8.17h8.41Z"/>
  <path class="st0" d="M18.95,8.46v3.95h-6.58v6.32h-3.95v-10.26h10.52Z"/>
  <path class="st0" d="M67.8,63.23l3.93.22-.13,3.85-4.11-.13c-.1-.77-.45-3.67.32-3.93h-.01Z"/>
  <path class="st0" d="M54.73,63.2v4.21h-3.82c-.65-.95-.64-3.3,0-4.21h3.82Z"/>
  <path class="st0" d="M63.16,63.2v4.21h-3.82c-.65-.95-.64-3.3,0-4.21h3.82Z"/>
  <path class="st0" d="M120.25,42.14v3.95h-4.47v4.22h-3.95v-8.17h8.41Z"/>
  <path class="st0" d="M92.89,46.09h-4.47v4.21h-3.95v-8.15h8.02c.82.98.22,2.7.39,3.95Z"/>
</svg>