<?xml version="1.0" encoding="UTF-8"?>
<svg id="Ebene_1" xmlns="http://www.w3.org/2000/svg" version="1.1" viewBox="0 0 108 108">
  <!-- Generator: Adobe Illustrator 29.8.3, SVG Export Plug-In . SVG Version: 2.1.1 Build 3)  -->
  <defs>
    <style>
      .st0 {
        fill: #626262;
      }

      .st1 {
        fill: #f0eee9;
      }
    </style>
  </defs>
  <path class="st1" d="M38.41,72.1c.87-.19,1.39.02,1.95.64,1.09,1.19,3.78,5.54,3.96,7.07.96,8.88-11.96,8.71-10.78-.2.19-1.37,2.94-5.78,3.93-6.87.28-.3.51-.55.94-.64ZM39.13,77.23l-.47.14c-.4,1.03-1.44,1.77-1.57,2.89-.43,3.87,4.66,3.28,3.5-.57-.22-.75-1.32-1.58-1.47-2.46h.01Z"/>
  <path class="st1" d="M93.57,106.73c-.14.67-1.19,1.37-1.9,1.25H6.86c-3.72-.29-6.42-2.94-6.86-6.63L.2,5.5C1.5.15,8.3-1.87,12.28,2.03c.47.46.92,1.56,1.33,1.6l93.24.08,1.01,1.01.12,90.55c.2.61-.74,1.9-1.25,1.9h-13.15v9.56ZM10.8,93.57V6.42c0-1.32-2.17-2.8-3.49-2.83-1.42-.04-3.71,1.35-3.71,2.83v88.04c.74-.13,1.85-.9,2.59-.9h4.61ZM104.36,7.2H14.41v86.36h89.96V7.2h-.01ZM89.96,97.17H6.41c-1.47,0-2.87,2.29-2.83,3.71.04,1.33,1.46,3.49,2.83,3.49h83.55v-7.2Z"/>
  <path class="st1" d="M40.66,46.85c3.42-.47,6.83,1.52,7.81,4.89.97,3.37-.83,5.86-1.19,9.05l9.75,9.83c.78.76.76,1.97,0,2.7-4.24,3.41-8.27,9.34-12.49,12.49-.7.53-1.14.75-2.04.46l-16.75-16.54c-.8-.84-.73-1.7-.11-2.59,1.46-2.12,5.84-4.99,6.94-7,2.36-4.3,1.1-12.35,8.08-13.29ZM44.31,57.81c.35-2.45,2.04-5.09-.68-6.85-2.72-1.76-5.57.76-5.61,3.7,2.62-2.25,4.31,1.94,6.3,3.15h-.01ZM41.38,67.93l1.58-5.95-3.46-3.48-9.8,9.96,13.56,13.4,9.8-9.96-6.85-6.89c-.47-.07-.27.07-.36.3-.39,1.03-.56,2.42-.88,3.51l-3.59-.9Z"/>
  <path class="st1" d="M59.15,40.93l-3.34.89-2.87-7.6-8.86.07-2.72,7.53-3.35-.89,9.21-25.97c.69-.77,2.01-.77,2.72,0l9.2,25.97ZM45.43,30.6h6.3l-3.25-8.78-3.04,8.78Z"/>
  <path class="st1" d="M62.46,46.84l15.03-.06c.94.02,1.66.76,1.69,1.69-.33,4.65.42,9.84,0,14.41-.11,1.14-.47,1.77-1.7,1.91-4.65-.33-9.84.42-14.41,0-1.14-.11-1.77-.47-1.91-1.7-.53-4.52.41-10.01,0-14.63.02-.78.54-1.43,1.29-1.64v.02ZM75.58,50.39h-10.79v10.79h10.79v-10.79Z"/>
  <path class="st1" d="M84.05,46.84l15.03-.06c.94.02,1.66.76,1.68,1.69-.33,4.65.42,9.84,0,14.41-.11,1.14-.47,1.77-1.7,1.91-4.65-.33-9.84.42-14.41,0-1.14-.11-1.77-.47-1.91-1.7-.53-4.52.41-10.01,0-14.63.02-.78.54-1.43,1.29-1.64v.02ZM97.16,50.39h-10.79v10.79h10.79v-10.79Z"/>
  <path class="st1" d="M34.2,37.8v3.59c-1.42.05-2.74-.6-3.75-1.54-4.8,3.42-13.13,1.43-12.43-5.51.23-2.34,2.81-5.54,5.25-5.54h5.51c1.26-5.78-6.35-7.79-7.2-1.8h-3.59c.11-5.62,5.83-8.96,10.83-6.21,5.63,3.1,2.8,10.52,3.58,15.53.14.91.87,1.49,1.79,1.47h0ZM28.79,32.4h-5.06c-.83,0-2.05,1.52-2.13,2.39-.28,2.9,3.19,3.53,5.35,2.86.63-.2,1.84-1.37,1.84-1.99v-3.27h0Z"/>
  <path class="st1" d="M100.75,18.01h-37.78v3.59h37.78v-3.59Z"/>
  <path class="st1" d="M100.76,25.2h-25.19v3.59h25.19v-3.59Z"/>
  <path class="st1" d="M82.76,32.4h-19.79v3.59h19.79v-3.59Z"/>
  <path class="st1" d="M79.17,68.38h-10.79v3.59h10.79v-3.59Z"/>
  <path class="st1" d="M100.75,68.38h-10.79v3.59h10.79v-3.59Z"/>
  <path class="st1" d="M79.17,75.57h-10.79v3.59h10.79v-3.59Z"/>
  <path class="st1" d="M100.75,75.57h-10.79v3.59h10.79v-3.59Z"/>
  <path class="st1" d="M79.17,82.77h-10.79v3.59h10.79v-3.59Z"/>
  <path class="st1" d="M100.75,82.77h-10.79v3.59h10.79v-3.59Z"/>
  <path class="st1" d="M71.97,25.2h-9v3.59h9v-3.59Z"/>
  <path class="st1" d="M64.78,68.38h-3.59v3.59h3.59v-3.59Z"/>
  <path class="st1" d="M86.36,68.38h-3.59v3.59h3.59v-3.59Z"/>
  <path class="st1" d="M64.78,75.57h-3.59v3.59h3.59v-3.59Z"/>
  <path class="st1" d="M86.36,75.57h-3.59v3.59h3.59v-3.59Z"/>
  <path class="st1" d="M64.78,82.77h-3.59v3.59h3.59v-3.59Z"/>
  <path class="st1" d="M86.36,82.77h-3.59v3.59h3.59v-3.59Z"/>
  <path class="st0" d="M39.14,77.23c.15.88,1.25,1.71,1.47,2.46,1.16,3.84-3.93,4.45-3.5.57.13-1.12,1.16-1.86,1.57-2.89l.47-.14h-.01Z"/>
</svg>