<?xml version="1.0" encoding="UTF-8"?>
<svg id="Ebene_1" xmlns="http://www.w3.org/2000/svg" version="1.1" viewBox="0 0 82 106">
  <!-- Generator: Adobe Illustrator 29.8.3, SVG Export Plug-In . SVG Version: 2.1.1 Build 3)  -->
  <defs>
    <style>
      .st0 {
        fill: #f0eee9;
      }
    </style>
  </defs>
  <path class="st0" d="M50.36,74.69c.49,1.03,2.12,1.35,2.09,2.6l-3.14,13.96c.79,0,1.42.43,1.63,1.2.91,3.32.63,7.84,1.53,11.28.1.89-.77,1.51-1.58,1.57-5.97-.38-12.56.5-18.46,0-1.65-.13-1.41-.92-1.35-2.42.05-1.41,1.01-9.92,1.4-10.75.18-.36.68-.43.71-.6l-3.34-14.23c.03-.92,1.64-1.8,2.07-2.61-13-3.11-23.21-14.69-25.3-27.84C1.16,12.46,44.28-7.78,67.13,18.41c16.85,19.32,7.52,49.36-16.76,56.27ZM42.75,55.68c.72.69.85,1.68.54,2.6-.17.48-.79,1.01-.83,1.24-.24,1.25,1.68,6.5,2.35,7.84.44.87,2.71,4.61,3.35,5.05.39.27,3.49-.87,4.14-1.12,31.44-12.07,25.36-58.32-7.91-61.99C11.68,5.69-4.59,48.69,22.55,67.61c3.33,2.33,7.49,4.26,11.47,4.89,2.05-2.58,3.85-5.69,4.77-8.88.28-.99.84-3.07.8-4.02-.02-.5-.8-.76-.93-1.59-.43-2.6,2.36-4,4.11-2.33h-.01ZM36.22,91.24c1.22-.07,2.45.05,3.67,0v-5.66c-4.34-1.13-4.43-7.3-.21-8.69,5.77-1.9,8.75,6.69,2.93,8.69v5.66h3.87l3.04-13.69c-3.88-3.22-6.7-7.61-8.5-12.31-1.22,3.53-3.13,6.9-5.56,9.74-.53.61-2.65,2.41-2.72,2.95l3.15,13.51c.15,0,.25-.21.31-.21h.01ZM40.66,79.33c-2.28.5-1.67,4.45.96,3.91,2.34-.48,1.89-4.53-.96-3.91ZM48.47,93.97h-13.6l-1.07,8.79,15.73-.21-1.06-8.58Z"/>
  <path class="st0" d="M71.48,14.56c.49-.09.84.06,1.22.38.25.22,2.04,2.72,2.18,3.06.59,1.38-.8,2.53-2.09,1.44-.31-.27-2.06-2.52-2.18-2.85-.32-.78-.03-1.89.88-2.06h-.01Z"/>
  <path class="st0" d="M18.42,6.82c1.05-.11,1.88,1.01,1.22,2.04-.23.35-2.67,2.26-3.03,2.41-1.46.6-2.67-.71-1.77-1.97.21-.29,3.3-2.43,3.58-2.47Z"/>
  <path class="st0" d="M3.78,51.05c.51.49,1.74,4.39,1.11,5.09-1.81,1.98-3.38-2.8-3.38-4s1.5-1.82,2.26-1.09Z"/>
  <path class="st0" d="M65.61,70.52c1.32-.28,2.22.92,1.41,2.06-.25.35-2.87,2.22-3.3,2.37-1.19.38-2.25-.81-1.5-1.93.27-.39,2.96-2.4,3.4-2.49h-.01Z"/>
  <path class="st0" d="M8.17,61.94c.73-.03,2.92,2.85,3.12,3.5.48,1.57-.97,2.46-2.11,1.47-.31-.27-2.23-3.01-2.32-3.35-.22-.89.47-1.47,1.31-1.62Z"/>
  <path class="st0" d="M50.22,3.56c-.89-.89-.33-2.31,1.09-2.25.44.01,3.15.85,3.54,1.09,1.33.8.9,2.54-.58,2.49-.41-.01-3.82-1.11-4.04-1.33h-.01Z"/>
  <path class="st0" d="M77.33,25.47c.97-.3,1.55.05,1.96.89.21.43,1.02,2.99,1.03,3.39.06,1.45-1.84,1.84-2.47.78-.48-.8-1.83-4.65-.53-5.06h.01Z"/>
  <path class="st0" d="M3.14,26.3c1.03-.29,1.8.5,1.72,1.51-.02.31-1.11,3.57-1.27,3.78-.5.66-1.82.68-2.18-.08-.39-.81.77-4.93,1.72-5.2Z"/>
  <path class="st0" d="M29.57,1.57c1.51-.17,2.07,1.54,1.09,2.37-.16.14-3.64,1.29-3.91,1.31-1.25.07-1.93-1.39-1.03-2.25.25-.24,3.42-1.37,3.84-1.42Z"/>
  <path class="st0" d="M66.24,10.49c-.26.28-1.03.49-1.41.38-.32-.08-2.48-1.69-2.83-2.01-.79-.75-1.04-1.14-.48-2.24.44-.27.98-.34,1.46-.21.19.04,2.88,1.95,3.07,2.17.46.5.66,1.4.18,1.92h0Z"/>
  <path class="st0" d="M75.26,61.53c.33.33.31,1.2.17,1.64-.05.17-1.83,2.65-2,2.81-1.15,1.11-2.78.3-2.39-1.11.16-.56,2.35-3.52,2.92-3.61.33-.05,1.07.03,1.3.26h.01Z"/>
  <path class="st0" d="M6.6,20.35c-.95-.96,1.18-3.84,1.96-4.55,1.06-.97,2.49-.08,2.31,1.04-.1.65-2.34,3.67-2.97,3.77-.33.05-1.07-.03-1.3-.26Z"/>
  <path class="st0" d="M78.81,49.99c3.26-.98.95,5.1.06,5.5-.6.27-1.49.12-1.78-.52-.35-.78.87-4.73,1.71-4.99Z"/>
  <path class="st0" d="M20.35,75.26c-.98.98-3.54-1.02-4.34-1.74-1.27-1.15-.54-2.73,1.09-2.36.49.11,3.33,2.18,3.47,2.63.11.37.05,1.2-.22,1.47Z"/>
  <path class="st0" d="M2.31,44.03c-.55.58-1.94.58-2.21-.3-.12-.42-.13-3.86-.03-4.35.22-1.16,2.15-1.32,2.46.04.15.65.16,4.23-.22,4.62h0Z"/>
  <path class="st0" d="M37.85,2.32c-.47-.45-.54-1.45-.05-1.93.43-.42,4.01-.45,4.71-.31,1.16.22,1.32,2.15-.04,2.46-.65.15-4.23.16-4.62-.22h.01Z"/>
  <path class="st0" d="M80.07,37.63c.68-.2,1.58-.12,1.73.7.11.59.11,3.59,0,4.19-.25,1.33-2.26,1.3-2.49-.22-.16-1-.31-4.34.77-4.65h-.01Z"/>
  <path class="st0" d="M31.25,38.9c12.22-.93,23.18,6.04,31.17,14.6.88.95,2.95,3.05,3.55,4,.5.78.46,1.91-.51,2.21-.89.28-2.81-1.08-3.79-1.47-12.85-5.23-27.12-5.5-40.13-.75-1.22.45-4.32,2.23-5.34,1.78-.64-.29-.8-1.17-.54-1.79l9.55-17.08c.83-.93,4.68-1.4,6.04-1.51ZM59.58,54.56c-7.94-8.89-20.35-15.43-32.51-12.22l-7.11,12.85c12.78-4.88,26.65-4.78,39.61-.63h.01Z"/>
  <path class="st0" d="M40.04,13.33l19.65,30.97c.19,4.56-3.76.08-5.23-1.05-4.57-3.52-15.42-11.35-21.16-11.12-1.53.06-3.78,2.04-4.32-.3l8.86-18c.47-.89,1.38-1,2.21-.5h-.01ZM52.88,38.63l-13.83-21.58-6.08,12.58c4.65,0,8.9,2.24,12.85,4.45l7.06,4.57h0Z"/>
</svg>