<?xml version="1.0" encoding="UTF-8"?>
<svg id="Ebene_1" xmlns="http://www.w3.org/2000/svg" version="1.1" viewBox="0 0 108 108">
  <!-- Generator: Adobe Illustrator 29.8.3, SVG Export Plug-In . SVG Version: 2.1.1 Build 3)  -->
  <defs>
    <style>
      .st0 {
        fill: #f0eee9;
      }
    </style>
  </defs>
  <path class="st0" d="M20.64,4.86c.25-1.64,1.9-3.55,3.41-4.23,2.16-.97,8.77-.4,11.55-.46C47.61-.06,59.61-.06,71.61.17c3.21.06,6.94-.29,10.06-.01,2.01.18,3.83,1.67,4.58,3.5,1.24,3.06.13,7.18.54,10.38.09.7.58.95.67,1.73.25,2.11.25,8.37,0,10.49-.1.81-.59,1.05-.67,1.95-.2,2.1,0,3.48.57,5.35.24.81.23,6.08.1,7.12-.08.63-.59,1.21-.59,1.3s.52.67.59,1.3c.28,2.3.19,6.19-.67,8.29v15.4l6.24-3.93c-.42-3.22-.16-5.86,2.39-8.08,4.44-3.84,11.81-1.19,12.35,4.69.69,7.52-7.55,11.11-12.96,6.26l-13.41,8.81c1.49,2.46,1.18,5.04-.05,7.53l12.22,7.77h.44c3.26-5.74,12.92-3.91,13.73,2.62,1.4,11.35-15.23,11.92-14.93.73l-6-3.7v12.55c0,1.78-2.39,4.6-4.18,4.98-18.44.85-37.03.14-55.53.37-2.31-.18-4.46-.95-5.66-3.07-.14-.24-.78-1.72-.78-1.85v-44.21h-10.81c-5.95,0-9.18-4.71-9.51-10.14C-.12,40.59-.12,29.56.35,21.86c.23-3.8,1.4-6.98,4.88-8.87.49-.27,2.22-1.05,2.65-1.05h12.45l.33-.33c.23-2.07-.3-4.78,0-6.76h-.03ZM23.91,5.3c-.35,1.74.27,4.56,0,6.45h30.23c4.37,0,8.7,4.98,8.63,9.26-.47,9.15.59,18.87,0,27.96-.29,4.44-3.74,9.49-8.63,9.49h-30.23v43.77c0,1.12,2.31,2.24,3.37,2.08,18.09-.2,36.26.37,54.31-.29.92-.32,1.78-1.25,1.9-2.25l.04-14.18-4.32-2.91c-1.11.21-2.05.92-3.22,1.06-11.22,1.26-11.65-15.6-.43-14.85,1.16.08,3.3,1.12,3.65,1.06.38-.06,4.17-2.67,4.26-2.96l.05-62.84c.09-1.12-1.02-2.54-2.1-2.7-1.66-.27-8.56-.25-10.26-.03-.88.11-2.5,1.92-3.39,2.5-.32.2-.58.49-.97.56-8.92-.14-17.95.33-26.82-.24l-3.56-2.77c-3.24.18-7.07-.39-10.23-.06-.95.1-2.09.91-2.28,1.87h0ZM59.28,33.13v-13.42c0-1.61-3.15-4.55-4.92-4.47H8.93c-2.68.23-5.06,2.63-5.13,5.33.63,9.45-.81,19.93,0,29.27.06.77.38,1.33.44,2.06l.66-.33,20.83-20.87c.45-.32,1.15-.3,1.64-.09.64.28,3.74,4.03,4.04,4.03l12.34-12.34c1.2-.92,1.71-1,2.94-.1,3.75,2.69,7.81,7.07,11.46,10.15.15.13,1.06.81,1.1.76h.01ZM45.41,25.75l-11.22,11.39,17.54,17.62c3.32,1.01,6.64-1,7.5-4.32v-12.56l-13.82-12.12ZM46.84,54.96l-20.2-20.31L6.89,54.42c0,.25,3.16.75,3.59.77,4.04.28,8.2-.21,12.22-.24,8.04-.05,16.09.06,24.13,0h.01ZM99.17,56.56c-4.13.76-4.03,7.75.38,8.24,6.85.78,6.52-9.52-.38-8.24ZM73.64,74.24c-1.47.27-2.83,1.88-3,3.34-.7,6.14,7.61,6.53,8.28,1.52.44-3.32-2.04-5.43-5.28-4.84h0ZM99.17,89.95c-4.11.76-4.08,7.74.38,8.24,6.84.78,6.52-9.52-.38-8.24Z"/>
  <path class="st0" d="M46.9,96.97c.35-.35,1.05-.67,1.55-.73,2.02-.24,8.48-.25,10.47.03,2.94.42,3.19,4.85-.25,5.38-1.9.29-8.06.29-9.97.04-2.26-.3-3.49-3.02-1.79-4.71Z"/>
  <path class="st0" d="M14.25,19.66c7.82-.72,10,10.66,2.62,12.89-9.43,2.86-12.12-12.02-2.62-12.89ZM14.03,23.15c-3.72.77-2.84,7.17,1.64,6.23,3.72-.77,2.84-7.17-1.64-6.23Z"/>
</svg>