<svg width="28" height="28" viewBox="0 0 28 28" fill="none" xmlns="http://www.w3.org/2000/svg">
<path d="M18.4118 1.5H9.58823C5.12123 1.5 1.5 5.12123 1.5 9.58823V18.4118C1.5 22.8788 5.12123 26.5 9.58823 26.5H18.4118C22.8788 26.5 26.5 22.8788 26.5 18.4118V9.58823C26.5 5.12123 22.8788 1.5 18.4118 1.5Z" stroke="#DCDCC2" stroke-width="3" stroke-linecap="round" stroke-linejoin="round"/>
<path d="M14.0002 19.3027C16.9289 19.3027 19.3031 16.9285 19.3031 13.9997C19.3031 11.071 16.9289 8.69678 14.0002 8.69678C11.0715 8.69678 8.69727 11.071 8.69727 13.9997C8.69727 16.9285 11.0715 19.3027 14.0002 19.3027Z" stroke="#DCDCC2" stroke-width="3" stroke-linecap="round" stroke-linejoin="round"/>
<path d="M21.1968 8.3175C22.0334 8.3175 22.7115 7.63934 22.7115 6.80279C22.7115 5.96624 22.0334 5.28809 21.1968 5.28809C20.3603 5.28809 19.6821 5.96624 19.6821 6.80279C19.6821 7.63934 20.3603 8.3175 21.1968 8.3175Z" fill="#DCDCC2"/>
</svg>
