<svg width="27" height="27" viewBox="0 0 27 27" fill="none" xmlns="http://www.w3.org/2000/svg">
<path fill-rule="evenodd" clip-rule="evenodd" d="M0 2.25562C0 1.6574 0.237648 1.08367 0.660659 0.660659C1.08367 0.237648 1.6574 0 2.25562 0H24.7443C25.0406 0 25.3339 0.0583472 25.6075 0.171703C25.8812 0.285059 26.1298 0.451203 26.3393 0.660659C26.5487 0.870115 26.7149 1.11877 26.8283 1.39243C26.9416 1.6661 27 1.95941 27 2.25562V24.7443C27 25.0406 26.9416 25.3339 26.8283 25.6075C26.7149 25.8812 26.5487 26.1298 26.3393 26.3393C26.1298 26.5487 25.8812 26.7149 25.6075 26.8283C25.3339 26.9416 25.0406 27 24.7443 27H2.25562C1.6574 27 1.08367 26.7623 0.660659 26.3393C0.237648 25.9163 0 25.3426 0 24.7443V2.25562ZM10.6875 10.2937H14.3438V12.1309C14.8708 11.0744 16.2214 10.125 18.2503 10.125C22.1394 10.125 23.0625 12.2276 23.0625 16.0857V23.2312H19.125V16.9644C19.125 14.7673 18.598 13.5281 17.2575 13.5281C15.3984 13.5281 14.625 14.8641 14.625 16.9644V23.2312H10.6875V10.2937ZM3.93749 23.0625H7.87499V10.125H3.93749V23.0625ZM8.43749 5.90624C8.43749 6.23865 8.37201 6.5678 8.24481 6.87491C8.1176 7.18201 7.93114 7.46105 7.6961 7.6961C7.46105 7.93114 7.18201 8.1176 6.87491 8.24481C6.5678 8.37201 6.23865 8.43749 5.90624 8.43749C5.57384 8.43749 5.24468 8.37201 4.93758 8.24481C4.63047 8.1176 4.35143 7.93114 4.11637 7.6961C3.88133 7.46105 3.69489 7.18201 3.56767 6.87491C3.44047 6.5678 3.37499 6.23865 3.37499 5.90624C3.37499 5.23491 3.64168 4.59108 4.11637 4.11637C4.59108 3.64168 5.23491 3.37499 5.90624 3.37499C6.57757 3.37499 7.2214 3.64168 7.6961 4.11637C8.1708 4.59108 8.43749 5.23491 8.43749 5.90624Z" fill="#DCDCC2"/>
</svg>
