<?xml version="1.0" encoding="UTF-8"?>
<svg id="Ebene_1" xmlns="http://www.w3.org/2000/svg" version="1.1" viewBox="0 0 143 107">
  <!-- Generator: Adobe Illustrator 29.8.3, SVG Export Plug-In . SVG Version: 2.1.1 Build 3)  -->
  <defs>
    <style>
      .st0 {
        fill: #f0eee9;
      }
    </style>
  </defs>
  <path class="st0" d="M126.21,12.28c2.66-1.96,4.94-6.18,8.75-5.61,1.72.25,7.07,5.52,7.4,7.17.4,1.98-.24,3.24-1.41,4.73-4.01,5.09-10.55,9.61-14.68,14.81l-.11,51.9c-.08,3.14-1.9,6.57-5.01,7.56-.42.13-2.45.58-2.72.58h-40.91v9.77l.5.5h5.63c.55,0,1.2,1.75.67,2.32-.18.29-.42.5-.74.59-1.08.32-5.97.19-7.55.21-11.02.12-22.09-.34-33.11-.15-1.96-.37-1.06-2.97-.34-2.97h5.8v-10.27H7.45c-.33,0-2.45-.56-2.91-.74-2.54-.94-4.12-3.46-4.54-6.06V6.79C.29,3.4,2.93.2,6.45,0h113.3c2.57.26,5.24,2.54,5.97,4.98.08.26.49,2.36.49,2.49v4.8h0ZM117.26,21.22l5.63-5.81c-.46-3.98,1.72-10.39-3.16-12.07l-114.08.17c-1.32.7-2.16,1.77-2.34,3.29v79.51c.23,1.72,1.34,3.15,3.05,3.57l112.9.08c1.41-.1,3.62-2.39,3.62-3.66v-49.52l-5.3,5.47v39.43c-.02.86-.3,2.46-1.24,2.74l-107.1-.1-.58-1.07-.08-72.48.57-1.83,107.43-.13c.15.07.67.61.67.65v11.76-.02ZM136.62,11.8c-.91-.83-1.4-2.33-3.22-1.79-.83.25-2.65,2.81-3.54,3.42l5.79,5.8c3.56-3.59,5.1-3.67.97-7.41h-.01ZM114.28,11.95H11.94v58.3L46.04,25.33l1.91.3,23.45,31.7,16.29-21.55c.33-.2.87-.37,1.25-.32,1.38.17,4.61,5.81,5.87,7.07.23.23.27.68.75.53l18.74-18.7v-12.42l-.02.02ZM127.42,15.94l-34.51,34.43c-.23.25-.13.4,0,.65.17.32,4.83,4.99,5.15,5.15l34.96-34.31c.31-.39.04-.55-.17-.83-.43-.63-5.07-5.17-5.44-5.09ZM61.28,49.37l-14.42-19.54-14.73,19.05c1.58.99,3.91,2.47,5.8,2.51,2.62.06,5.77-2.9,8.66-2.98,3.21-.09,5.83,2.77,8.56,2.97,2.28.17,3.94-1.54,6.13-2h0ZM89.6,81.5h24.18l.5-.5v-6.63c0-1.04-11-14.69-12.42-16.72-.18,0-1.56,1.69-1.98,1.98-1.14.8-11.12,4.04-12.68,4.24-1.76.24-2.15-.67-1.94-2.27.24-1.77,2.81-10,3.6-11.66.48-1.02,4.16-4,4.16-4.39l-4.41-5.46-15,20.03,15.98,21.36h.01ZM114.28,68.58v-23.18l-9.92,9.82,9.92,13.37h0ZM85.14,81.5l-22.01-29.49c-3.46,1.28-5.46,3.27-9.39,2.42-2.2-.48-4.88-2.72-6.88-2.77-2.17-.06-5.64,2.92-8.6,3.02-3.23.11-5.28-2.17-8.21-2.62l-18.12,23.63v5.8h73.2ZM95.4,57.98l-4.3-4.3-1.66,5.96,5.96-1.66ZM74.2,93.43h-22.53v9.77l.5.5h22.03v-10.27Z"/>
  <path class="st0" d="M68.16,21.63c14.42-2.43,14.14,19.35.67,17.39-9.86-1.44-9.45-15.91-.67-17.39ZM70.12,24.65c-7.4.14-7.33,11.97.94,11.14,6.71-.68,6.19-11.27-.94-11.14Z"/>
  <path class="st0" d="M28.74,32.23c.51.51.52,2,0,2.49-.43.42-2.33.51-3.31,1.4-.87.77-1.24,2.87-2.42,2.99-2,.06-1.66-1.75-2.79-2.84-.97-.95-5.76-1.75-3.35-3.98,1.45-1.34,4.61.69,5.85,1.82,1.18-1,4.66-3.22,6-1.88h.02Z"/>
  <path class="st0" d="M28.06,22.61c1.94-.58,4.09,1.14,5.57,2.2,1.69-2.16,7.43-4.01,5.8.56-.88.36-1.82.48-2.64,1.01-1.31.85-1.95,3.53-3.44,3.4-1.5-.13-1.62-2.23-2.57-3.05-.86-.74-3.03-.96-3.46-1.84-.39-.81-.21-1.97.74-2.26h0Z"/>
  <path class="st0" d="M99.29,20.14c-.7.7-6.73.88-7.37-.59-1.53-3.49,7.37-2.6,7.74-1.43.12.56.02,1.62-.37,2.02Z"/>
  <path class="st0" d="M92.58,23.54h6.29c.64,0,1.03,1.57.67,2.32-.9,1.86-10.78,1.64-6.96-2.32Z"/>
</svg>