<?xml version="1.0" encoding="UTF-8"?>
<svg id="Ebene_1" xmlns="http://www.w3.org/2000/svg" version="1.1" viewBox="0 0 40 40">
  <!-- Generator: Adobe Illustrator 29.8.3, SVG Export Plug-In . SVG Version: 2.1.1 Build 3)  -->
  <defs>
    <style>
      .st0 {
        fill: #474847;
      }
    </style>
  </defs>
  <path class="st0" d="M19.91,36.22c-3.2,0-6.41,0-9.61,0-1.45,0-2.91,0-4.36,0-.75,0-1.42-.25-1.97-.75-.56-.51-.89-1.15-.95-1.92,0-.12-.01-.24-.01-.35,0-5.32,0-10.64,0-15.96,0-.33.03-.65.14-.96.36-1.1,1.28-1.83,2.38-1.93.16-.02.33-.02.49-.03.11,0,.13-.03.13-.14.01-.15.01-.3.05-.45.07-.28.23-.51.51-.62.09-.04.19-.06.29-.06.5-.01,1-.01,1.5-.01.55,0,1.09,0,1.64,0,.2,0,.38.04.55.15.2.14.32.33.35.57.02.14.02.28.03.42,0,.1.03.14.13.14.28,0,.57,0,.85,0,.09,0,.13-.05.17-.13.39-.91.78-1.82,1.17-2.73.13-.31.28-.6.53-.82.37-.34.8-.53,1.29-.6.18-.02.37-.03.55-.03,2.87,0,5.74,0,8.62,0,.49,0,.95.11,1.37.39.32.22.57.49.73.85.22.51.43,1.02.64,1.52.2.46.4.93.59,1.39.05.12.12.16.25.16,2,0,4,0,6,0,.73,0,1.38.2,1.96.66.43.34.74.78.92,1.3.12.33.17.67.17,1.01,0,1.27,0,2.55,0,3.82,0,1.47,0,2.93,0,4.4,0,2.29,0,4.58,0,6.86,0,.3,0,.6,0,.91-.02.69-.24,1.3-.68,1.84-.52.63-1.2.97-2,1.08-.15.02-.31.03-.47.03-2.32,0-4.64,0-6.96,0-2.33,0-4.65,0-6.98,0h0ZM19.97,34.42h13.87c.06,0,.11,0,.17,0,.57,0,1.11-.44,1.22-1,.03-.13.03-.26.03-.39,0-1.81,0-3.62,0-5.43,0-2.85,0-5.71,0-8.56,0-.6,0-1.2,0-1.8,0-.53-.5-1.12-1.12-1.15-.12,0-.24,0-.35,0-2.15,0-4.3,0-6.45,0-.36,0-.66-.15-.87-.45-.07-.1-.13-.21-.18-.32-.21-.46-.41-.93-.62-1.4-.27-.62-.54-1.23-.81-1.85-.05-.11-.12-.16-.25-.16-.49.01-.97.01-1.46.01-1.65,0-3.3,0-4.95,0-.55,0-1.09,0-1.64,0-.4,0-.79,0-1.19-.01-.11,0-.18.04-.22.14-.07.17-.14.33-.21.49-.28.64-.55,1.28-.83,1.92-.13.3-.26.61-.4.91-.09.2-.21.39-.41.52-.2.13-.42.2-.65.2-.47,0-.93,0-1.4,0-1.77,0-3.55,0-5.32,0-.52,0-.87.26-1.1.7-.1.19-.12.4-.12.62,0,5.09,0,10.18,0,15.27,0,.24,0,.47.03.71.06.52.5.96,1.03,1.02.16.02.32.03.48.03,4.58,0,9.16,0,13.74,0Z"/>
  <path class="st0" d="M19.92,16.11c1.1.03,2.12.2,3.11.58.97.38,1.85.91,2.64,1.59,1.27,1.11,2.12,2.48,2.59,4.09.2.68.29,1.38.31,2.09.04,1.35-.2,2.64-.74,3.87-.31.71-.72,1.37-1.22,1.96-.66.77-1.42,1.42-2.3,1.92-.93.53-1.93.9-3,1.04-.43.06-.86.1-1.29.11-.89.02-1.75-.12-2.6-.38-.91-.28-1.75-.7-2.51-1.27-.71-.53-1.33-1.17-1.84-1.91-.68-.98-1.14-2.06-1.38-3.23-.16-.75-.21-1.51-.17-2.28.08-1.76.64-3.36,1.7-4.78.61-.82,1.35-1.5,2.21-2.05.83-.54,1.74-.93,2.71-1.15.46-.1.92-.17,1.38-.19.16,0,.31-.02.42-.02ZM19.96,31.59c.16,0,.32,0,.48,0,.54-.02,1.06-.11,1.57-.27,1.76-.55,3.09-1.65,3.98-3.25.69-1.24.99-2.57.84-3.99-.05-.49-.16-.98-.32-1.45-.34-.99-.88-1.86-1.61-2.61-.81-.82-1.76-1.42-2.86-1.76-.53-.17-1.08-.27-1.64-.3-.38-.02-.76-.02-1.14.02-.59.07-1.17.22-1.72.44-1.02.4-1.89,1.03-2.62,1.83-.48.52-.85,1.11-1.14,1.76-.31.71-.5,1.45-.56,2.22-.04.59,0,1.18.11,1.76.27,1.4.88,2.62,1.88,3.64.56.57,1.19,1.03,1.91,1.36.9.42,1.84.62,2.84.59Z"/>
  <path class="st0" d="M19.95,20.17c1.16,0,2.22.38,3.12,1.17.73.64,1.21,1.43,1.42,2.37.15.66.15,1.34,0,2.01-.13.57-.32,1.11-.64,1.6-.63.95-1.46,1.61-2.56,1.93-.48.14-.97.2-1.47.18-1.33-.06-2.46-.57-3.31-1.62-.61-.75-.96-1.62-1.06-2.58-.09-.88.02-1.74.42-2.53.41-.82,1-1.48,1.81-1.94.69-.4,1.44-.58,2.27-.6ZM22.88,24.81c0-.36-.05-.71-.19-1.04-.3-.7-.79-1.24-1.48-1.57-.59-.29-1.21-.37-1.84-.22-.68.16-1.23.55-1.65,1.11-.61.82-.73,1.74-.39,2.69.44,1.26,1.78,2.2,3.32,1.81.51-.13.95-.38,1.33-.75.57-.55.86-1.24.9-2.03Z"/>
</svg>