<?xml version="1.0" encoding="UTF-8"?>
<svg id="Ebene_1" xmlns="http://www.w3.org/2000/svg" version="1.1" viewBox="0 0 40 40">
  <!-- Generator: Adobe Illustrator 29.8.3, SVG Export Plug-In . SVG Version: 2.1.1 Build 3)  -->
  <defs>
    <style>
      .st0 {
        fill: #474847;
      }
    </style>
  </defs>
  <path class="st0" d="M35.99,20.03s-.09-.05-.13-.07c-.35-.2-.72-.34-1.12-.39-.18-.02-.37-.02-.55-.03-1.38,0-2.76,0-4.13,0-.62,0-1.24,0-1.86-.01-.14,0-.17.02-.18.17-.02.3-.03.61-.05.91-.05.51-.11,1.02-.16,1.53,0,.03-.01.06-.02.1-.43-.21-.84-.41-1.26-.61.02-.19.03-.36.04-.53.02-.44.04-.88.06-1.32,0-.04,0-.08,0-.12,0-.09-.04-.13-.13-.14-.04,0-.08,0-.12,0-1.82,0-3.64,0-5.46-.01-.03,0-.07,0-.1,0-.07,0-.12.04-.12.12,0,.04,0,.09,0,.13,0,.68,0,1.36-.01,2.04,0,.08-.02.14-.08.19-.18.18-.34.37-.46.59-.38.72-.3,1.4.14,2.06.27.4.65.71,1.05.98.17.12.35.23.52.35.02.02.04.03.09.07-.07,0-.11,0-.15,0-.3,0-.59,0-.89,0-.19,0-.21.02-.21.21,0,.65,0,1.29,0,1.94,0,.13-.03.21-.14.29-.37.3-.73.61-1.09.92-.02.02-.04.03-.06.05-.04-.05-.03-.1-.03-.15,0-.93,0-1.86,0-2.79,0-.09,0-.18,0-.28,0-.14-.04-.17-.18-.17-.43.02-.85.03-1.28.06-.76.06-1.51.17-2.26.31-.34.07-.68.14-1.02.22-.17.04-.18.07-.13.23.42,1.4.97,2.74,1.76,3.98.33.52.72,1,1.19,1.4.43.37.93.64,1.45.86.45.19.91.38,1.37.57.53.22,1.05.47,1.55.77.04.03.09.06.16.11-.12.02-.21.04-.31.05-.65.06-1.29.12-1.94.11-.85,0-1.68-.09-2.52-.23-.8-.14-1.59-.32-2.36-.56-1.22-.38-2.38-.89-3.47-1.55-.88-.54-1.7-1.17-2.46-1.87-.42-.39-.82-.81-1.2-1.25-.79-.89-1.46-1.88-2.01-2.93-.53-1.02-.94-2.09-1.24-3.21-.21-.78-.34-1.57-.43-2.37-.07-.7-.1-1.39-.09-2.09,0-.6.04-1.2.11-1.8.13-1.11.38-2.2.74-3.25.34-1,.8-1.95,1.35-2.85.47-.77,1.01-1.49,1.6-2.18.52-.59,1.08-1.14,1.68-1.65,1.22-1.05,2.56-1.89,4.03-2.54.96-.42,1.95-.76,2.97-1,.54-.13,1.08-.21,1.63-.29.66-.09,1.32-.11,1.99-.11.72,0,1.43.06,2.14.17.91.13,1.81.33,2.69.62,1.79.59,3.44,1.44,4.95,2.56.7.52,1.34,1.1,1.94,1.73.68.72,1.3,1.49,1.83,2.33.67,1.07,1.21,2.2,1.61,3.39.19.58.35,1.17.47,1.77.11.55.21,1.1.26,1.65.04.47.06.94.09,1.41.03.41,0,.82-.01,1.24,0,.03,0,.07,0,.1,0,.02-.01.03-.02.06ZM8.7,19.48h0c-.46,0-.91,0-1.37,0-.59,0-1.18,0-1.77,0-.06,0-.13,0-.16.07-.02.04-.02.09-.02.13.02.28.04.57.06.85.04.55.13,1.1.26,1.63.27,1.19.68,2.33,1.25,3.42.38.73.83,1.4,1.32,2.05.11.15.13.15.29.06.24-.14.47-.3.7-.44.73-.44,1.5-.81,2.3-1.11.32-.12.65-.23.97-.35.16-.06.18-.09.15-.26-.08-.4-.17-.81-.24-1.21-.09-.57-.18-1.14-.25-1.71-.06-.49-.1-.99-.13-1.49-.03-.48-.02-.96-.03-1.44,0-.17-.03-.19-.2-.19h-3.13ZM8.68,18.11h0c1.04,0,2.08,0,3.13,0,.17,0,.19-.02.2-.19.03-.49.05-.98.08-1.47.04-.59.1-1.19.19-1.78.12-.85.28-1.69.5-2.52.04-.17.02-.21-.15-.26-.15-.04-.3-.08-.45-.13-1.26-.4-2.44-.97-3.54-1.7-.13-.08-.16-.08-.26.04-.13.16-.26.33-.38.5-.6.83-1.11,1.72-1.52,2.66-.64,1.47-1,3-1.12,4.59,0,.05,0,.1,0,.15,0,.07.05.11.12.12.03,0,.07,0,.1,0,1.03,0,2.07,0,3.1,0ZM31.3,18.12h0c.58.01,1.16.01,1.75.01.46,0,.92,0,1.38-.01.14,0,.19-.04.18-.18-.02-.28-.03-.57-.07-.85-.13-.97-.36-1.92-.68-2.85-.36-1.04-.83-2.03-1.41-2.96-.25-.4-.54-.78-.81-1.17-.09-.13-.14-.13-.26-.05-.13.09-.27.17-.4.26-.96.61-1.98,1.08-3.06,1.43-.18.06-.37.11-.56.17-.16.05-.17.09-.14.25.07.3.14.59.21.89.17.83.32,1.67.41,2.51.07.64.11,1.29.16,1.94.01.15.02.31.03.46.01.11.04.14.16.15.02,0,.05,0,.07,0h3.05ZM16.39,19.49h0c-.1,0-.2,0-.31,0-.83,0-1.67,0-2.5,0-.14,0-.18.04-.18.18,0,.09,0,.18.01.28.02.46.02.92.06,1.38.05.67.11,1.34.23,2.01.11.6.22,1.21.34,1.81.03.17.08.19.24.15.45-.1.91-.21,1.36-.29.46-.09.92-.15,1.38-.22.37-.05.74-.09,1.11-.12.35-.03.71-.04,1.06-.07.15,0,.18-.05.18-.2,0-.16,0-.31,0-.47,0-1.26-.01-2.52-.01-3.78,0-.16,0-.33,0-.49,0-.13-.04-.16-.17-.16-.07,0-.15,0-.22,0-.86,0-1.73,0-2.59,0ZM16.39,18.12h0c.69,0,1.39,0,2.08,0,.25,0,.49,0,.74,0,.13,0,.16-.04.17-.16,0-.01,0-.03,0-.04,0-1.53,0-3.06,0-4.6,0-.03,0-.07,0-.1,0-.1-.04-.14-.14-.14-.44-.03-.88-.05-1.32-.09-.48-.04-.95-.1-1.43-.16-.72-.1-1.43-.24-2.14-.42-.16-.04-.2-.02-.23.14-.07.28-.14.57-.19.85-.11.58-.22,1.16-.29,1.75-.09.74-.14,1.48-.21,2.23-.02.19-.02.39-.02.58,0,.12.04.16.15.16.02,0,.04,0,.06,0h2.78ZM23.65,18.12h0c.92,0,1.84,0,2.76,0,.18,0,.21-.03.2-.21-.01-.22-.02-.45-.04-.67-.05-.55-.09-1.11-.16-1.66-.09-.72-.2-1.44-.37-2.15-.07-.29-.13-.59-.21-.88-.04-.16-.09-.18-.24-.14-.02,0-.04,0-.06.01-.9.22-1.81.4-2.73.5-.52.06-1.04.09-1.56.13-.14.01-.28.01-.42.02-.1,0-.13.04-.13.13,0,.04,0,.09,0,.13,0,1.39,0,2.78,0,4.18,0,.15,0,.3,0,.45,0,.12.03.15.16.16.04,0,.08,0,.12,0,.9,0,1.79,0,2.69,0ZM19.38,8.11c0-1.09,0-2.17,0-3.26,0-.19-.05-.23-.23-.18-.28.07-.55.17-.8.31-.57.32-1.04.76-1.45,1.26-.52.63-.94,1.32-1.31,2.04-.41.81-.73,1.66-1.01,2.52-.04.14-.02.18.12.22.17.04.34.07.51.11.75.16,1.51.27,2.27.34.46.04.92.07,1.38.11.12,0,.24.01.36,0,.11,0,.14-.05.15-.16,0-.04,0-.08,0-.12,0-1.07,0-2.13,0-3.2ZM20.69,8.17v3.2s0,.07,0,.1c0,.11.05.14.16.14.14,0,.27-.01.41-.02.32-.02.65-.04.97-.07.47-.05.93-.1,1.4-.17.55-.09,1.11-.2,1.66-.3.14-.03.17-.09.12-.22-.36-1.07-.78-2.12-1.35-3.1-.44-.76-.96-1.47-1.6-2.08-.44-.41-.93-.73-1.52-.88-.22-.05-.24-.04-.24.19,0,1.07,0,2.14,0,3.22ZM12.95,27.13s-.04,0-.07.02c-.74.25-1.46.54-2.16.9-.44.23-.87.47-1.3.71-.14.08-.15.13-.04.24.29.28.58.56.88.83.93.83,1.98,1.5,3.1,2.04.74.35,1.5.62,2.29.85.02,0,.04.01.06.01.08,0,.12-.06.09-.14-.01-.02-.03-.04-.04-.06-.32-.36-.59-.75-.85-1.16-.73-1.15-1.27-2.38-1.67-3.68-.04-.14-.08-.29-.12-.43-.02-.07-.05-.13-.16-.12ZM13.05,10.58c.08.01.12-.02.16-.15.27-.81.57-1.61.93-2.38.37-.79.8-1.54,1.31-2.25.14-.2.3-.39.45-.59.03-.04.06-.08.03-.13-.03-.05-.08-.05-.13-.04-.04,0-.08.02-.11.03-.5.15-.99.33-1.47.54-.95.41-1.85.91-2.7,1.51-.71.5-1.36,1.06-1.99,1.65-.07.07-.07.13.01.19.07.06.15.11.23.16.92.56,1.9,1.02,2.92,1.35.12.04.24.08.36.11ZM24.13,5.06s-.07.03-.08.06c-.01.03,0,.07.01.1.02.04.06.07.08.1.55.7,1.02,1.44,1.42,2.23.44.88.82,1.78,1.11,2.72.03.08.04.17.07.25.04.1.09.13.19.09.09-.03.17-.06.26-.09.95-.3,1.87-.68,2.72-1.2.17-.1.33-.2.49-.31.09-.06.09-.12.02-.2-.04-.04-.09-.08-.13-.12-.81-.78-1.7-1.46-2.66-2.05-1.07-.65-2.2-1.18-3.4-1.56-.03,0-.06-.02-.11-.03Z"/>
  <path class="st0" d="M35.93,22.7c0,.51-.11.94-.3,1.36-.23.5-.53.96-.87,1.39-.58.74-1.24,1.4-1.93,2.03-.14.12-.14.14-.08.3.55,1.36,1.09,2.73,1.63,4.09.26.66.53,1.32.79,1.99.04.09.07.18.1.27.11.3.03.57-.16.8-.12.14-.25.27-.39.39-.18.16-.36.32-.54.46-.36.28-.84.27-1.17-.09-.19-.21-.37-.44-.55-.66-.38-.46-.75-.93-1.12-1.39-.29-.36-.57-.71-.85-1.07-.42-.52-.85-1.04-1.28-1.56-.02-.02-.03-.04-.05-.05-.08-.08-.11-.08-.2,0-.19.17-.38.33-.57.5-.58.52-1.16,1.06-1.76,1.57-.14.12-.18.23-.16.41.07.58.13,1.16.19,1.73.01.13.03.27.03.41.01.2-.05.38-.19.52-.25.25-.51.49-.78.72-.27.23-.6.25-.87.05-.08-.06-.15-.15-.21-.24-.21-.34-.41-.68-.61-1.03-.37-.62-.73-1.25-1.09-1.87-.08-.14-.19-.24-.33-.31-.48-.24-.97-.47-1.45-.72-.36-.19-.71-.4-1.06-.61-.17-.1-.26-.26-.32-.45-.06-.21-.02-.42.08-.61.18-.34.4-.65.65-.95.19-.22.44-.3.72-.28.36.03.72.07,1.08.1.4.04.79.08,1.18.12.17.02.3-.03.42-.17.62-.71,1.25-1.41,1.87-2.11.09-.1.1-.14,0-.23-.2-.18-.4-.35-.61-.52-.59-.49-1.18-.98-1.77-1.47-.65-.53-1.29-1.07-1.94-1.61-.21-.17-.32-.39-.35-.66-.01-.12,0-.24.05-.34.1-.19.19-.38.31-.56.15-.22.32-.43.49-.63.13-.15.3-.23.49-.26.13-.02.26,0,.38.06.36.15.71.3,1.07.45,1.61.66,3.22,1.31,4.83,1.97.13.05.26.09.38.15.09.04.16.03.22-.04.19-.17.37-.34.56-.5.62-.55,1.23-1.1,1.85-1.64.18-.16.37-.31.57-.46.45-.33.96-.52,1.51-.57.62-.06,1.19.11,1.62.59.31.35.46.78.44,1.21ZM34.67,22.86c0-.45-.34-.74-.79-.66-.14.03-.28.08-.41.14-.33.15-.6.38-.86.62-.71.64-1.42,1.3-2.12,1.94-.21.19-.41.38-.63.56-.25.21-.54.27-.86.15-.12-.05-.24-.09-.37-.14-1.06-.45-2.12-.89-3.18-1.34-.88-.37-1.75-.76-2.63-1.14-.03-.01-.06-.04-.09-.04-.03,0-.08.01-.1.04-.02.02-.02.08,0,.1.02.04.06.07.1.1.2.17.41.33.61.49.45.37.91.74,1.36,1.12.88.72,1.75,1.45,2.63,2.16.3.24.43.7.11,1.05-.25.27-.49.54-.73.81-.35.39-.7.78-1.05,1.17-.34.38-.69.76-1.03,1.14-.17.19-.38.27-.62.26-.32-.01-.64-.04-.96-.07-.5-.05-1-.1-1.5-.15-.07,0-.15-.03-.17.06-.02.09.05.12.11.15.18.09.36.18.53.27.48.23.96.47,1.44.7.18.08.32.19.42.36.03.05.06.1.09.15.33.57.67,1.14,1,1.71.1.16.19.33.28.49.04.06.06.14.16.12.06-.01.06-.07.03-.19-.01-.06-.03-.11-.04-.17-.09-.6-.18-1.2-.26-1.8-.03-.27.05-.51.26-.69.29-.26.59-.52.88-.78.6-.53,1.2-1.06,1.8-1.59.23-.2.45-.41.69-.6.29-.23.69-.2.95.07.03.03.06.07.09.11.72.9,1.44,1.8,2.16,2.71.53.66,1.06,1.32,1.59,1.99.06.08.13.16.2.23.02.02.09.04.11.03.03-.01.04-.07.04-.11,0-.03-.01-.06-.02-.08-.04-.1-.07-.2-.11-.3-.41-1.01-.82-2.02-1.23-3.03-.41-1.01-.83-2.02-1.25-3.02-.15-.36-.06-.73.23-1.01.42-.41.84-.81,1.25-1.22.38-.38.74-.77,1.06-1.19.27-.36.53-.72.69-1.14.06-.17.12-.34.12-.52Z"/>
</svg>