<?xml version="1.0" encoding="UTF-8"?>
<svg id="Ebene_1" xmlns="http://www.w3.org/2000/svg" version="1.1" viewBox="0 0 1392.49 178.25">
  <!-- Generator: Adobe Illustrator 29.8.3, SVG Export Plug-In . SVG Version: 2.1.1 Build 3)  -->
  <defs>
    <style>
      .st0 {
        fill: #dcdcc2;
      }
    </style>
  </defs>
  <path class="st0" d="M1,7.06h13.2l31.56,142.93h-13.2L1,7.06ZM43.69,149.99l20.62-87.24,2.06,3.92-19.8,83.32h-2.89ZM45.76,7.06h13.2l31.56,142.93h-13.2L45.76,7.06ZM83.5,7.06l-14.23,59.61-1.86-3.92,13.2-55.69h2.89ZM125.37,7.06l-34.24,142.93h-2.89L122.48,7.06h2.89Z"/>
  <path class="st0" d="M121.75,149.99h-2.89L153.52,7.06h2.89l-34.65,142.93ZM177.85,100.49h-45.17l.62-2.68h44.55v2.68ZM201.37,149.99h-14.02L154.34,7.06h13.82l33.21,142.93Z"/>
  <path class="st0" d="M198.48,7.06h13.82l33,142.93h-14.02L198.48,7.06ZM279.33,7.06l-33.41,142.93h-2.89L276.44,7.06h2.89Z"/>
  <path class="st0" d="M309.85,149.99h-13.61V7.06h13.61v142.93ZM307.79,9.74v-2.68h54.45v2.68h-54.45ZM307.79,79.87v-2.68h49.71v2.68h-49.71ZM307.79,149.99v-2.68h54.45v2.68h-54.45Z"/>
  <path class="st0" d="M420.4,7.06h13.82l29.91,92.81h-13.82l-29.91-92.81ZM450.31,149.99v-50.12h13.82v50.12h-13.82ZM493.21,7.06l-29.08,92.81-2.48-2.68,28.67-90.13h2.89Z"/>
  <path class="st0" d="M573.44,152.06c-10.59,0-20.35-1.79-29.29-5.36-8.94-3.57-16.74-8.66-23.41-15.26-6.67-6.6-11.86-14.4-15.57-23.41-3.71-9-5.57-18.87-5.57-29.6s1.86-20.59,5.57-29.6c3.71-9,8.9-16.77,15.57-23.31,6.67-6.53,14.47-11.58,23.41-15.16,8.94-3.57,18.7-5.36,29.29-5.36s20.18,1.79,29.18,5.36c9,3.58,16.81,8.63,23.41,15.16,6.6,6.53,11.76,14.3,15.47,23.31,3.71,9.01,5.57,18.87,5.57,29.6s-1.86,20.59-5.57,29.6c-3.71,9.01-8.87,16.81-15.47,23.41-6.6,6.6-14.41,11.69-23.41,15.26-9.01,3.57-18.74,5.36-29.18,5.36ZM573.44,149.37c11.14,0,21.21-2.96,30.22-8.87,9-5.91,16.12-14.16,21.35-24.75,5.22-10.59,7.84-23.03,7.84-37.33s-2.58-26.12-7.73-36.71c-5.16-10.59-12.21-18.9-21.14-24.96-8.94-6.05-19.11-9.07-30.53-9.07s-21.42,2.96-30.42,8.87c-9.01,5.91-16.09,14.13-21.24,24.65-5.16,10.52-7.73,22.93-7.73,37.23s2.54,26.16,7.63,36.82c5.09,10.66,12.13,19.01,21.14,25.06,9,6.05,19.21,9.08,30.63,9.08Z"/>
  <path class="st0" d="M680.07,7.06v104.36c0,10.72,2.51,19.49,7.53,26.3,5.02,6.81,12,10.21,20.93,10.21,5.77,0,10.83-1.55,15.16-4.64s7.7-7.43,10.11-12.99c2.4-5.57,3.61-11.86,3.61-18.87V7.06h2.89v104.36c0,7.98-1.51,15.02-4.54,21.14-3.03,6.12-7.25,10.9-12.68,14.33-5.43,3.44-11.86,5.16-19.28,5.16s-13.79-1.69-19.49-5.05c-5.71-3.37-10.14-8.11-13.3-14.23-3.16-6.12-4.74-13.23-4.74-21.35V7.06h13.82Z"/>
  <path class="st0" d="M762.77,149.99V7.06h13.61v142.93h-13.61ZM793.71,9.74h-18.97v-2.68h22.89c7.43,0,14.09,1.58,20.01,4.74,5.91,3.16,10.59,7.5,14.02,12.99,3.44,5.5,5.16,11.83,5.16,18.97s-1.72,13.24-5.16,18.67c-3.44,5.43-8.11,9.69-14.02,12.79-5.91,3.09-12.58,4.64-20.01,4.64h-21.86v-2.68h17.94c5.77,0,10.83-1.44,15.16-4.33s7.7-6.84,10.11-11.86c2.4-5.02,3.61-10.76,3.61-17.22s-1.21-12.1-3.61-17.32c-2.41-5.22-5.77-9.31-10.11-12.27-4.33-2.96-9.38-4.43-15.16-4.43ZM793.09,78.84l13.41-.62,33.41,71.77h-14.44l-32.38-71.16Z"/>
  <path class="st0" d="M932.31,149.99h-13.61V5h13.61v144.99ZM930.86,75.74h15.26c5.36,0,10.17-1.44,14.44-4.33,4.26-2.89,7.6-6.91,10-12.07,2.4-5.16,3.61-11.1,3.61-17.84s-1.24-12.65-3.71-17.74c-2.48-5.09-5.81-9.08-10-11.96-4.2-2.89-9.04-4.33-14.54-4.33h-16.91v-2.48h20.21c7.43,0,14.09,1.58,20.01,4.74,5.91,3.16,10.59,7.5,14.02,12.99,3.44,5.5,5.16,11.76,5.16,18.77s-1.75,13.1-5.26,18.67c-3.51,5.57-8.25,9.97-14.23,13.2-5.98,3.23-12.76,4.85-20.32,4.85h-17.74v-2.47ZM929.83,147.52h27.43c5.36,0,10.17-1.48,14.44-4.43,4.26-2.96,7.6-7.08,10-12.38,2.4-5.29,3.61-11.31,3.61-18.05s-1.2-12.68-3.61-17.84c-2.41-5.16-5.71-9.21-9.9-12.17-4.2-2.96-8.97-4.43-14.33-4.43h-26.61v-2.47h28.67c7.7,0,14.54,1.62,20.52,4.85,5.98,3.23,10.73,7.6,14.23,13.1,3.51,5.5,5.26,11.76,5.26,18.77s-1.69,13.54-5.05,19.18c-3.37,5.64-7.94,10.11-13.71,13.41-5.78,3.3-12.38,4.95-19.8,4.95h-31.14v-2.48Z"/>
  <path class="st0" d="M1020.58,149.99V7.06h13.61v142.93h-13.61ZM1051.52,9.74h-18.97v-2.68h22.89c7.43,0,14.09,1.58,20.01,4.74,5.91,3.16,10.59,7.5,14.02,12.99,3.44,5.5,5.16,11.83,5.16,18.97s-1.72,13.24-5.16,18.67c-3.44,5.43-8.11,9.69-14.02,12.79-5.91,3.09-12.58,4.64-20.01,4.64h-21.86v-2.68h17.94c5.77,0,10.83-1.44,15.16-4.33,4.33-2.89,7.7-6.84,10.11-11.86,2.4-5.02,3.61-10.76,3.61-17.22s-1.21-12.1-3.61-17.32c-2.41-5.22-5.77-9.31-10.11-12.27-4.33-2.96-9.38-4.43-15.16-4.43ZM1050.9,78.84l13.41-.62,33.41,71.77h-14.44l-32.38-71.16Z"/>
  <path class="st0" d="M1110.71,149.99h-2.89l34.65-142.93h2.89l-34.65,142.93ZM1166.81,100.49h-45.17l.62-2.68h44.55v2.68ZM1190.32,149.99h-14.02l-33-142.93h13.82l33.21,142.93Z"/>
  <path class="st0" d="M1207.65,149.99V7.06h2.89v142.93h-2.89ZM1208.47,7.06h13.61l56.1,138.6,1.24,4.33h-13.82l-55.89-138.39-1.24-4.54ZM1277.15,149.99V7.06h2.89v142.93h-2.89Z"/>
  <path class="st0" d="M1317.99,149.99h-13.61V7.06h13.61v142.93ZM1316.54,147.31h2.47c10.86,0,20.63-2.92,29.29-8.77,8.66-5.84,15.54-13.95,20.62-24.34,5.09-10.38,7.63-22.31,7.63-35.78s-2.55-25.37-7.63-35.68c-5.09-10.31-11.96-18.39-20.62-24.23-8.66-5.84-18.43-8.77-29.29-8.77h-2.47v-2.68h2.47c10.17,0,19.63,1.75,28.36,5.26,8.73,3.51,16.36,8.42,22.89,14.75,6.53,6.33,11.62,13.85,15.26,22.58,3.64,8.73,5.47,18.32,5.47,28.77s-1.82,20.04-5.47,28.77c-3.64,8.73-8.73,16.29-15.26,22.69-6.53,6.39-14.16,11.34-22.89,14.85-8.73,3.51-18.19,5.26-28.36,5.26h-2.47v-2.68Z"/>
</svg>