<?xml version="1.0" encoding="UTF-8"?>
<svg id="Ebene_1" xmlns="http://www.w3.org/2000/svg" version="1.1" viewBox="0 0 131.05 195.61">
  <!-- Generator: Adobe Illustrator 29.8.3, SVG Export Plug-In . SVG Version: 2.1.1 Build 3)  -->
  <defs>
    <style>
      .st0 {
        fill: #474847;
      }

      .st1 {
        fill: none;
        stroke: #474847;
        stroke-miterlimit: 10;
        stroke-width: 1.5px;
      }
    </style>
  </defs>
  <rect class="st1" x=".75" y=".75" width="129.55" height="194.11" rx="64.77" ry="64.77"/>
  <g>
    <path class="st0" d="M16.87,58.03l7.79,4.86-.3,1.42-9.08,1.34.29-1.39,7.44-1.01-6.41-3.94.27-1.29h0Z"/>
    <path class="st0" d="M26.4,57.12l-.45,1.24-8.09-2.96.45-1.24,8.09,2.96Z"/>
    <path class="st0" d="M27.94,48.2c.44.23.77.56,1,.98s.33.9.31,1.44-.2,1.12-.53,1.73-.71,1.08-1.16,1.42c-.44.33-.92.52-1.44.56s-1.03-.05-1.55-.28l.63-1.19c.5.23.97.27,1.42.11s.83-.52,1.14-1.1c.17-.33.28-.64.32-.95s0-.58-.1-.82c-.11-.24-.29-.43-.55-.57-.32-.17-.62-.2-.91-.08-.29.12-.6.37-.92.76l-.8.99c-.2.24-.41.45-.64.64s-.47.34-.74.45c-.26.11-.54.16-.84.14-.29-.02-.6-.11-.92-.28-.43-.23-.75-.55-.97-.96s-.31-.87-.29-1.38c.02-.51.18-1.03.46-1.56.28-.53.64-.95,1.07-1.26.43-.31.9-.5,1.4-.56s1.02.03,1.54.27l-.63,1.19c-.32-.14-.63-.2-.94-.18-.31.02-.59.12-.85.29s-.47.42-.65.74-.26.63-.27.92c0,.29.06.54.18.76.12.22.29.39.51.5.24.13.46.17.68.12.21-.05.41-.15.61-.31.19-.16.38-.34.55-.55l.82-1c.49-.58.97-.97,1.46-1.16.49-.19,1.02-.13,1.59.18h.01Z"/>
    <path class="st0" d="M28.79,37.24l4.26,3.51c.51.42.86.89,1.07,1.41s.26,1.06.15,1.61c-.11.56-.38,1.1-.82,1.64-.44.53-.92.9-1.45,1.11-.53.21-1.06.26-1.61.15s-1.08-.37-1.58-.79l-4.26-3.51.84-1.02,4.29,3.54c.32.26.65.43.99.51.34.07.67.05.99-.07s.61-.34.88-.67c.27-.33.44-.67.5-1.01s.02-.67-.12-.98c-.14-.32-.37-.61-.69-.87l-4.29-3.54.84-1.02h0Z"/>
    <path class="st0" d="M41.36,37.67l-6.56-3.92,2.45,7.25-1.03.84-2.87-8.77,1.13-.92,7.97,4.63-1.09.88h0ZM35.77,38.09l3.11-2.53.95.6-3.74,3.03-.33-1.11h.01Z"/>
    <path class="st0" d="M48.42,33.56l-4.59,2.49-4.11-7.57,1.16-.63,3.54,6.53,3.43-1.86s.57,1.04.57,1.04Z"/>
    <path class="st0" d="M57.86,29.36l.29,1.12-5.28,1.38-2.17-8.34,5.2-1.36.29,1.11-3.92,1.02.62,2.37,3.58-.93.29,1.11-3.58.93.68,2.62,4.01-1.04h-.01Z"/>
    <path class="st0" d="M60.96,30.09l-1.53.11,2.47-4.6-2.81-4.02,1.52-.1,2.21,3.22,1.82-3.49,1.46-.1-2.28,4.42,3.03,4.17-1.54.11-2.4-3.38-1.94,3.68v-.02Z"/>
    <path class="st0" d="M71.78,27.19l-1.66-.2-.36,2.98-1.31-.16,1.03-8.55,2.97.36c.63.08,1.18.25,1.62.52.45.27.78.62.99,1.06s.28.96.21,1.57c-.07.6-.26,1.09-.58,1.47s-.72.66-1.22.83-1.07.21-1.7.13h.01ZM72.31,22.72l-1.64-.2-.41,3.36,1.64.2c.58.07,1.05-.03,1.42-.29s.58-.66.64-1.18c.06-.53-.05-.96-.35-1.29-.29-.33-.73-.53-1.31-.6h.01Z"/>
    <path class="st0" d="M81.8,31.49l-.34,1.1-5.21-1.62,2.55-8.23,5.13,1.59-.34,1.1-3.87-1.2-.73,2.34,3.53,1.09-.34,1.1-3.53-1.09-.8,2.59,3.95,1.23Z"/>
    <path class="st0" d="M84.39,33.93l-1.17-.62,4.02-7.62,2.84,1.5c.88.46,1.45,1.03,1.73,1.71.28.68.21,1.39-.18,2.15-.29.54-.7.93-1.23,1.15-.54.22-1.13.25-1.78.08l.47,4.13-1.4-.74-.39-3.87-1.4-.74s-1.51,2.87-1.51,2.87ZM87.9,27.28l-1.48,2.8,1.6.85c.54.28,1.02.39,1.44.3.42-.08.75-.35,1-.81.24-.46.28-.89.11-1.28-.17-.39-.53-.73-1.06-1.02l-1.6-.85h-.01Z"/>
    <path class="st0" d="M91.51,38.26l-1.07-.77,5.05-6.98,1.07.77-5.05,6.98Z"/>
    <path class="st0" d="M98.14,42.56l-.79.84-3.97-3.75,5.91-6.27,3.91,3.69-.79.84-2.95-2.78-1.68,1.78,2.69,2.54-.79.84-2.69-2.54-1.86,1.97,3.01,2.84Z"/>
    <path class="st0" d="M102,49.48l2.85-7.6-5.48,3.91-.71-1,7.01-5,.84,1.17-2.76,7.41,5.33-3.81.71,1-7.01,5-.77-1.08h0Z"/>
    <path class="st0" d="M105.13,55.97c-.23-.55-.34-1.11-.33-1.68.01-.56.13-1.1.35-1.62.23-.52.55-.98.97-1.39s.92-.74,1.51-.98c.58-.25,1.17-.37,1.75-.38s1.14.08,1.66.28.99.5,1.4.88c.41.39.73.86.96,1.41.28.66.4,1.33.36,1.99s-.23,1.28-.57,1.86c-.34.57-.82,1.04-1.44,1.42l-.54-1.29c.4-.25.71-.57.94-.96.23-.38.36-.79.39-1.23s-.04-.87-.23-1.32c-.16-.39-.39-.72-.67-.99-.29-.27-.62-.46-.99-.59-.37-.12-.77-.17-1.2-.15-.42.03-.86.13-1.3.32s-.82.42-1.14.71-.56.61-.74.96c-.17.35-.26.73-.28,1.12-.01.39.06.78.23,1.17.19.44.45.81.79,1.09.34.28.73.47,1.16.57s.88.1,1.34,0l.54,1.29c-.7.18-1.37.19-2.02.04-.65-.16-1.22-.45-1.73-.89-.51-.43-.9-.98-1.18-1.64h0Z"/>
    <path class="st0" d="M109.46,66.6l-1.13.23-1.07-5.36,8.45-1.68,1.05,5.27-1.13.22-.79-3.98-2.4.48.72,3.62-1.13.22-.72-3.62-2.66.53.81,4.06h0Z"/>
  </g>
  <g>
    <path class="st0" d="M28.38,149.89l-.6-1.56-2.8,1.08-.47-1.23,8.04-3.09,1.07,2.79c.23.6.33,1.16.3,1.68-.03.52-.19.98-.48,1.37s-.72.7-1.29.92c-.56.21-1.08.27-1.57.18-.49-.1-.92-.33-1.3-.69s-.68-.85-.91-1.44h.01ZM32.58,148.27l-.59-1.55-3.16,1.21.59,1.55c.21.54.52.92.92,1.12s.85.21,1.34.02c.5-.19.83-.5.98-.91.15-.42.13-.89-.08-1.44Z"/>
    <path class="st0" d="M28.74,157.73l-.69-1.12,7.34-4.52,1.69,2.74c.52.84.73,1.63.62,2.35-.1.72-.52,1.31-1.25,1.76-.52.32-1.07.44-1.65.37s-1.1-.36-1.57-.84l-1.7,3.79-.83-1.35,1.63-3.53-.83-1.35-2.76,1.7h0ZM35.14,153.79l-2.7,1.66.95,1.54c.32.52.68.85,1.08,1s.83.08,1.27-.19.69-.62.74-1.05-.08-.9-.4-1.42l-.95-1.54h0Z"/>
    <path class="st0" d="M34.26,165.41l-.86-1,6.51-5.64.86,1s-6.51,5.64-6.51,5.64Z"/>
    <path class="st0" d="M41.22,171.62l.54-8.1-4.12,5.32-.97-.75,5.28-6.81,1.14.88-.51,7.89,4.01-5.18.97.75-5.28,6.81-1.05-.82h-.01Z"/>
    <path class="st0" d="M48.96,175.63l-1.22-.5,2.81-6.88-2.6-1.06.45-1.1,6.42,2.62-.45,1.1-2.6-1.06-2.81,6.88Z"/>
    <path class="st0" d="M61.93,174.52l1.11.13c-.05.33-.13.65-.25.96-.12.32-.26.61-.42.88-.17.27-.35.51-.55.72-.41.41-.86.71-1.34.88-.48.18-.97.24-1.46.18-.57-.07-1.06-.23-1.45-.49s-.69-.6-.87-1.01c-.18-.41-.25-.88-.19-1.39.04-.37.16-.69.36-.97s.46-.52.77-.72c.32-.2.67-.34,1.06-.43l.56.83c-.28.02-.53.09-.76.21-.23.11-.42.27-.56.47-.14.2-.23.43-.26.69-.03.28,0,.55.09.81s.26.49.51.68c.24.19.56.31.96.35.38.04.75,0,1.11-.16.36-.15.65-.38.89-.69.16-.21.3-.48.42-.82.12-.34.21-.71.27-1.1h0ZM59.85,173.6l3.55,5.07-1.5-.18-3.31-4.73c-.17-.24-.3-.47-.4-.68s-.17-.42-.21-.63-.05-.43-.02-.66c.05-.39.19-.73.42-1.01s.54-.49.91-.62c.37-.13.78-.17,1.22-.12.44.05.83.18,1.15.39s.56.48.72.82c.16.33.22.71.18,1.12l-1.13-.13c0-.24-.03-.45-.12-.62s-.22-.31-.37-.42c-.16-.11-.33-.17-.53-.2-.2-.02-.39,0-.56.07-.18.07-.32.18-.44.33-.11.15-.18.33-.21.54-.02.17,0,.34.04.51.04.16.12.33.23.52s.24.39.4.63h-.02Z"/>
    <path class="st0" d="M71.17,178.3l-2.7.33-1.06-8.55,2.7-.33c.91-.11,1.71-.03,2.4.25s1.24.72,1.65,1.31.67,1.31.77,2.14.02,1.58-.24,2.27c-.26.69-.69,1.26-1.29,1.72s-1.34.74-2.23.85h0ZM68.85,171.05l.78,6.29,1.33-.17c.66-.08,1.2-.28,1.61-.59s.71-.72.88-1.23c.17-.5.22-1.08.14-1.73-.08-.64-.26-1.18-.55-1.62s-.67-.75-1.15-.95c-.48-.19-1.05-.25-1.71-.17l-1.33.17h0Z"/>
    <path class="st0" d="M79.63,176.46l-1.26.4-2.6-8.21,1.26-.4,2.6,8.21Z"/>
    <path class="st0" d="M86.66,173.45c-.54.32-1.09.51-1.67.59-.57.08-1.13.04-1.68-.1s-1.06-.39-1.53-.75-.87-.82-1.2-1.39c-.32-.55-.53-1.12-.62-1.69s-.07-1.14.06-1.68c.13-.55.36-1.05.71-1.51.34-.46.78-.85,1.32-1.16.64-.38,1.28-.59,1.91-.64.63-.05,1.23.03,1.8.24s1.08.53,1.54.96l-1.33.78c-.28-.26-.59-.46-.95-.6s-.74-.18-1.15-.14-.83.18-1.25.44c-.49.29-.86.66-1.1,1.12-.25.46-.35.96-.32,1.51.03.55.22,1.12.57,1.71.32.54.71.97,1.18,1.28s.98.48,1.52.5c.55.02,1.1-.13,1.65-.45.46-.27.8-.59,1.04-.96s.37-.79.4-1.23c.03-.45-.05-.9-.23-1.36l-2.57,1.5-.53-.91,3.77-2.21c.36.59.6,1.17.71,1.77.11.59.11,1.16,0,1.71s-.34,1.05-.69,1.51-.8.85-1.37,1.19v-.03Z"/>
    <path class="st0" d="M93.59,167.96l-.97.9-5.87-6.31.97-.9,5.87,6.31Z"/>
    <path class="st0" d="M98.11,162.82l-.81,1.05-5.88-4.53-1.71,2.22-.94-.73,4.23-5.49.94.73-1.71,2.22s5.88,4.53,5.88,4.53Z"/>
    <path class="st0" d="M103.6,153.58l-7.58-.95,5.16,5.65-.61,1.18-6.15-6.88.67-1.29,9.16,1.03-.64,1.25h0ZM98.64,156.21l1.83-3.56,1.11.17-2.2,4.28-.75-.88h0Z"/>
    <path class="st0" d="M106.76,144.8l-1.61,4.97-8.2-2.65.41-1.26,7.07,2.28,1.2-3.71,1.13.37Z"/>
  </g>
  <g>
    <path class="st0" d="M45.52,129.71h-2.72v-8.62h2.72c.92,0,1.7.18,2.35.55.65.36,1.14.87,1.48,1.51s.5,1.38.5,2.22-.17,1.57-.52,2.23c-.34.65-.84,1.17-1.49,1.55-.65.38-1.43.57-2.32.57h0ZM44.11,122.24v6.34h1.34c.66,0,1.22-.13,1.67-.39.45-.26.79-.63,1.03-1.11.23-.48.35-1.05.35-1.7s-.12-1.21-.35-1.67c-.23-.47-.57-.83-1.03-1.08s-1.01-.38-1.67-.38h-1.34Z"/>
    <path class="st0" d="M57.41,128.56v1.15h-5.46v-8.62h5.38v1.15h-4.06v2.45h3.7v1.15h-3.7v2.71h4.14Z"/>
    <path class="st0" d="M65.98,127.19c0,.5-.13.94-.39,1.34s-.63.72-1.12.95c-.49.23-1.08.35-1.78.35s-1.29-.12-1.79-.35c-.5-.24-.89-.57-1.17-1s-.44-.93-.48-1.5h1.34c.03.54.22.98.57,1.31.35.33.85.49,1.51.49.37,0,.7-.06.98-.17.29-.11.51-.27.68-.48s.25-.46.25-.76c0-.36-.12-.64-.36-.84s-.61-.35-1.1-.46l-1.25-.24c-.3-.06-.59-.15-.87-.26s-.52-.26-.74-.44-.39-.4-.52-.67c-.12-.27-.19-.58-.19-.94,0-.49.13-.92.39-1.31.26-.38.62-.69,1.08-.91.46-.22.99-.33,1.59-.33s1.14.12,1.61.35c.48.23.86.56,1.15.97s.45.91.49,1.49h-1.34c-.02-.34-.12-.65-.28-.91-.16-.26-.38-.47-.65-.62s-.59-.22-.96-.22-.68.07-.94.2-.45.3-.59.52-.2.44-.2.69c0,.27.07.49.21.65s.33.29.56.39.48.17.74.23l1.27.25c.74.15,1.31.4,1.71.74s.59.84.59,1.49h0Z"/>
    <path class="st0" d="M69.54,129.71h-1.32v-8.62h1.32v8.62Z"/>
    <path class="st0" d="M76.03,129.89c-.62,0-1.2-.11-1.73-.34-.53-.22-1-.54-1.4-.94-.4-.4-.71-.87-.94-1.42s-.34-1.15-.34-1.81.11-1.23.32-1.77.52-1.01.91-1.42c.39-.41.85-.72,1.37-.95.53-.22,1.1-.34,1.73-.34.74,0,1.4.14,1.97.41.57.28,1.05.65,1.43,1.12s.66,1.01.84,1.61h-1.54c-.1-.37-.28-.7-.52-1s-.55-.53-.92-.7c-.37-.17-.81-.26-1.3-.26-.57,0-1.07.14-1.52.41-.44.27-.79.65-1.04,1.15s-.37,1.08-.37,1.76c0,.63.12,1.2.37,1.7s.6.9,1.06,1.2,1.01.44,1.65.44c.53,0,.99-.1,1.39-.31.4-.2.72-.49.97-.86s.41-.8.49-1.29h-2.98v-1.06h4.37c.02.69-.08,1.32-.28,1.88-.2.57-.49,1.06-.86,1.48s-.83.73-1.36.95-1.13.33-1.78.33v.03Z"/>
    <path class="st0" d="M88.18,129.71l-4.54-6.73v6.73h-1.22v-8.62h1.44l4.43,6.55v-6.55h1.22v8.62h-1.33Z"/>
  </g>
  <g>
    <path class="st0" d="M88.9,113.96c-2.37,0-4.63-.2-6.53-.45-.06,0-.11-.07-.1-.13,0-.06.07-.16.13-.15.06,0,6.5.49,10.74-.73,2.61-.75,3.47-4,3.06-5.95-.65-3.15-3.78-5.02-7.1-7.01-3.94-2.36-8.01-4.8-8.68-9.63-.53-3.79.74-7.15,3.58-9.45,2.49-2.02,6.79-3.36,12.29-3.13,2.94.12,6.79,1.09,7.3,1.38.21.12.45,3.29.71,9.43,0,.05-.03.1-.08.12-.05.02-.11,0-.14-.05-.45-.76-.84-1.55-1.22-2.32-.42-.86-.83-1.67-1.3-2.44-1.41-2.26-3.92-4.87-6.74-5.41-1.49-.29-2.89.05-4.16.99-1.26.93-1.76,2.3-1.61,4.43.25,3.49,3.81,5.45,7.57,7.53,4.48,2.47,9.12,5.03,9.46,10.44.34,5.23-2.86,9.48-8.54,11.36-2.69.89-5.74,1.19-8.64,1.19v-.02Z"/>
    <path class="st0" d="M67.84,113.42h-.14c-.27-.01-1.18-.08-1.39-.56-1.65-3.86-3.19-7.84-4.69-11.7-1.76-4.52-3.57-9.2-5.56-13.7-.18-.4-.35-.81-.53-1.24-1.15-2.73-2.46-5.83-5-7.05-.24-.12-.5-.18-.74-.25-.53-.14-1.04-.28-1.33-.86-.02-.04-.02-.08,0-.12s.06-.06.1-.06h20.75s.08.02.1.06.02.08,0,.12c-.37.61-.79.71-1.32.84-.23.06-.5.12-.8.24-.86.34-1.8,1.71-1.78,2.57.04,1.16,4.1,11.72,4.95,13.16.49.83,2.09,2.41,3.67,1.66,1.75-.82,6.36-10.54,6.4-10.63.03-.06.1-.08.16-.06.06.03.09.1.06.15l-11.47,26.92c-.18.35-.84.5-1.45.5h.01Z"/>
    <path class="st0" d="M44.07,113.44h-.14c-.27-.01-1.18-.08-1.39-.56-1.65-3.86-3.19-7.84-4.69-11.7-1.76-4.52-3.57-9.2-5.56-13.7-.18-.4-.35-.81-.53-1.24-1.15-2.73-2.46-5.83-5-7.05-.24-.12-.5-.18-.74-.25-.53-.14-1.04-.28-1.33-.86-.02-.04-.02-.08,0-.12s.06-.06.1-.06h20.75s.08.02.1.06.02.08,0,.12c-.37.61-.79.71-1.32.84-.23.06-.5.12-.8.24-.86.34-1.8,1.71-1.78,2.57.04,1.16,4.1,11.72,4.95,13.16.49.83,2.09,2.41,3.67,1.66,1.75-.82,6.36-10.54,6.4-10.63.03-.06.1-.08.16-.06.06.03.09.1.06.15l-11.47,26.92c-.18.35-.84.5-1.45.5h0Z"/>
  </g>
</svg>