<?xml version="1.0" encoding="UTF-8"?>
<svg id="Ebene_1" data-name="Ebene 1" xmlns="http://www.w3.org/2000/svg" viewBox="0 0 244.4 36.79">
  <defs>
    <style>
      .cls-1 {
        fill: #dcdcc3;
      }
    </style>
  </defs>
  <g>
    <path class="cls-1" d="M97.57,13.6l-3.17,8.62h-1.45l-3.17-8.62h1.42l2.51,7.08,2.54-7.08h1.32Z"/>
    <path class="cls-1" d="M100.74,22.21h-1.32v-8.62h1.32v8.62Z"/>
    <path class="cls-1" d="M109.63,19.69c0,.5-.13.94-.39,1.34-.26.4-.63.72-1.12.95-.49.23-1.08.35-1.78.35s-1.29-.12-1.79-.35-.89-.57-1.17-1c-.28-.43-.44-.93-.48-1.5h1.34c.03.54.22.98.57,1.31.35.33.85.49,1.51.49.37,0,.7-.06.98-.17.29-.11.51-.27.68-.48s.25-.46.25-.76c0-.36-.12-.64-.36-.84-.24-.2-.61-.35-1.1-.46l-1.25-.24c-.3-.06-.59-.15-.87-.26-.28-.11-.52-.26-.74-.44-.22-.18-.39-.4-.52-.67s-.19-.58-.19-.94c0-.49.13-.92.39-1.31.26-.38.62-.69,1.08-.91.46-.22.99-.33,1.59-.33s1.14.12,1.61.35c.48.23.86.56,1.15.97s.45.91.49,1.49h-1.34c-.02-.34-.12-.65-.28-.91-.16-.26-.38-.47-.65-.62-.27-.15-.59-.22-.96-.22s-.68.07-.94.2c-.26.13-.45.3-.59.52-.14.21-.2.44-.2.69,0,.27.07.49.21.65.14.16.33.29.56.39.23.1.48.17.74.23l1.27.25c.74.15,1.31.4,1.71.74.4.34.59.84.59,1.49Z"/>
    <path class="cls-1" d="M118.51,13.6v5.52c0,.66-.13,1.23-.4,1.72s-.65.87-1.15,1.15c-.5.27-1.09.41-1.79.41s-1.28-.14-1.78-.41-.88-.65-1.15-1.15c-.27-.49-.4-1.07-.4-1.72v-5.52h1.32v5.56c0,.42.08.78.24,1.09.16.31.39.55.68.71.3.17.66.25,1.08.25s.8-.08,1.1-.25c.3-.17.53-.41.68-.71.16-.31.23-.67.23-1.09v-5.56h1.32Z"/>
    <path class="cls-1" d="M126.67,22.21l-2.63-7.18-2.66,7.18h-1.33l3.3-8.62h1.45l3.28,8.62h-1.4ZM122.06,19.01h4.01l.36,1.07h-4.81l.44-1.07Z"/>
    <path class="cls-1" d="M135.2,22.21h-5.22v-8.62h1.32v7.43h3.9v1.19Z"/>
    <path class="cls-1" d="M145.91,21.06v1.15h-5.46v-8.62h5.38v1.15h-4.06v2.45h3.7v1.15h-3.7v2.71h4.14Z"/>
    <path class="cls-1" d="M149.11,22.21h-1.54l2.78-4.42-2.53-4.2h1.52l1.98,3.36,2.05-3.36h1.46l-2.58,4.25,2.74,4.37h-1.55l-2.16-3.54-2.18,3.54Z"/>
    <path class="cls-1" d="M159.98,19.21h-1.67v3h-1.32v-8.62h2.99c.64,0,1.2.11,1.67.32.48.21.85.52,1.11.94s.4.92.4,1.53-.13,1.11-.4,1.53c-.26.42-.63.74-1.11.97-.48.22-1.03.34-1.67.34ZM159.97,14.71h-1.66v3.38h1.66c.58,0,1.04-.15,1.37-.46.33-.3.5-.72.5-1.25s-.17-.95-.5-1.24-.79-.44-1.37-.44Z"/>
    <path class="cls-1" d="M170.66,21.06v1.15h-5.46v-8.62h5.38v1.15h-4.06v2.45h3.7v1.15h-3.7v2.71h4.14Z"/>
    <path class="cls-1" d="M174.25,22.21h-1.32v-8.62h3.22c.99,0,1.77.23,2.33.7.56.47.84,1.13.84,1.99,0,.62-.18,1.15-.55,1.6-.37.45-.88.75-1.54.9l2.34,3.43h-1.58l-2.15-3.24h-1.58v3.24ZM174.25,14.7v3.17h1.81c.61,0,1.08-.13,1.42-.4s.5-.66.5-1.18-.17-.91-.5-1.18-.81-.4-1.42-.4h-1.81Z"/>
    <path class="cls-1" d="M182.88,22.21h-1.32v-8.62h1.32v8.62Z"/>
    <path class="cls-1" d="M190.93,21.06v1.15h-5.46v-8.62h5.38v1.15h-4.06v2.45h3.7v1.15h-3.7v2.71h4.14Z"/>
    <path class="cls-1" d="M198.96,22.21l-4.54-6.73v6.73h-1.22v-8.62h1.44l4.43,6.55v-6.55h1.22v8.62h-1.33Z"/>
    <path class="cls-1" d="M206.63,22.39c-.6,0-1.16-.11-1.67-.34-.52-.23-.97-.55-1.36-.95-.39-.41-.69-.89-.91-1.43s-.32-1.14-.32-1.77.11-1.22.32-1.76.52-1.02.91-1.42c.39-.4.84-.72,1.36-.95.52-.23,1.07-.34,1.67-.34.72,0,1.38.15,1.97.44s1.09.71,1.49,1.25c.4.54.65,1.16.75,1.87h-1.4c-.08-.46-.25-.88-.52-1.24-.26-.36-.59-.64-.98-.84-.39-.2-.82-.3-1.3-.3-.42,0-.81.08-1.17.24-.36.16-.66.39-.92.68-.26.3-.46.64-.6,1.04-.14.4-.21.84-.21,1.32s.07.92.21,1.33c.14.4.34.75.6,1.05.26.3.57.53.92.69.36.16.75.25,1.17.25.48,0,.92-.1,1.31-.31.39-.2.72-.49.98-.85.26-.36.43-.77.51-1.24h1.4c-.1.71-.35,1.34-.75,1.87-.4.54-.89.95-1.49,1.25s-1.25.45-1.97.45Z"/>
    <path class="cls-1" d="M218.39,21.06v1.15h-5.46v-8.62h5.38v1.15h-4.06v2.45h3.7v1.15h-3.7v2.71h4.14Z"/>
    <path class="cls-1" d="M93.26,36.61h-2.72v-8.62h2.72c.92,0,1.7.18,2.35.55.65.36,1.14.87,1.48,1.51.34.64.5,1.38.5,2.22s-.17,1.57-.52,2.23c-.34.65-.84,1.17-1.49,1.55-.65.38-1.43.57-2.32.57ZM91.86,29.14v6.34h1.34c.66,0,1.22-.13,1.67-.39.45-.26.79-.63,1.03-1.11.23-.48.35-1.05.35-1.7s-.12-1.21-.35-1.67c-.23-.47-.57-.83-1.03-1.08-.45-.25-1.01-.38-1.67-.38h-1.34Z"/>
    <path class="cls-1" d="M105.16,35.46v1.15h-5.46v-8.62h5.38v1.15h-4.06v2.45h3.7v1.15h-3.7v2.71h4.14Z"/>
    <path class="cls-1" d="M113.72,34.09c0,.5-.13.94-.39,1.34s-.63.72-1.12.95c-.49.23-1.08.35-1.78.35s-1.29-.12-1.79-.35c-.5-.24-.89-.57-1.17-1-.28-.43-.44-.93-.48-1.5h1.34c.03.54.22.98.57,1.31s.85.49,1.51.49c.37,0,.7-.06.98-.17.29-.11.51-.27.68-.48s.25-.46.25-.76c0-.36-.12-.64-.36-.84-.24-.2-.61-.35-1.1-.46l-1.25-.24c-.3-.06-.59-.15-.87-.26-.28-.11-.52-.26-.74-.44s-.39-.4-.52-.67c-.12-.27-.19-.58-.19-.94,0-.49.13-.92.39-1.31.26-.38.62-.69,1.08-.91.46-.22.99-.33,1.59-.33s1.14.12,1.61.35c.48.23.86.56,1.15.97s.45.91.49,1.49h-1.34c-.02-.34-.12-.65-.28-.91s-.38-.47-.65-.62c-.27-.15-.59-.22-.96-.22s-.68.07-.94.2c-.26.13-.45.3-.59.52-.14.21-.2.44-.2.69,0,.27.07.49.21.65.14.16.33.29.56.39.23.1.48.17.74.23l1.27.25c.74.15,1.31.4,1.71.74.4.34.59.84.59,1.49Z"/>
    <path class="cls-1" d="M117.29,36.61h-1.32v-8.62h1.32v8.62Z"/>
    <path class="cls-1" d="M123.78,36.79c-.62,0-1.2-.11-1.73-.34-.53-.22-1-.54-1.4-.94-.4-.4-.71-.87-.94-1.42-.22-.55-.34-1.15-.34-1.81s.11-1.23.32-1.77.52-1.01.91-1.42c.39-.41.85-.72,1.37-.95s1.1-.34,1.73-.34c.74,0,1.4.14,1.97.41.57.28,1.05.65,1.43,1.12.38.47.66,1.01.84,1.61h-1.54c-.1-.37-.28-.7-.52-1-.24-.3-.55-.53-.92-.7s-.81-.26-1.3-.26c-.57,0-1.07.14-1.52.41-.44.27-.79.65-1.04,1.15s-.37,1.08-.37,1.76c0,.63.12,1.2.37,1.7s.6.9,1.06,1.2c.46.3,1.01.44,1.65.44.53,0,.99-.1,1.39-.31.4-.2.72-.49.97-.86.25-.37.41-.8.49-1.29h-2.98v-1.06h4.37c.02.69-.08,1.32-.28,1.88-.2.57-.49,1.06-.86,1.48-.38.42-.83.73-1.36.95-.53.22-1.13.33-1.78.33Z"/>
    <path class="cls-1" d="M135.92,36.61l-4.54-6.73v6.73h-1.22v-8.62h1.44l4.43,6.55v-6.55h1.22v8.62h-1.33Z"/>
    <path class="cls-1" d="M146.05,33.61h-1.67v3h-1.32v-8.62h2.99c.64,0,1.2.11,1.67.32.48.21.85.52,1.11.94s.4.92.4,1.53-.13,1.11-.4,1.53-.63.74-1.11.97c-.48.22-1.03.34-1.67.34ZM146.04,29.11h-1.66v3.38h1.66c.58,0,1.04-.15,1.37-.46.33-.3.5-.72.5-1.25s-.17-.95-.5-1.24-.79-.44-1.37-.44Z"/>
    <path class="cls-1" d="M152.59,36.61h-1.32v-8.62h3.22c.99,0,1.77.23,2.33.7.56.47.84,1.13.84,1.99,0,.62-.18,1.15-.55,1.6-.37.45-.88.75-1.54.9l2.34,3.43h-1.58l-2.15-3.24h-1.58v3.24ZM152.59,29.1v3.17h1.81c.61,0,1.08-.13,1.42-.4.34-.27.5-.66.5-1.18s-.17-.91-.5-1.18c-.34-.27-.81-.4-1.42-.4h-1.81Z"/>
    <path class="cls-1" d="M161.22,36.61h-1.32v-8.62h1.32v8.62Z"/>
    <path class="cls-1" d="M169.57,36.61l-4.54-6.73v6.73h-1.22v-8.62h1.44l4.43,6.55v-6.55h1.22v8.62h-1.33Z"/>
    <path class="cls-1" d="M176.9,36.61h-1.32v-7.43h-2.81v-1.19h6.94v1.19h-2.81v7.43Z"/>
    <path class="cls-1" d="M189.6,32.66h1.12c0,.33-.05.66-.13.98-.08.33-.19.64-.32.92s-.29.55-.46.78c-.36.46-.77.8-1.22,1.03-.46.23-.93.35-1.43.35-.58,0-1.08-.11-1.5-.32s-.75-.51-.98-.9c-.23-.39-.35-.84-.35-1.36,0-.37.08-.7.25-1.01s.39-.57.68-.8c.29-.23.63-.42,1-.55l.65.76c-.27.06-.52.15-.73.29-.22.14-.38.32-.5.53s-.18.45-.18.71c0,.28.06.55.19.8s.32.46.58.62c.26.16.6.24,1,.24s.74-.1,1.08-.29c.34-.19.6-.46.8-.79.14-.22.24-.51.32-.86.08-.35.13-.73.14-1.13ZM187.43,31.99l4.12,4.62h-1.51l-3.84-4.31c-.19-.22-.35-.43-.47-.63-.12-.2-.22-.4-.28-.6s-.1-.42-.1-.65c0-.39.1-.74.3-1.05.2-.31.48-.55.83-.73.36-.18.75-.26,1.19-.26s.84.09,1.19.26.61.41.81.73c.2.31.3.68.31,1.09h-1.14c-.02-.24-.08-.44-.19-.6s-.25-.28-.42-.37-.35-.13-.55-.13-.38.05-.55.14c-.17.09-.3.22-.4.38s-.14.35-.14.56c0,.18.03.34.1.5.06.16.16.32.29.49s.28.36.47.58Z"/>
    <path class="cls-1" d="M198.07,36.61h-2.72v-8.62h2.72c.92,0,1.7.18,2.35.55.65.36,1.14.87,1.48,1.51.34.64.5,1.38.5,2.22s-.17,1.57-.52,2.23c-.34.65-.84,1.17-1.49,1.55-.65.38-1.43.57-2.32.57ZM196.66,29.14v6.34h1.34c.66,0,1.22-.13,1.67-.39.45-.26.79-.63,1.03-1.11.23-.48.35-1.05.35-1.7s-.12-1.21-.35-1.67c-.23-.47-.57-.83-1.03-1.08-.45-.25-1.01-.38-1.67-.38h-1.34Z"/>
    <path class="cls-1" d="M205.82,36.61h-1.32v-8.62h1.32v8.62Z"/>
    <path class="cls-1" d="M212.31,36.79c-.62,0-1.2-.11-1.73-.34-.53-.22-1-.54-1.4-.94-.4-.4-.71-.87-.94-1.42-.22-.55-.34-1.15-.34-1.81s.11-1.23.32-1.77.52-1.01.91-1.42c.39-.41.85-.72,1.37-.95s1.1-.34,1.73-.34c.74,0,1.4.14,1.97.41.57.28,1.05.65,1.43,1.12.38.47.66,1.01.84,1.61h-1.54c-.1-.37-.28-.7-.52-1-.24-.3-.55-.53-.92-.7s-.81-.26-1.3-.26c-.57,0-1.07.14-1.52.41-.44.27-.79.65-1.04,1.15s-.37,1.08-.37,1.76c0,.63.12,1.2.37,1.7s.6.9,1.06,1.2c.46.3,1.01.44,1.65.44.53,0,.99-.1,1.39-.31.4-.2.72-.49.97-.86.25-.37.41-.8.49-1.29h-2.98v-1.06h4.37c.02.69-.08,1.32-.28,1.88-.2.57-.49,1.06-.86,1.48-.38.42-.83.73-1.36.95-.53.22-1.13.33-1.78.33Z"/>
    <path class="cls-1" d="M220.02,36.61h-1.32v-8.62h1.32v8.62Z"/>
    <path class="cls-1" d="M226.03,36.61h-1.32v-7.43h-2.81v-1.19h6.94v1.19h-2.81v7.43Z"/>
    <path class="cls-1" d="M235.87,36.61l-2.63-7.18-2.66,7.18h-1.33l3.3-8.62h1.45l3.28,8.62h-1.4ZM231.26,33.41h4.01l.36,1.07h-4.81l.44-1.07Z"/>
    <path class="cls-1" d="M244.4,36.61h-5.22v-8.62h1.32v7.43h3.9v1.19Z"/>
  </g>
  <g>
    <path class="cls-1" d="M64.23,36.67c-2.37,0-4.63-.2-6.53-.45-.06,0-.11-.07-.1-.13,0-.06.07-.16.13-.15.06,0,6.5.49,10.74-.73,2.61-.75,3.47-4,3.06-5.95-.65-3.15-3.78-5.02-7.1-7.01-3.94-2.36-8.01-4.8-8.68-9.63-.53-3.79.74-7.15,3.58-9.45C61.82,1.13,66.12-.2,71.61.02c2.94.12,6.79,1.09,7.3,1.38.21.12.45,3.29.71,9.43,0,.05-.03.1-.08.12-.05.02-.11,0-.14-.05-.45-.76-.84-1.55-1.22-2.32-.42-.86-.83-1.67-1.3-2.44-1.41-2.26-3.92-4.87-6.74-5.41-1.49-.29-2.89.05-4.16.99-1.26.93-1.76,2.3-1.61,4.43.25,3.49,3.81,5.45,7.57,7.53,4.48,2.47,9.12,5.03,9.46,10.44.34,5.23-2.86,9.48-8.54,11.36-2.69.89-5.74,1.19-8.64,1.19Z"/>
    <path class="cls-1" d="M43.17,36.14s-.1,0-.14,0c-.27-.01-1.18-.08-1.39-.56-1.65-3.86-3.19-7.84-4.69-11.7-1.76-4.52-3.57-9.2-5.56-13.7-.18-.4-.35-.81-.53-1.24-1.15-2.73-2.46-5.83-5-7.05-.24-.12-.5-.18-.74-.25-.53-.14-1.04-.28-1.33-.86-.02-.04-.02-.08,0-.12s.06-.06.1-.06h20.75s.08.02.1.06.02.08,0,.12c-.37.61-.79.71-1.32.84-.23.06-.5.12-.8.24-.86.34-1.8,1.71-1.78,2.57.04,1.16,4.1,11.72,4.95,13.16.49.83,2.09,2.41,3.67,1.66,1.75-.82,6.36-10.54,6.4-10.63.03-.06.1-.08.16-.06.06.03.09.1.06.15l-11.47,26.92c-.18.35-.84.5-1.45.5Z"/>
    <path class="cls-1" d="M19.4,36.15s-.1,0-.14,0c-.27-.01-1.18-.08-1.39-.56-1.65-3.86-3.19-7.84-4.69-11.7-1.76-4.52-3.57-9.2-5.56-13.7-.18-.4-.35-.81-.53-1.24-1.15-2.73-2.46-5.83-5-7.05-.24-.12-.5-.18-.74-.25C.81,1.51.31,1.38.01.8c-.02-.04-.02-.08,0-.12s.06-.06.1-.06h20.75s.08.02.1.06.02.08,0,.12c-.37.61-.79.71-1.32.84-.23.06-.5.12-.8.24-.86.34-1.8,1.71-1.78,2.57.04,1.16,4.1,11.72,4.95,13.16.49.83,2.09,2.41,3.67,1.66,1.75-.82,6.36-10.54,6.4-10.63.03-.06.1-.08.16-.06.06.03.09.1.06.15l-11.47,26.92c-.18.35-.84.5-1.45.5Z"/>
  </g>
</svg>