<?xml version="1.0" encoding="UTF-8"?>
<svg id="Ebene_1" xmlns="http://www.w3.org/2000/svg" version="1.1" viewBox="0 0 40 40">
  <!-- Generator: Adobe Illustrator 29.8.3, SVG Export Plug-In . SVG Version: 2.1.1 Build 3)  -->
  <defs>
    <style>
      .st0 {
        fill: #474847;
      }
    </style>
  </defs>
  <path class="st0" d="M19.99,37c-1.54,0-3.08,0-4.62,0-.47,0-.95,0-1.42-.02-.44-.02-.87-.12-1.28-.3-.58-.26-1.04-.66-1.34-1.23-.31-.6-.39-1.23-.25-1.88.04-.19.11-.38.17-.56.05-.14.04-.17-.11-.23-.6-.22-.99-.64-1.13-1.26-.16-.71.1-1.44.75-1.87.33-.22.67-.44,1.01-.66.33-.22.67-.43,1-.65.02-.02.05-.03.07-.05.3-.19.48-.45.55-.8.09-.5.19-.99.27-1.49.1-.53.18-1.07.41-1.57.54-1.19,1.47-1.89,2.76-2.1.27-.04.54-.05.81-.06.36,0,.71,0,1.07,0,.06,0,.14.03.15-.06.01-.08-.07-.09-.12-.12-.19-.09-.39-.17-.57-.28-.59-.34-1.01-.84-1.29-1.46-.21-.45-.32-.92-.31-1.42.01-.92.31-1.74.97-2.4.53-.54,1.16-.87,1.92-.97.65-.09,1.28-.02,1.88.24.39.17.74.39,1.04.68.37.37.64.8.82,1.3.13.36.2.74.19,1.13-.02,1.27-.56,2.25-1.65,2.91-.17.1-.36.18-.54.27-.02,0-.04.01-.05.02-.02.03-.05.06-.05.09,0,.02.05.05.08.06.04.01.08,0,.13,0,.44,0,.87-.01,1.31,0,.92.04,1.74.32,2.43.95.43.39.73.86.93,1.4.17.46.26.94.34,1.42.08.48.18.96.27,1.43.07.38.29.66.62.86.53.34,1.06.68,1.6,1.02.18.12.36.23.53.37.45.35.68.83.67,1.39-.02.76-.41,1.36-1.17,1.64,0,0-.02,0-.03,0-.14.05-.15.08-.09.22.05.12.1.24.14.37.35,1.31-.15,2.69-1.55,3.32-.47.21-.96.3-1.46.31-1.48.01-2.97,0-4.45,0-.47,0-.94,0-1.4,0,0,0,0,0,0,0ZM22.79,29.04c0-.87,0-1.74,0-2.61,0-.08,0-.17.03-.25.04-.23.25-.4.47-.4.25,0,.45.15.5.39.01.05.02.11.03.17.05.48.1.96.16,1.44.05.44.14.87.25,1.29.09.35.26.64.57.84.15.1.3.21.45.31.67.43,1.34.86,2.01,1.28.17.1.34.2.51.3.11.06.23.12.37.12.29,0,.52-.11.7-.33.26-.32.22-.75-.09-1.02-.07-.06-.15-.12-.22-.17-.37-.24-.74-.48-1.11-.72-.36-.24-.72-.48-1.08-.71-.31-.2-.5-.5-.62-.84-.16-.43-.24-.88-.31-1.34-.08-.49-.15-.99-.28-1.47-.17-.63-.51-1.15-1.05-1.53-.47-.33-1.01-.46-1.58-.46-1.43,0-2.86,0-4.28,0-.36,0-.71.01-1.07.04-.39.03-.75.15-1.09.35-.62.38-1.01.93-1.17,1.63-.11.47-.18.95-.27,1.42-.08.45-.16.89-.29,1.33-.12.38-.33.68-.66.9-.57.37-1.14.74-1.71,1.11-.23.15-.47.3-.69.46-.23.18-.31.43-.25.71.07.33.41.67.81.66.16,0,.31-.05.45-.14.31-.19.63-.37.93-.57.66-.43,1.32-.86,1.97-1.29.27-.18.46-.41.54-.73,0-.03.02-.05.02-.08.16-.55.23-1.13.31-1.7.05-.39.09-.79.13-1.18.03-.29.23-.44.52-.45.24,0,.44.15.48.39.01.07.02.15.01.22,0,1.72,0,3.44,0,5.15,0,.39-.08.31.33.47.68.27,1.36.56,2.02.88.11.06.23.11.34.17.08.04.15.04.23,0,.09-.05.19-.1.29-.15.73-.37,1.48-.71,2.25-.98.12-.04.14-.07.14-.2,0-.89,0-1.79,0-2.68ZM21.5,35.99h0c1.39-.01,2.78-.01,4.17-.01.32,0,.65-.04.95-.14.54-.18.98-.5,1.2-1.04.25-.6.19-1.18-.21-1.71-.32-.43-.78-.64-1.29-.73-.32-.06-.65-.07-.98-.04-.4.03-.8.09-1.19.2-.98.27-1.91.66-2.82,1.09-1.27.6-2.49,1.3-3.72,1.98-.14.08-.28.16-.43.24-.05.03-.11.05-.1.12.02.08.09.06.15.06.07,0,.14,0,.21,0,1.34,0,2.69,0,4.03,0ZM17.64,18.92c-.02,1.27,1.04,2.36,2.33,2.36,1.28,0,2.4-.97,2.41-2.32,0-1.45-1.25-2.41-2.42-2.39-1.22.02-2.35,1.1-2.32,2.36ZM14.8,36.01s0-.02,0-.03c.2,0,.4,0,.6,0,.12,0,.13,0,.15-.12.03-.16.11-.29.24-.38.06-.04.12-.08.18-.12.45-.26.91-.53,1.36-.78.44-.24.88-.48,1.32-.72.06-.03.14-.04.14-.12,0-.08-.08-.1-.14-.12-.76-.38-1.53-.7-2.33-.96-.79-.26-1.6-.41-2.44-.33-.34.03-.67.12-.97.29-.34.19-.6.46-.74.83-.1.26-.13.53-.11.81.03.37.16.7.4.98.33.38.76.61,1.26.68.36.05.73.06,1.09.09ZM23.78,31.02c0,.12,0,.24,0,.36,0,.15.04.17.18.14.21-.04.41-.09.62-.14.09-.02.18-.03.27-.06.1-.03.11-.1.04-.17-.03-.02-.06-.04-.09-.06-.28-.19-.56-.37-.84-.56-.04-.03-.08-.07-.12-.03-.03.03-.04.08-.05.12,0,.13,0,.25,0,.38ZM16.2,31.04h0c0-.13,0-.26,0-.39,0-.13-.06-.16-.17-.09-.3.2-.6.39-.9.59-.02.02-.05.03-.07.05-.05.05-.03.1.03.13.02,0,.04.01.05.01.3.07.59.13.89.2.12.03.16,0,.16-.12,0-.13,0-.25,0-.38Z"/>
  <path class="st0" d="M12.56,6.76c.01-.22,0-.45.03-.67.03-.29.22-.46.51-.45.23,0,.47.03.7.07,1.12.19,2.18.55,3.15,1.14.02.01.05.03.07.04.07.03.11.02.15-.06,0-.01,0-.03.01-.04.26-.81.68-1.54,1.19-2.22.37-.5.79-.96,1.25-1.38.01,0,.02-.02.03-.03.25-.22.44-.23.7-.01.18.16.35.33.52.51.42.44.8.91,1.12,1.42.32.5.58,1.03.77,1.59.09.26.09.26.32.12.97-.57,2.01-.93,3.12-1.1.22-.03.44-.05.66-.06.07,0,.14,0,.21.02.15.03.27.12.31.27.04.13.06.27.06.4.04,1.05-.07,2.08-.39,3.07-.38,1.2-1.06,2.22-2.04,3.01-.65.52-1.37.91-2.16,1.17-.61.2-1.23.33-1.86.4-.49.05-.99.07-1.49.04-1.35-.08-2.64-.38-3.8-1.1-.54-.33-1.02-.73-1.44-1.2-.83-.95-1.34-2.06-1.55-3.3-.11-.63-.15-1.16-.15-1.68ZM17.84,8.85c0,.06,0,.12.01.18.03.82.28,1.57.7,2.27.36.61.82,1.12,1.34,1.6.1.09.12.09.23,0,.51-.45.95-.96,1.3-1.54.5-.83.74-1.72.71-2.69-.02-.67-.18-1.31-.46-1.93-.23-.53-.53-1.02-.87-1.49-.22-.29-.47-.57-.71-.85-.08-.1-.11-.09-.2,0-.05.06-.1.12-.16.18-.43.47-.81.98-1.13,1.54-.48.85-.77,1.75-.78,2.74ZM26.39,7.16c0-.09,0-.19,0-.28,0-.1-.04-.13-.14-.12-.04,0-.07,0-.11.02-.27.06-.54.11-.81.19-.68.19-1.32.47-1.91.86-.07.04-.13.09-.2.14-.06.05-.09.11-.08.19.02.14.03.28.03.42.02.37-.02.75-.07,1.12-.1.74-.36,1.42-.73,2.06-.19.33-.42.64-.68.93-.02.02-.04.07-.03.1,0,.05.06.06.1.05.02,0,.05-.01.07-.02.17-.04.35-.08.52-.13.98-.29,1.84-.78,2.53-1.54.46-.51.82-1.08,1.07-1.72.27-.72.42-1.47.45-2.25ZM13.61,7.03s0,0,0,0c0,.1.02.2.02.29.02.58.12,1.15.3,1.71.24.79.63,1.49,1.19,2.09.74.78,1.63,1.31,2.67,1.59.14.04.27.06.41.09.04,0,.09.01.11-.04,0-.03-.01-.07-.02-.1,0-.01-.02-.02-.03-.03-.26-.31-.5-.63-.7-.98-.46-.81-.72-1.68-.74-2.62,0-.27,0-.54.02-.81,0-.09.01-.18-.08-.24-.16-.1-.32-.22-.48-.32-.62-.37-1.28-.63-1.98-.8-.18-.04-.36-.08-.54-.11-.11-.02-.15.02-.15.13,0,.05,0,.09,0,.14Z"/>
</svg>